<svg width="51" height="51" viewBox="0 0 51 51" fill="none" xmlns="http://www.w3.org/2000/svg">
<g clip-path="url(#clip0_262_121)">
<path d="M22.0535 3.38672C22.3523 3.38672 22.6711 3.32695 22.9301 3.40664C23.3684 3.52617 23.8266 3.68555 24.1652 3.96445C24.4242 4.16367 24.6234 4.26328 24.9422 4.26328C27.3129 4.26328 29.6836 4.26328 32.0543 4.26328C34.2855 4.26328 35.6801 5.65781 35.6801 7.90898C35.6801 11.9531 35.6801 16.0172 35.7 20.0613C35.7 20.3203 35.8594 20.6191 35.9988 20.8582C36.3176 21.3961 36.6961 21.9141 37.0148 22.452C41.4773 30.0223 45.9398 37.5926 50.4023 45.1828C51.4184 46.8961 51.1594 48.7887 49.7449 50.0637C48.9879 50.741 48.0914 51.0199 47.0953 51.0199C42.1148 51.0199 37.1344 51.0199 32.1539 51.0199C27.8508 51.0199 23.5477 51.0199 19.2645 51.0199C17.591 51.0199 16.3559 50.2828 15.6586 48.7687C15.5191 48.4699 15.3199 48.4699 15.0609 48.4699C11.2359 48.4699 7.43086 48.4699 3.60586 48.4699C1.9125 48.4699 0.6375 47.5934 0.179297 46.1191C0.0597656 45.7605 0.0199219 45.3621 0.0199219 45.0035C0 32.5523 0 20.1609 0 7.76953C0 5.7375 1.43437 4.2832 3.46641 4.26328C5.89687 4.24336 8.34726 4.26328 10.7777 4.26328C11.0766 4.26328 11.2957 4.20352 11.4949 3.96445C11.9332 3.42656 12.5707 3.3668 13.2281 3.40664C13.4871 3.42656 13.6664 3.38672 13.766 3.06797C14.3637 1.17539 15.9773 0 17.8699 0C19.7625 0 21.3363 1.21523 21.934 3.08789C21.9539 3.1875 21.9937 3.26719 22.0535 3.38672ZM5.11992 43.35C5.31914 43.35 5.49844 43.35 5.67773 43.35C9.28359 43.35 12.8895 43.35 16.4754 43.3699C16.8539 43.3699 17.0531 43.2504 17.2523 42.9117C21.3961 35.8594 25.5398 28.827 29.6836 21.7746C29.8629 21.4559 30.102 21.177 30.2812 20.8582C30.4207 20.6191 30.5801 20.3402 30.5801 20.0812C30.6 16.6945 30.6 13.3078 30.6 9.92109C30.6 9.7418 30.6 9.5625 30.6 9.36328C28.568 9.36328 26.6156 9.36328 24.6633 9.3832C24.5238 9.3832 24.3844 9.5625 24.225 9.64219C23.8266 9.84141 23.4281 10.0605 22.9898 10.2C22.7508 10.2797 22.4719 10.2199 22.193 10.2199C19.1449 10.2199 16.077 10.2199 13.0289 10.2199C12.4312 10.2199 11.9332 10.1004 11.4949 9.66211C11.3355 9.50273 11.0965 9.3832 10.8773 9.3832C9.1043 9.34336 7.35117 9.36328 5.59805 9.36328C5.43867 9.36328 5.2793 9.3832 5.11992 9.3832C5.11992 20.7187 5.11992 31.9945 5.11992 43.35ZM33.15 49.3066C37.7719 49.3066 42.4137 49.3066 47.0355 49.3066C48.8684 49.3066 49.8445 47.6332 48.9082 46.0594C44.2664 38.1703 39.6246 30.2812 34.9828 22.3922C34.0863 20.8582 32.1738 20.8582 31.2773 22.3922C26.6355 30.2812 21.9937 38.1703 17.352 46.0594C17.1926 46.3383 17.0531 46.657 17.0332 46.9758C16.8738 48.2906 17.8301 49.2867 19.2047 49.2867C23.8664 49.3066 28.5082 49.3066 33.15 49.3066ZM15.8977 45.0434C15.6984 45.0434 15.5191 45.0434 15.3598 45.0434C11.993 45.0434 8.62617 45.0434 5.25937 45.0434C4.08398 45.0434 3.40664 44.3461 3.40664 43.1906C3.40664 31.9746 3.40664 20.7586 3.40664 9.52266C3.40664 8.34727 4.08398 7.66992 5.25937 7.66992C6.99258 7.66992 8.7457 7.66992 10.4789 7.66992C10.6582 7.66992 10.8375 7.66992 11.0168 7.66992C11.0168 7.07227 11.0168 6.53437 11.0168 5.97656C8.54648 5.97656 6.13594 5.97656 3.70547 5.97656C2.33086 5.97656 1.69336 6.59414 1.69336 7.98867C1.69336 20.2605 1.69336 32.5125 1.69336 44.7844C1.69336 46.1191 2.33086 46.7566 3.68555 46.7566C7.39102 46.7566 11.0965 46.7566 14.782 46.7566C14.9613 46.7566 15.1406 46.7566 15.2402 46.7566C15.4793 46.1391 15.6785 45.6211 15.8977 45.0434ZM22.9102 5.1C22.3922 5.1 21.8941 5.1 21.3961 5.1C20.7387 5.1 20.4598 4.84102 20.4 4.18359C20.3801 3.94453 20.3402 3.68555 20.2605 3.44648C19.902 2.31094 18.7664 1.57383 17.6109 1.69336C16.3758 1.83281 15.4395 2.78906 15.3199 4.02422C15.2402 4.88086 15.0012 5.08008 14.1645 5.1C13.7062 5.1 13.248 5.1 12.7898 5.1C12.7898 6.27539 12.7898 7.37109 12.7898 8.4668C16.1965 8.4668 19.5434 8.4668 22.9102 8.4668C22.9102 7.33125 22.9102 6.23555 22.9102 5.1ZM33.9867 19.5832C33.9867 19.4437 33.9867 19.3043 33.9867 19.1848C33.9867 15.3996 33.9867 11.6145 33.9867 7.8293C33.9867 6.61406 33.3293 5.97656 32.0941 5.97656C29.7832 5.97656 27.4723 5.97656 25.1812 5.97656C25.0219 5.97656 24.8625 5.99648 24.7031 5.99648C24.7031 6.57422 24.7031 7.11211 24.7031 7.66992C26.6156 7.66992 28.4684 7.66992 30.3211 7.66992C31.6758 7.66992 32.2934 8.2875 32.2934 9.64219C32.2934 12.7699 32.2934 15.8777 32.2934 19.0055C32.2934 19.2047 32.2934 19.4039 32.2934 19.5832C32.8711 19.5832 33.3891 19.5832 33.9867 19.5832Z" fill="#1DAD8C"/>
<path d="M14.5031 27.1934C12.5707 27.1934 10.6582 27.1934 8.72578 27.1934C8.02852 27.1934 7.66992 26.8945 7.66992 26.3566C7.66992 25.8188 8.04844 25.5 8.70586 25.5C12.5309 25.5 16.3758 25.5 20.2008 25.5C20.8781 25.5 21.2367 25.8188 21.2367 26.3566C21.2367 26.8945 20.8781 27.1934 20.2207 27.1934C18.3082 27.1934 16.3957 27.1934 14.5031 27.1934Z" fill="#1DAD8C"/>
<path d="M14.4434 17.85C12.5309 17.85 10.6184 17.85 8.72578 17.85C8.02852 17.85 7.66992 17.5711 7.66992 17.0133C7.66992 16.4754 8.04844 16.1566 8.70586 16.1566C12.5309 16.1566 16.3758 16.1566 20.2008 16.1566C20.8781 16.1566 21.2367 16.4754 21.2367 17.0332C21.2367 17.5711 20.8781 17.85 20.2207 17.8699C18.2883 17.85 16.3758 17.85 14.4434 17.85Z" fill="#1DAD8C"/>
<path d="M13.5866 34.8633C15.2202 34.8633 16.8737 34.8633 18.5073 34.8633C19.1647 34.8633 19.5233 35.1621 19.5233 35.6801C19.5433 36.2379 19.1647 36.5566 18.4874 36.5566C15.2003 36.5566 11.9132 36.5566 8.646 36.5566C8.0085 36.5566 7.6499 36.2379 7.6499 35.7C7.6499 35.1621 8.0085 34.8633 8.646 34.8633C8.76553 34.8633 8.88506 34.8633 8.98467 34.8633C10.5386 34.8633 12.0726 34.8633 13.5866 34.8633Z" fill="#1DAD8C"/>
<path d="M25.4401 16.5152C26.0776 15.6586 26.6952 14.8219 27.3327 14.0051C27.751 13.4672 28.528 13.4672 28.7671 14.025C28.8866 14.284 28.8667 14.7223 28.7272 14.9414C27.9303 16.0969 27.0737 17.2125 26.2171 18.3281C25.8585 18.7863 25.3405 18.8063 24.9221 18.4277C24.6432 18.1887 24.4042 17.9297 24.1452 17.6508C23.7667 17.2524 23.7268 16.8141 24.0456 16.4555C24.3643 16.077 24.8026 16.057 25.2807 16.3957C25.3007 16.4356 25.3405 16.4754 25.4401 16.5152Z" fill="#1DAD8C"/>
<path d="M33.9868 32.7118C33.9868 34.445 33.9868 36.1583 33.9868 37.8915C33.9868 38.0508 33.9868 38.2301 33.9669 38.3895C33.9071 38.8079 33.6481 39.0469 33.2497 39.0868C32.8114 39.1266 32.4927 38.9473 32.3731 38.529C32.3134 38.3297 32.2935 38.1106 32.2935 37.8915C32.2935 34.445 32.2935 30.9985 32.2935 27.552C32.2935 27.4126 32.2935 27.293 32.3134 27.1536C32.3731 26.6754 32.7317 26.3567 33.1899 26.3766C33.6481 26.3965 33.9868 26.6954 34.0067 27.2133C34.0267 27.9704 34.0067 28.7473 34.0067 29.5044C33.9868 30.5602 33.9868 31.636 33.9868 32.7118Z" fill="#1DAD8C"/>
<path d="M35.7 44.1867C35.7 45.6211 34.5644 46.7367 33.15 46.7367C31.7554 46.7367 30.6199 45.6012 30.6199 44.2066C30.6199 42.8121 31.7953 41.6367 33.1898 41.6367C34.5644 41.6566 35.68 42.7922 35.7 44.1867ZM33.9867 44.2266C34.0066 43.7484 33.6281 43.3699 33.1699 43.35C32.7117 43.35 32.3132 43.7484 32.3132 44.2066C32.3132 44.6449 32.6718 45.0234 33.13 45.0434C33.6082 45.0434 33.9667 44.7047 33.9867 44.2266Z" fill="#1DAD8C"/>
<path d="M18.7065 4.22343C18.7265 4.68164 18.3479 5.08007 17.8698 5.1C17.3718 5.11992 17.0132 4.76132 17.0132 4.2832C17.0132 3.80507 17.3519 3.42656 17.83 3.40664C18.2882 3.38671 18.6866 3.76523 18.7065 4.22343Z" fill="#1DAD8C"/>
</g>
<defs>
<clipPath id="clip0_262_121">
<rect width="51" height="51" fill="white"/>
</clipPath>
</defs>
</svg>
