<svg width="15" height="12" viewBox="0 0 15 12" fill="none" xmlns="http://www.w3.org/2000/svg">
<g clip-path="url(#clip0_350_430)">
<path d="M5.30208 9.19428C5.34524 9.12551 5.37606 9.0705 5.41305 9.02236C7.99012 6.14786 10.5734 3.27336 13.1443 0.38511C13.6806 -0.220048 14.5006 -0.0962656 14.8459 0.55703C15.0925 1.01777 15.0308 1.58167 14.6856 1.98053C14.2971 2.42064 13.9026 2.86075 13.508 3.29399C11.0419 6.05846 8.56965 8.82293 6.09123 11.5805C5.70899 12.0069 5.24659 12.1169 4.81503 11.8762C4.70405 11.8143 4.60541 11.7318 4.5191 11.6355C3.11959 10.0814 1.72008 8.52035 0.320577 6.95932C0.0123153 6.60861 -0.0863284 6.18912 0.0616371 5.72838C0.209603 5.26076 0.517864 5.00631 0.955595 4.9513C1.30085 4.91004 1.58445 5.05445 1.83106 5.32952C2.66953 6.27164 3.51416 7.20689 4.3588 8.14901C4.66706 8.47909 4.96299 8.82293 5.30208 9.19428Z" fill="#1DAD8C"/>
</g>
<defs>
<clipPath id="clip0_350_430">
<rect width="15" height="12" fill="white"/>
</clipPath>
</defs>
</svg>
