<svg width="52" height="44" viewBox="0 0 52 44" fill="none" xmlns="http://www.w3.org/2000/svg">
<g clip-path="url(#clip0_583_255)">
<path d="M20.1513 16.2573C19.2097 16.2573 18.3308 16.2573 17.3891 16.2573C17.3682 16.5052 17.3473 16.7531 17.3473 17.0009C17.3473 24.5822 17.3473 32.184 17.3473 39.7653C17.3473 41.0047 17.0334 42.0789 16.029 42.8639C14.899 43.7521 13.6225 43.938 12.3042 43.339C10.9441 42.7193 10.2535 41.6038 10.2117 40.1371C10.1698 39.0216 10.2117 37.9061 10.2117 36.7906C10.2117 30.1596 10.2117 23.5286 10.2117 16.9183C10.2117 16.7117 10.2117 16.5052 10.2117 16.2573C8.95614 16.2573 7.72153 16.2573 6.48692 16.2573C6.02656 17.4967 5.52435 17.8272 4.14326 17.8272C3.43179 17.8272 2.72032 17.8272 2.00885 17.8272C0.75332 17.8066 0.0209256 17.1042 0.0209256 15.8648C0 11.2376 0 6.58967 0 1.94179C0 0.70235 0.75332 2.85171e-06 2.00885 2.85171e-06C2.76217 2.85171e-06 3.51549 2.85171e-06 4.24789 2.85171e-06C5.52435 2.85171e-06 6.02656 0.351177 6.48692 1.59061C6.65433 1.59061 6.84266 1.59061 7.03099 1.59061C11.4881 1.59061 15.9662 1.59061 20.4233 1.59061C20.8 1.59061 21.0302 1.5493 21.1767 1.1155C21.4278 0.371834 22.0346 0.0206601 22.8298 2.85171e-06C23.7087 -0.0206544 24.6085 2.85171e-06 25.4873 2.85171e-06C26.701 2.85171e-06 27.4334 0.70235 27.4543 1.90047C27.4543 2.06573 27.4543 2.23099 27.4543 2.45822C27.7054 2.47888 27.9147 2.49953 28.1449 2.49953C34.5062 2.49953 40.8676 2.49953 47.229 2.49953C49.1541 2.49953 50.6817 3.20188 51.5187 4.95775C51.8117 5.57747 51.9372 6.32113 51.9372 7.00282C51.9581 17.8272 51.9581 28.6516 51.9581 39.4761C51.9581 42.2028 50.1167 43.9793 47.3545 43.9793C39.8423 43.9793 32.33 43.9793 24.8177 43.9793C21.93 43.9793 20.1304 42.1822 20.1304 39.3315C20.1304 31.8535 20.1304 24.3962 20.1304 16.9183C20.1513 16.7324 20.1513 16.5052 20.1513 16.2573ZM27.5171 10.37C27.7473 10.37 27.9565 10.37 28.1658 10.37C33.439 10.37 38.7332 10.37 44.0064 10.37C44.1948 10.37 44.4459 10.3286 44.5714 10.4319C44.8016 10.6385 45.0527 10.8864 45.1155 11.1549C45.1783 11.5061 44.9062 11.7953 44.5087 11.8779C44.3622 11.8986 44.1948 11.8986 44.0483 11.8986C39.1099 11.8986 34.1714 11.9193 29.2539 11.9193C28.6889 11.9193 28.1239 11.9193 27.4962 11.9193C27.4962 12.1258 27.4962 12.3117 27.4962 12.4977C27.4962 13.6545 27.4962 14.8113 27.4962 15.9474C27.4753 17.0009 26.8475 17.7653 25.7803 17.7859C24.462 17.8066 23.1018 18.0131 21.7835 17.538C21.7626 17.7239 21.7626 17.8685 21.7626 18.0131C21.7626 25.1812 21.7626 32.3286 21.7626 39.4967C21.7626 41.2939 22.9135 42.4301 24.734 42.4301C32.3091 42.4301 39.8632 42.4301 47.4382 42.4301C49.3006 42.4301 50.4306 41.3352 50.4306 39.4761C50.4306 28.6723 50.4306 17.8685 50.4306 7.04413C50.4306 6.71362 50.4306 6.3831 50.3469 6.07324C50.0121 4.77183 48.9658 4.06949 47.4382 4.06949C40.9932 4.06949 34.5272 4.06949 28.0821 4.06949C27.9147 4.06949 27.7473 4.09014 27.538 4.09014C27.5171 6.2385 27.5171 8.30423 27.5171 10.37ZM20.9674 14.646C20.9674 10.8038 20.9674 7.00282 20.9674 3.20188C16.1336 3.20188 11.3207 3.20188 6.50785 3.20188C6.50785 7.04414 6.50785 10.8244 6.50785 14.646C11.3417 14.646 16.1336 14.646 20.9674 14.646ZM11.7811 16.2573C11.7811 16.4845 11.7811 16.6911 11.7811 16.8977C11.7811 24.5202 11.7811 32.1427 11.7811 39.7653C11.7811 40.0338 11.802 40.323 11.8439 40.5916C12.1577 42.0582 13.9364 42.6366 15.0873 41.6451C15.6314 41.17 15.7779 40.5709 15.7779 39.8892C15.7779 32.2047 15.7779 24.4995 15.7779 16.815C15.7779 16.6291 15.7569 16.4432 15.7569 16.2573C14.4177 16.2573 13.1203 16.2573 11.7811 16.2573ZM25.9058 8.98592C25.9058 6.69296 25.9058 4.4 25.9058 2.1277C25.9058 1.71456 25.8012 1.52864 25.3408 1.5493C24.5875 1.59061 23.8342 1.56996 23.1018 1.5493C22.7042 1.52864 22.5787 1.6939 22.5787 2.06573C22.5996 2.64413 22.5787 3.2432 22.5787 3.8216C22.5787 7.76714 22.5787 11.692 22.5787 15.6376C22.5787 16.1333 22.7461 16.3193 23.2274 16.2779C23.9179 16.2366 24.6294 16.2573 25.3199 16.2779C25.7803 16.2986 25.9058 16.1333 25.9058 15.6789C25.9058 13.4479 25.9058 11.2169 25.9058 8.98592ZM1.59034 8.88263C1.59034 11.1756 1.59034 13.4479 1.59034 15.7408C1.59034 16.0507 1.61127 16.2986 2.00885 16.2779C2.82495 16.2573 3.64105 16.2779 4.45714 16.2779C4.77103 16.2779 4.87565 16.154 4.87565 15.8441C4.87565 11.2376 4.87565 6.63099 4.87565 2.02442C4.87565 1.65259 4.72918 1.5493 4.37344 1.5493C3.64105 1.56996 2.90865 1.59061 2.17626 1.5493C1.67404 1.52864 1.54849 1.71456 1.56942 2.16902C1.59034 4.42066 1.59034 6.65165 1.59034 8.88263Z" fill="#1DAD8C"/>
<path d="M36.0754 22.5164C38.9422 22.5164 41.7881 22.5164 44.6549 22.5371C44.9269 22.5371 45.2617 22.6404 45.4501 22.8056C45.8267 23.1362 45.7012 23.7559 45.2199 23.9624C45.0106 24.0657 44.7386 24.0864 44.5084 24.0864C38.9004 24.0864 33.2923 24.0864 27.6843 24.0864C27.5378 24.0864 27.4122 24.0864 27.2658 24.0657C26.7845 24.0038 26.4706 23.6526 26.5334 23.2188C26.5961 22.7643 26.8682 22.5164 27.3495 22.5164C28.4376 22.5164 29.5466 22.5164 30.6348 22.5164C32.4553 22.5164 34.2549 22.5164 36.0754 22.5164Z" fill="#1DAD8C"/>
<path d="M36.0337 30.0977C33.6273 30.0977 31.2208 30.0977 28.8144 30.0977C28.647 30.0977 28.4587 30.0977 28.2913 30.077C27.8937 30.0357 27.6635 29.7878 27.6426 29.3953C27.6216 29.0028 27.7681 28.7136 28.1657 28.6103C28.354 28.569 28.5424 28.5484 28.7307 28.5484C33.6273 28.5484 38.5239 28.5484 43.4204 28.5484C43.5669 28.5484 43.7343 28.5484 43.8808 28.5897C44.3202 28.693 44.5504 28.9615 44.5086 29.3953C44.4667 29.8498 44.1947 30.077 43.7552 30.0977C43.1484 30.1183 42.5416 30.0977 41.9347 30.0977C39.9677 30.0977 38.0007 30.0977 36.0337 30.0977Z" fill="#1DAD8C"/>
<path d="M36.0972 36.1502C33.9 36.1502 31.7028 36.1502 29.5056 36.1502C29.0871 36.1502 28.7523 36.0263 28.6058 35.5925C28.4384 35.0554 28.7942 34.6009 29.401 34.6009C30.0706 34.5803 30.7612 34.6009 31.4308 34.6009C35.0718 34.6009 38.7129 34.6009 42.3539 34.6009C42.5004 34.6009 42.6259 34.6009 42.7724 34.6009C43.2537 34.6216 43.5676 34.9314 43.5676 35.3653C43.5676 35.7991 43.2537 36.1296 42.7724 36.1296C42.1447 36.1502 41.5169 36.1296 40.8891 36.1296C39.2988 36.1502 37.7084 36.1502 36.0972 36.1502Z" fill="#1DAD8C"/>
<path d="M36.0967 17.9718C34.9458 17.9718 33.7948 17.9718 32.6439 17.9718C32.079 17.9718 31.7441 17.6826 31.7441 17.2075C31.7441 16.7324 32.079 16.4432 32.6439 16.4225C34.9248 16.4225 37.2057 16.4225 39.4866 16.4225C40.0725 16.4225 40.4492 16.753 40.4282 17.2282C40.4073 17.6826 40.0516 17.9718 39.4866 17.9718C38.3566 17.9925 37.2266 17.9718 36.0967 17.9718Z" fill="#1DAD8C"/>
<path d="M12.5973 9.93615C13.8529 8.69671 15.0456 7.51925 16.2384 6.3831C16.4267 6.21784 16.7197 6.05258 16.9498 6.05258C17.18 6.07324 17.5148 6.27981 17.5776 6.48638C17.6613 6.73427 17.6195 7.14742 17.4311 7.33333C16.0291 8.77934 14.6062 10.184 13.1623 11.5887C12.8275 11.9192 12.4299 11.8986 12.0951 11.5887C11.3836 10.9277 10.714 10.246 10.0235 9.54366C9.7096 9.21315 9.68867 8.84131 10.0026 8.49014C10.2955 8.18028 10.7768 8.13897 11.1325 8.46948C11.6347 8.92394 12.116 9.44038 12.5973 9.93615Z" fill="#1DAD8C"/>
</g>
<defs>
<clipPath id="clip0_583_255">
<rect width="52" height="44" fill="white"/>
</clipPath>
</defs>
</svg>
