<svg width="39" height="46" viewBox="0 0 39 46" fill="none" xmlns="http://www.w3.org/2000/svg">
<g clip-path="url(#clip0_584_418)">
<path d="M33.2042 2.85703C35.5694 3.01875 35.8764 3.34219 36.1292 5.82188C36.2555 5.80391 36.3819 5.80391 36.5083 5.78594C37.7542 5.58828 38.8917 6.48672 38.9819 7.74453C38.9819 7.81641 38.9819 7.88828 38.9819 7.96016C38.9819 19.9094 38.9819 31.8586 38.9819 43.8078C38.9819 44.9039 38.2958 45.7484 37.2305 45.9641C37.0139 46 36.7792 46 36.5625 46C27.1014 46 17.6403 46 8.17916 46C6.62638 46 5.77777 45.1555 5.77777 43.6102C5.77777 43.4664 5.77777 43.3227 5.77777 43.125C4.94721 43.143 4.15277 43.125 3.52082 42.5141C2.88888 41.8852 2.83471 41.1125 2.88888 40.25C2.69027 40.25 2.52777 40.25 2.36527 40.25C0.830545 40.25 -0.0180664 39.3875 -0.0180664 37.8422C-0.0180664 28.4625 -0.0180664 19.0648 -0.0180664 9.68516C-0.0180664 7.22344 -0.0180664 4.77969 -0.0180664 2.31797C-1.08499e-05 0.8625 0.884711 0 2.32916 0C11.8264 0 21.3055 0 30.8028 0C32.3555 0 33.1861 0.844531 33.2042 2.38984C33.2042 2.53359 33.2042 2.67734 33.2042 2.85703ZM37.6458 25.9469C37.6458 20.0711 37.6458 14.1773 37.6458 8.30156C37.6458 8.15781 37.6639 7.99609 37.6278 7.85234C37.5736 7.54688 37.375 7.40312 37.0861 7.45703C36.9236 7.475 36.7792 7.54688 36.6167 7.61875C29.5389 10.5117 22.4792 13.4047 15.4014 16.2977C13.9569 16.8906 13.1625 16.675 12.2597 15.4172C11.6097 14.5188 10.9778 13.6023 10.3097 12.7219C9.7861 12.0211 8.86527 11.7336 8.14304 11.9852C7.45693 12.2187 7.14999 12.7758 7.14999 13.7641C7.14999 23.6828 7.14999 33.6195 7.14999 43.5383C7.14999 44.4367 7.36666 44.6703 8.26943 44.6703C17.6944 44.6703 27.1014 44.6703 36.5264 44.6703C37.4472 44.6703 37.6639 44.4547 37.6639 43.5203C37.6458 37.6445 37.6458 31.8047 37.6458 25.9469ZM31.8319 2.875C31.9403 1.54531 31.7417 1.34766 30.4958 1.34766C21.1792 1.34766 11.8625 1.34766 2.56388 1.34766C1.57082 1.34766 1.37221 1.54531 1.37221 2.51562C1.37221 14.2492 1.37221 25.9828 1.37221 37.7344C1.37221 37.8781 1.35416 38.0398 1.37221 38.1836C1.42638 38.5609 1.64304 38.8305 2.04027 38.8844C2.3111 38.9203 2.59999 38.8844 2.90693 38.8844C2.90693 38.6508 2.90693 38.4531 2.90693 38.2555C2.90693 27.2586 2.90693 16.2437 2.90693 5.24688C2.88888 3.7375 3.75554 2.875 5.27221 2.875C12.8194 2.875 23.3819 2.875 30.9472 2.875C31.543 2.875 31.8861 3.12656 31.8861 3.55781C31.8861 3.98906 31.5611 4.22266 30.9472 4.22266C30.8569 4.22266 30.7667 4.22266 30.6764 4.22266C23.2555 4.22266 12.8375 4.22266 5.41666 4.22266C4.45971 4.22266 4.2611 4.43828 4.2611 5.39062C4.2611 17.1242 4.2611 28.8578 4.2611 40.6094C4.2611 40.7531 4.24304 40.9148 4.27916 41.0586C4.33332 41.4539 4.56804 41.7234 4.98332 41.7594C5.25416 41.7953 5.50693 41.7594 5.81388 41.7594C5.81388 41.5258 5.81388 41.3281 5.81388 41.1305C5.81388 31.9305 5.81388 22.7484 5.81388 13.5484C5.81388 11.8953 6.78888 10.7992 8.37777 10.5297C12.1333 9.91875 15.8708 9.28984 19.6264 8.64297C23.7792 7.94219 27.9139 7.24141 32.0667 6.52266C32.9694 6.37891 33.8542 6.21719 34.775 6.05547C34.775 5.71406 34.775 5.44453 34.775 5.15703C34.775 4.47422 34.4861 4.20469 33.818 4.20469C32.9694 4.20469 32.1028 4.20469 31.2542 4.20469C30.7486 4.20469 30.4597 3.95313 30.4597 3.53984C30.4597 3.10859 30.7486 2.85703 31.2722 2.85703C31.4167 2.875 31.6153 2.875 31.8319 2.875ZM11.1042 11.482C11.8805 12.5781 12.6389 13.6203 13.3972 14.6625C13.8847 15.3273 14.0653 15.3813 14.8417 15.0758C20.0417 12.9555 25.2236 10.8172 30.4236 8.69688C30.9833 8.46328 31.543 8.22969 32.1208 7.99609C32.1208 7.97813 32.1028 7.96016 32.1028 7.94219C25.0972 9.11016 18.1097 10.2961 11.1042 11.482Z" fill="#1DAD8C"/>
<path d="M22.5874 31.1039C20.3124 31.1039 18.0555 31.1039 15.7805 31.1039C14.9499 31.1039 14.6791 30.6726 15.0763 29.9539C17.3513 25.839 19.6263 21.7242 21.9013 17.6093C22.0638 17.3218 22.2444 17.0882 22.6055 17.1062C22.9305 17.1062 23.1111 17.3398 23.2736 17.6093C25.5486 21.7421 27.8416 25.857 30.1166 29.9898C30.4777 30.6546 30.2069 31.1039 29.4486 31.1039C27.1374 31.1039 24.8624 31.1039 22.5874 31.1039ZM16.6291 29.7921C20.6194 29.7921 24.5555 29.7921 28.5277 29.7921C26.5416 26.1984 24.5736 22.6585 22.5694 19.0289C20.5833 22.6585 18.6152 26.1984 16.6291 29.7921Z" fill="#1DAD8C"/>
<path d="M23.1833 25.9828C22.7681 25.9828 22.3708 25.9828 21.9556 25.9828C21.9556 24.707 21.9556 23.4672 21.9556 22.1914C22.3708 22.1914 22.7681 22.1914 23.1833 22.1914C23.1833 23.4312 23.1833 24.6891 23.1833 25.9828Z" fill="#1DAD8C"/>
<path d="M23.2014 27.2946C23.2014 27.7078 23.2014 28.1031 23.2014 28.5164C22.7861 28.5164 22.3889 28.5164 21.9736 28.5164C21.9736 28.1211 21.9736 27.7258 21.9736 27.2946C22.3528 27.2946 22.7681 27.2946 23.2014 27.2946Z" fill="#1DAD8C"/>
<path d="M22.6777 35.057C20.3124 35.057 17.9652 35.057 15.5999 35.057C15.3291 35.057 15.0222 34.9851 14.8055 34.8593C14.4986 34.6797 14.4083 34.3562 14.5166 34.0328C14.6249 33.7093 14.8777 33.5117 15.2569 33.4578C15.4013 33.4398 15.5638 33.4398 15.7083 33.4398C20.3666 33.4398 25.0249 33.4398 29.6833 33.4398C29.8097 33.4398 29.918 33.4398 30.0444 33.4398C30.5499 33.4758 30.9111 33.8172 30.9111 34.2484C30.9111 34.6797 30.5499 35.039 30.0263 35.039C28.7444 35.057 27.4624 35.039 26.1986 35.057C25.0249 35.057 23.8513 35.057 22.6777 35.057Z" fill="#1DAD8C"/>
<path d="M22.6778 38.6687C20.4028 38.6687 18.1458 38.6687 15.8708 38.6687C15.7445 38.6687 15.6361 38.6687 15.5097 38.6687C14.8597 38.6507 14.4625 38.3273 14.4806 37.8421C14.4986 37.375 14.8958 37.0515 15.5097 37.0515C20.2945 37.0515 25.0611 37.0515 29.8459 37.0515C30.4959 37.0515 30.9111 37.375 30.8931 37.8601C30.8931 38.3453 30.4958 38.6687 29.8278 38.6687C27.4625 38.6867 25.0611 38.6687 22.6778 38.6687Z" fill="#1DAD8C"/>
</g>
<defs>
<clipPath id="clip0_584_418">
<rect width="39" height="46" fill="white"/>
</clipPath>
</defs>
</svg>
