<svg width="41" height="41" fill="none" xmlns="http://www.w3.org/2000/svg"><g clip-path="url(#a)" fill="#1DAD8C"><path d="M8.786 39.519h2.928V28.894c0-.86.202-1.06 1.08-1.06h5.308c.677 0 .934.255.934.95V39.52h2.928V24.505c0-.823.22-1.043 1.025-1.043h5.253c.824 0 1.044.22 1.044 1.061v15.014h2.928V14.319c0-.914.183-1.097 1.099-1.097h5.07c.97 0 1.153.183 1.153 1.133V39.556c.256 0 .494-.018.732 0 .44.019.732.33.732.732 0 .402-.293.695-.732.731-.128.019-.275 0-.403 0H.75c-.439-.036-.732-.329-.732-.731 0-.402.293-.713.714-.732.22-.018.458 0 .732 0V23.042c0-.841.22-1.042 1.062-1.042h5.308c.714 0 .952.237.952.969v16.55zm24.93-24.853v24.816h4.319V14.666h-4.32zM7.284 39.501V23.463H2.947V39.5h4.338zm16.18-14.575v14.593h4.338V24.926h-4.338zm-10.25 4.389V39.5h4.338V29.315h-4.338z"/><path d="M38.072 2.048c0 1.591-1.355 2.634-2.746 2.268-.293-.073-.458-.055-.659.183a1452.908 1452.908 0 0 1-6.9 8.046c-.165.201-.22.348-.11.604.384.95.036 1.993-.806 2.56-.841.567-1.958.512-2.69-.22-.275-.256-.476-.256-.787-.164-1.776.512-3.533 1.024-5.308 1.518-.311.091-.476.2-.55.53a2.189 2.189 0 0 1-2.269 1.737c-1.135-.091-1.995-.933-2.068-2.066-.019-.256-.11-.366-.33-.457-1.922-.823-3.825-1.646-5.747-2.47-.238-.109-.421-.127-.64.074a2.146 2.146 0 0 1-2.655.018c-.805-.603-1.08-1.646-.714-2.578.385-.915 1.355-1.482 2.307-1.354a2.195 2.195 0 0 1 1.885 1.939c.037.274.128.42.384.53a314.88 314.88 0 0 1 5.693 2.469c.256.11.42.091.64-.091.897-.714 2.087-.622 2.892.2.183.202.33.22.586.147 1.849-.53 3.679-1.06 5.528-1.573.22-.073.366-.146.439-.42.293-1.262 1.318-1.902 2.6-1.683a.657.657 0 0 0 .457-.146 1054.75 1054.75 0 0 0 7.156-8.266c.11-.128.092-.439.037-.658-.183-.896.073-1.646.75-2.213.696-.567 1.501-.658 2.325-.274.86.384 1.245 1.06 1.3 1.81zm-2.215.896a.73.73 0 0 0 .732-.713.73.73 0 0 0-.714-.731.73.73 0 0 0-.732.713c0 .402.33.731.714.731zM5.125 11.74a.734.734 0 0 0-.732.732c0 .402.33.731.732.731.403 0 .732-.329.732-.731a.734.734 0 0 0-.732-.732zm21.232 2.195a.73.73 0 0 0-.714-.732.73.73 0 0 0-.018 1.463.787.787 0 0 0 .732-.731zm-10.964 2.194c-.402-.018-.732.311-.75.714-.018.402.311.731.714.75.402.018.732-.311.75-.714 0-.402-.31-.75-.714-.75z"/></g><defs><clipPath id="a"><path fill="#fff" d="M0 0h41v41H0z"/></clipPath></defs></svg>