<svg width="50" height="41" fill="none" xmlns="http://www.w3.org/2000/svg"><g clip-path="url(#a)" fill="#1DAD8C"><path d="M43.752 10.524h.585c1.149 0 2.277-.02 3.426 0 .907.02 1.31.549 1.129 1.423l-1.21 5.546c-.1.467-.363.792-.846.874-.786.122-1.33-.468-1.169-1.32.201-1.017.443-2.012.665-3.028.1-.447.181-.914.282-1.402H7.094c-.222 1.016-.464 2.052-.685 3.088-1.411 6.4-2.822 12.8-4.212 19.2-.484 2.194.947 3.962 3.164 3.962h32.748c1.371 0 2.399-.549 3.023-1.788.04-.081.061-.183.081-.244-.907-.102-1.794-.142-2.64-.325-4.293-.914-7.396-4.937-7.295-9.407.1-4.47 3.365-8.31 7.698-9.082a9.38 9.38 0 0 1 10.722 6.786c1.27 4.694-1.19 9.59-5.744 11.317-.302.122-.423.305-.504.61-.605 2.64-2.6 4.225-5.3 4.225H5.502C2.7 40.96.564 39.232.06 36.571c-.1-.508-.06-1.036-.06-1.565V1.483C0 .325.322 0 1.49 0h10.621c.564 0 .988.163 1.39.59 1.048 1.096 2.157 2.173 3.225 3.27.262.285.544.386.927.386 8.162-.02 16.324 0 24.486 0 1.39 0 1.612.224 1.612 1.605v4.674zM2.116 25.092c.02 0 .04.02.06.02l.121-.427c.948-4.287 1.895-8.573 2.822-12.88.262-1.18.443-1.342 1.632-1.342H41.656c0-1.219-.02-2.397.02-3.555.02-.508-.12-.65-.644-.65-8.001.02-16.022 0-24.023.02-.544 0-.947-.163-1.33-.549-1.088-1.097-2.197-2.174-3.265-3.29-.221-.245-.463-.326-.786-.326-2.982.02-5.985 0-8.968 0h-.544v22.979zm31.237 2.255c0 4.043 3.265 7.334 7.276 7.355 4.01.02 7.315-3.312 7.315-7.375 0-4.023-3.285-7.335-7.275-7.335-4.05 0-7.316 3.291-7.316 7.355z"/><path d="M41.677 28.403c0 .915.02 1.748 0 2.58-.02.59-.303.996-.766 1.118-.685.163-1.29-.284-1.29-1.036-.02-.853 0-1.727 0-2.662h-1.975c-.242 0-.504.02-.746-.02-.604-.06-1.007-.528-.987-1.097.02-.549.463-.996 1.068-.996.846-.02 1.713 0 2.64 0v-1.483c0-.406-.02-.813 0-1.219.02-.589.463-1.036 1.028-1.036.544 0 .987.386 1.028.975.04.549.02 1.118.02 1.666v1.077h2.58c.745.02 1.188.508 1.108 1.199-.06.528-.484.873-1.109.894-.645.02-1.31 0-1.955 0-.221.04-.402.04-.644.04z"/></g><defs><clipPath id="a"><path fill="#fff" d="M0 0h50v41H0z"/></clipPath></defs></svg>