<svg width="35" height="48" viewBox="0 0 35 48" fill="none" xmlns="http://www.w3.org/2000/svg">
<g clip-path="url(#clip0_583_368)">
<path d="M0 23.9813C0 17.3438 0 10.7063 0 4.06875C0 1.93125 1.28389 0.4125 3.34928 0.0375C3.53535 0 3.74003 0 3.94471 0C9.73153 0 15.5183 0 21.2865 0C21.7145 0 22.0494 0.13125 22.3658 0.45C26.4221 4.55625 30.4971 8.64375 34.572 12.75C34.8698 13.05 35 13.3687 35 13.7812C35 23.85 35 33.9375 35 44.0062C35 46.3312 33.3068 48 30.9809 48C21.9936 48 12.9878 48 4.00053 48C1.67464 48 0 46.3125 0 43.95C0 37.2937 0 30.6375 0 23.9813ZM20.5795 1.89375C20.3376 1.89375 20.1701 1.89375 20.0027 1.89375C14.7182 1.89375 9.43381 1.89375 4.14939 1.89375C2.69803 1.89375 1.87932 2.71875 1.87932 4.18125C1.87932 17.4 1.87932 30.6188 1.87932 43.8375C1.87932 45.3 2.69803 46.125 4.168 46.125C13.0436 46.125 21.9378 46.125 30.8134 46.125C32.3392 46.125 33.1393 45.3188 33.1393 43.8C33.1393 34.2188 33.1393 24.6375 33.1393 15.075C33.1393 14.9062 33.1393 14.7375 33.1393 14.55C32.8974 14.55 32.7299 14.55 32.5625 14.55C29.9203 14.55 27.2966 14.55 24.6544 14.55C24.2637 14.55 23.8543 14.5125 23.4636 14.4C21.6959 13.9125 20.5981 12.4125 20.5795 10.5C20.5609 7.8375 20.5795 5.19375 20.5795 2.53125C20.5795 2.325 20.5795 2.1375 20.5795 1.89375ZM31.5763 12.6375C28.5433 9.58125 25.5104 6.525 22.496 3.4875C22.496 3.4875 22.4774 3.5625 22.4774 3.6375C22.4774 5.925 22.4588 8.23125 22.4774 10.5187C22.496 11.8312 23.3333 12.6375 24.673 12.6375C26.5152 12.6375 28.3573 12.6375 30.1994 12.6375C30.7018 12.6375 31.1669 12.6375 31.5763 12.6375Z" fill="#1DAD8C"/>
<path d="M15.4111 34.4813C13.0666 34.4813 10.7407 34.4813 8.3962 34.4813C8.24734 34.4813 8.07988 34.4813 7.93102 34.4625C7.3542 34.4063 6.98206 34.0125 7.00067 33.4875C7.00067 32.9625 7.37281 32.6063 7.96824 32.55C8.11709 32.5313 8.28456 32.55 8.43342 32.55C13.1596 32.55 17.8858 32.55 22.612 32.55C23.4866 32.55 23.9331 32.8688 23.9518 33.5063C23.9518 34.1438 23.5052 34.4813 22.6493 34.4813C20.2117 34.4813 17.8114 34.4813 15.4111 34.4813Z" fill="#1DAD8C"/>
<path d="M13.0358 36.825C14.6732 36.825 16.3292 36.825 17.9667 36.825C18.5435 36.825 18.9156 37.1062 19.0087 37.5562C19.1203 38.1937 18.7296 38.6812 18.0597 38.7187C17.5573 38.7375 17.0735 38.7187 16.5711 38.7187C13.7987 38.7187 11.0262 38.7187 8.25374 38.7187C8.06767 38.7187 7.8816 38.7187 7.69553 38.6625C7.23035 38.5312 6.95124 38.1 7.00707 37.6312C7.06289 37.1812 7.39782 36.8437 7.8816 36.825C8.68171 36.8062 9.50042 36.8062 10.3005 36.8062C11.2123 36.825 12.124 36.825 13.0358 36.825Z" fill="#1DAD8C"/>
<path d="M7.78 26V18.95H10.34C11.1467 18.95 11.8267 19.09 12.38 19.37C12.94 19.6433 13.3633 20.0433 13.65 20.57C13.9367 21.09 14.08 21.7233 14.08 22.47C14.08 23.21 13.9367 23.8433 13.65 24.37C13.3633 24.8967 12.94 25.3 12.38 25.58C11.8267 25.86 11.1467 26 10.34 26H7.78ZM9.07 24.93H10.26C11.1133 24.93 11.7467 24.7267 12.16 24.32C12.5733 23.9133 12.78 23.2967 12.78 22.47C12.78 21.6367 12.5733 21.02 12.16 20.62C11.7467 20.2133 11.1133 20.01 10.26 20.01H9.07V24.93ZM20.4372 27.92C20.2239 27.8 20.0072 27.64 19.7872 27.44C19.5739 27.2467 19.3739 27.0267 19.1872 26.78C19.0005 26.5333 18.8405 26.2833 18.7072 26.03L19.7372 25.59C19.9039 25.9367 20.1305 26.25 20.4172 26.53C20.7039 26.81 21.0005 27.0467 21.3072 27.24L20.4372 27.92ZM15.1672 22.47C15.1672 21.73 15.3005 21.09 15.5672 20.55C15.8405 20.01 16.2305 19.5933 16.7372 19.3C17.2439 19 17.8472 18.85 18.5472 18.85C19.2405 18.85 19.8405 19 20.3472 19.3C20.8539 19.5933 21.2439 20.01 21.5172 20.55C21.7972 21.09 21.9372 21.7267 21.9372 22.46C21.9372 23.2 21.7972 23.8433 21.5172 24.39C21.2439 24.93 20.8539 25.35 20.3472 25.65C19.8405 25.95 19.2405 26.1 18.5472 26.1C17.8472 26.1 17.2439 25.95 16.7372 25.65C16.2372 25.35 15.8505 24.93 15.5772 24.39C15.3039 23.8433 15.1672 23.2033 15.1672 22.47ZM16.5172 22.47C16.5172 23.2633 16.6872 23.8833 17.0272 24.33C17.3672 24.7767 17.8739 25 18.5472 25C19.2005 25 19.7039 24.7767 20.0572 24.33C20.4105 23.8833 20.5872 23.2633 20.5872 22.47C20.5872 21.67 20.4105 21.05 20.0572 20.61C19.7105 20.17 19.2072 19.95 18.5472 19.95C17.8739 19.95 17.3672 20.17 17.0272 20.61C16.6872 21.05 16.5172 21.67 16.5172 22.47ZM23.2683 26V18.95H27.9183V19.96H24.5583V21.96H27.6883V22.97H24.5583V26H23.2683Z" fill="#1DAD8C"/>
</g>
<defs>
<clipPath id="clip0_583_368">
<rect width="35" height="48" fill="white"/>
</clipPath>
</defs>
</svg>
