<svg width="51" height="39" fill="none" xmlns="http://www.w3.org/2000/svg"><g clip-path="url(#a)" fill="#1DAD8C"><path d="M25.56 0H45.58c2.59 0 4.682 1.645 5.28 4.164.1.447.159.934.159 1.402 0 9.282.02 18.586 0 27.868 0 3.19-2.311 5.566-5.439 5.566H5.44C2.33 39 0 36.644 0 33.495V5.505C0 2.356 2.33 0 5.439 0h20.12zm-.08 36.847h19.922c2.132 0 3.466-1.361 3.466-3.494V5.687c0-2.132-1.334-3.493-3.426-3.493H5.498c-2.052 0-3.406 1.381-3.406 3.473v27.727c0 .365.04.751.14 1.097.398 1.503 1.633 2.376 3.306 2.376 6.674-.02 13.308-.02 19.942-.02z"/><path d="M15.938 21.714c1.633 0 3.287-.101 4.92.02 2.53.203 4.542 2.499 4.622 5.078.02.772.02 1.565 0 2.336 0 .691-.458 1.158-1.056 1.179-.597 0-1.036-.468-1.056-1.158-.02-.65 0-1.32 0-1.97-.04-1.991-1.354-3.332-3.307-3.352a561.2 561.2 0 0 0-8.267 0c-1.972 0-3.287 1.381-3.307 3.392v1.93c-.02.69-.458 1.158-1.056 1.158-.598 0-1.056-.488-1.056-1.179 0-.914-.06-1.848.06-2.742.378-2.843 2.53-4.733 5.379-4.773 1.374-.02 2.749 0 4.123 0v.081zM10.638 14.056c.02-2.986 2.43-5.444 5.34-5.403 2.948.04 5.279 2.478 5.259 5.484-.02 2.986-2.41 5.404-5.36 5.363-2.908-.02-5.259-2.478-5.239-5.444zm8.487.02a3.207 3.207 0 0 0-3.227-3.23c-1.753.021-3.148 1.463-3.148 3.25 0 1.768 1.434 3.23 3.168 3.25 1.753 0 3.207-1.482 3.207-3.27zM37.194 28.153h6.017c.239 0 .478.02.697.081.458.122.757.57.737 1.036-.02.488-.259.833-.717.996-.18.06-.399.08-.578.08H31.098c-.538 0-.996-.121-1.235-.67-.319-.751.2-1.503 1.076-1.503 1.135-.02 2.25 0 3.386 0 .937-.02 1.893-.02 2.87-.02zM37.214 13c-2.072 0-4.144.02-6.216-.02-.338 0-.757-.183-.996-.427-.538-.589-.14-1.584.658-1.686.338-.04.697-.02 1.036-.02H43.569c.598.04 1.036.487 1.036 1.076 0 .59-.438 1.057-1.056 1.077-.837.02-1.653 0-2.49 0h-3.845zM37.214 19.5h6.276c.876 0 1.414.813 1.035 1.564-.219.447-.597.61-1.075.61H30.998c-.717 0-1.155-.326-1.235-.915-.08-.71.379-1.239 1.156-1.239 2.112-.02 4.203-.02 6.295-.02z"/></g><defs><clipPath id="a"><path fill="#fff" d="M0 0h51v39H0z"/></clipPath></defs></svg>