<svg width="49" height="49" viewBox="0 0 49 49" fill="none" xmlns="http://www.w3.org/2000/svg">
<g clip-path="url(#clip0_583_125)">
<path d="M8.30957 31.322C10.2974 30.1356 12.2455 29.0085 14.1339 27.8023C15.2471 27.1102 16.4597 26.7345 17.7319 26.6751C21.7075 26.4379 25.5838 26.9718 29.2613 28.5537C30.3148 29.0085 31.2889 29.6017 32.0244 30.5113C32.9388 31.6384 33.058 32.8644 32.3225 34.2288C32.5412 34.1299 32.6804 34.0706 32.7996 34.0113C35.9802 32.291 39.1607 30.5706 42.3213 28.8305C44.1501 27.8418 46.1976 27.9605 47.6686 29.1667C49.3781 30.5706 49.4378 33.0819 47.6487 34.387C45.8 35.7514 43.852 37.017 41.8641 38.2034C38.2264 40.3785 34.529 42.4746 30.8516 44.5904C29.2215 45.5198 27.4722 45.6186 25.6633 45.1045C22.3436 44.1751 19.024 43.2853 15.7043 42.3559C15.3067 42.2373 15.0682 42.3757 14.8296 42.6328C15.1676 43.2062 15.5055 43.7599 15.8236 44.3531C16.1416 44.9266 16.0422 45.3023 15.4658 45.6384C13.6171 46.7062 11.7485 47.774 9.87995 48.8418C9.30348 49.1582 8.92579 49.0593 8.60774 48.4859C5.8049 43.6215 2.98218 38.7571 0.179343 33.8927C-0.13871 33.339 -0.0194402 32.9435 0.537152 32.6073C2.38583 31.5396 4.25439 30.4718 6.12295 29.404C6.69942 29.0678 7.05723 29.1864 7.39516 29.7599C7.69334 30.274 7.99151 30.7881 8.30957 31.322ZM14.0544 41.2288C14.611 40.8729 15.0682 40.517 15.744 40.7147C19.2426 41.7034 22.7611 42.6723 26.2795 43.6412C27.6511 44.017 28.9631 43.9181 30.1956 43.1864C34.0718 40.9322 37.9879 38.7175 41.8442 36.4237C43.4941 35.4548 45.0844 34.387 46.6349 33.2599C47.7879 32.4096 47.6288 30.9463 46.3765 30.1949C45.3031 29.5424 44.2098 29.661 43.1761 30.2345C39.598 32.1723 36.0199 34.1299 32.4418 36.0678C32.0443 36.2853 31.587 36.4435 31.1497 36.5424C29.639 36.8983 28.1083 36.7797 26.6175 36.4435C24.8085 36.048 22.9996 35.5339 21.2106 35.0593C20.7136 34.9209 20.495 34.4463 20.654 34.0113C20.7931 33.6356 21.2106 33.4379 21.6678 33.5763C21.966 33.6554 22.2641 33.7542 22.5623 33.8531C24.5899 34.4859 26.6374 35 28.7445 35.178C28.9432 35.1977 29.2215 35.1977 29.3607 35.0791C29.8974 34.6045 30.454 34.1299 30.8913 33.5565C31.4479 32.8051 31.3883 32.0537 30.6726 31.4407C30.0962 30.9266 29.4402 30.4322 28.7246 30.1158C25.2459 28.5735 21.5684 28.0791 17.7716 28.3164C16.9169 28.3757 16.082 28.5537 15.3067 29.0085C13.3785 30.1751 11.4305 31.3418 9.50226 32.5085C9.36312 32.5876 9.24384 32.6864 9.1047 32.7655C10.7745 35.5734 12.4045 38.3616 14.0544 41.2288ZM14.1538 44.5509C11.5298 40.0424 8.94567 35.5932 6.34161 31.1045C4.83086 31.9746 3.37975 32.8051 1.88888 33.6751C4.51281 38.1836 7.09699 42.6525 9.70105 47.1215C11.1919 46.2514 12.643 45.4209 14.1538 44.5509Z" fill="#1DAD8C"/>
<path d="M41.0691 6.94068C40.93 11.9633 39.7373 16.6299 36.7953 20.7232C35.2448 22.8785 33.2967 24.5791 30.8119 25.6073C30.4541 25.7655 30.1361 25.7655 29.7783 25.5876C27.1941 24.3814 24.8286 22.8785 23.0196 20.6045C21.3896 18.548 20.515 16.1949 20.018 13.6441C19.4614 10.7966 19.3421 7.92938 19.3223 5.04237C19.3223 4.62712 19.5012 4.35028 19.8789 4.19209C23.1787 2.80791 26.4785 1.40395 29.7783 0.0395456C30.0168 -0.0593244 30.3547 -0.0593244 30.5734 0.0395456C33.8533 1.40395 37.1133 2.78813 40.3734 4.15254C40.7511 4.31073 40.9499 4.58757 40.9697 4.98305C41.0294 5.67514 41.0492 6.32768 41.0691 6.94068ZM20.9125 7.33616C20.8927 7.33616 20.8927 7.33616 20.8728 7.35593C21.0914 9.23446 21.2505 11.113 21.5288 12.9915C21.8071 14.8305 22.3636 16.6102 23.3178 18.2316C24.9081 20.9605 27.3531 22.7006 30.1559 24.0056C30.2951 24.065 30.5336 24.0056 30.6927 23.9266C32.1438 23.2345 33.416 22.2853 34.4497 21.0791C38.1868 16.6893 39.5385 11.5282 39.4192 5.87288C39.4192 5.57627 39.3 5.43785 39.0415 5.33898C36.1791 4.15254 33.3365 2.92655 30.474 1.74011C30.2951 1.66101 30.0565 1.68079 29.8776 1.74011C26.9754 2.94633 24.0931 4.15254 21.2107 5.37853C21.0716 5.43785 20.9324 5.65536 20.9324 5.79378C20.8927 6.30791 20.9125 6.82203 20.9125 7.33616Z" fill="#1DAD8C"/>
<path d="M29.7171 14.4153C29.1406 14.435 28.6437 14.1977 28.2461 13.7825C27.5901 13.1102 26.954 12.4181 26.3179 11.7062C25.98 11.3305 25.98 10.8757 26.3179 10.5593C26.636 10.2429 27.113 10.2429 27.4708 10.6186C28.0871 11.2514 28.6635 11.904 29.2599 12.5367C29.6575 12.952 29.8364 12.952 30.2538 12.5367C31.4664 11.3305 32.6591 10.1243 33.8518 8.91808C33.9512 8.81921 34.0506 8.70056 34.1698 8.62147C34.5276 8.36441 34.9053 8.38418 35.2035 8.70056C35.5216 9.01695 35.5216 9.39265 35.2631 9.72881C35.1041 9.94633 34.9053 10.1045 34.7264 10.3023C33.5735 11.4492 32.4205 12.6158 31.2676 13.7627C30.8303 14.178 30.3532 14.4153 29.7171 14.4153Z" fill="#1DAD8C"/>
</g>
<defs>
<clipPath id="clip0_583_125">
<rect width="49" height="49" fill="white"/>
</clipPath>
</defs>
</svg>
