<svg width="60" height="41" fill="none" xmlns="http://www.w3.org/2000/svg"><g clip-path="url(#a)" fill="#1DAD8C"><path d="M56.74 7.895h2.198c.759.025 1.087.325 1.087 1.074v10.494c0 .725-.303 1.024-1.01 1.074-2.25.15-3.842 1.774-3.868 3.923-.025 2.124 1.542 3.773 3.817 3.973.733.075 1.061.4 1.061 1.124V39.85c0 .85-.354 1.174-1.188 1.174H1.29c-.91 0-1.238-.325-1.238-1.2V29.583c0-.825.303-1.124 1.137-1.174 2.148-.15 3.74-1.8 3.766-3.873.025-2.124-1.542-3.823-3.716-3.998-.859-.075-1.112-.35-1.112-1.224V9.144c0-.874.203-1.099 1.062-1.224 8.72-1.3 17.439-2.598 26.133-3.873L50.598.6l3.564-.525c1.162-.15 1.415.05 1.567 1.174.303 2.074.606 4.148.91 6.246 0 .1.05.2.1.4zM43.32 39.276c0-.825-.026-1.599 0-2.374.025-.524.328-.874.884-.874s.86.3.91.825c.025.274.025.55.025.799v1.574H58.18v-9.094c-.126-.05-.252-.1-.379-.125-2.73-.7-4.398-2.799-4.423-5.572 0-2.598 1.744-4.847 4.373-5.522.43-.1.53-.274.53-.674-.025-2.674 0-5.372 0-8.045 0-.175-.025-.35-.05-.525H45.215c-.026.1-.026.125-.026.175v1.874c0 .774-.303 1.174-.91 1.174-.606 0-.91-.375-.91-1.15V9.695H1.897v9.144c.1.025.176.05.252.075 2.78.7 4.55 2.849 4.6 5.547.025 2.623-1.719 4.822-4.473 5.572-.38.1-.43.3-.43.624v8.12c0 .15.025.325.05.525 13.825-.025 27.574-.025 41.424-.025zM54.894 7.87c-.304-1.999-.607-3.972-.91-5.996-4.019.6-7.987 1.174-11.955 1.749.101.75.203 1.399.304 2.048.1.775-.152 1.225-.733 1.275-.582.05-.935-.3-1.062-1.075-.1-.65-.202-1.299-.303-2.023C31.365 5.172 22.519 6.47 13.698 7.77v.075c13.724.025 27.448.025 41.197.025z"/><path d="M22.468 22.636H11.98c-.228 0-.48 0-.683-.05-.455-.125-.733-.425-.707-.9.025-.449.278-.724.733-.824.202-.05.43-.05.631-.05h21.028c.177 0 .38 0 .556.025.506.075.81.4.784.9 0 .5-.329.8-.809.874-.177.025-.379.025-.556.025H22.468zM22.494 31.905h10.539c.303 0 .682.025.884.2.203.15.405.525.354.775-.05.275-.303.575-.556.724-.202.125-.53.1-.809.1H11.652c-.682-.025-1.061-.35-1.086-.9 0-.549.404-.924 1.112-.924 3.614.026 7.203.026 10.817.026zM22.392 28.158H11.601c-.607-.025-1.011-.35-1.011-.875 0-.524.379-.874.985-.9h21.71c.658.026 1.062.376 1.037.9 0 .525-.405.85-1.011.875H22.392zM16.984 15.266h5.232c.758 0 1.137.3 1.137.874 0 .575-.404.875-1.137.875h-10.54c-.707 0-1.086-.3-1.111-.825-.026-.55.404-.9 1.112-.924h5.307zM43.32 29.632v-2.674c0-.699.353-1.124.91-1.124.555 0 .934.4.934 1.1v5.296c0 .7-.354 1.125-.91 1.125-.58 0-.935-.425-.935-1.175v-2.548zM45.164 19.338v2.674c0 .724-.328 1.124-.91 1.124-.606 0-.935-.4-.935-1.15v-5.171c0-.75.329-1.175.91-1.2.607 0 .935.4.935 1.2v2.523z"/></g><defs><clipPath id="a"><path fill="#fff" d="M0 0h60v41H0z"/></clipPath></defs></svg>