<svg width="36" height="46" viewBox="0 0 36 46" fill="none" xmlns="http://www.w3.org/2000/svg">
<g clip-path="url(#clip0_583_262)">
<path d="M35.6606 37.7162C34.8097 36.1319 34.0156 34.4905 33.2593 32.9062C33.0324 32.4481 32.8244 32.0091 32.5975 31.551C32.4841 31.322 32.4274 31.0357 32.4274 30.7875C32.4274 28.5925 32.4274 26.4166 32.4274 24.2216C32.4274 22.6373 32.4274 21.0531 32.4274 19.4689C32.4274 18.8581 32.4085 18.3046 32.3517 17.7892C31.9169 13.6091 30.0261 10.1544 26.6984 7.53942C25.0912 6.27966 23.2572 5.42074 21.1017 4.90539C21.1017 4.73361 21.1017 4.56182 21.1017 4.39004C21.1017 3.95103 21.1017 3.51203 21.1017 3.09211C21.045 1.50788 19.8349 0.190867 18.2656 0.0190828C16.6774 -0.152701 15.2026 0.935265 14.9379 2.48132C14.8433 3.03485 14.8244 3.60746 14.8244 4.19917C14.8244 4.4473 14.8244 4.69543 14.8055 4.94356C14.711 4.96265 14.6164 5.00083 14.503 5.01991C14.2572 5.09626 13.9925 5.15352 13.7278 5.24896C7.62065 7.13859 3.4988 12.7502 3.4988 19.2017C3.4988 20.8813 3.4988 22.5801 3.4988 24.2597C3.4988 26.6838 3.4988 29.127 3.4988 31.551C3.4988 31.7992 3.42317 32.0855 3.30973 32.3145C2.78031 33.3261 2.232 34.3378 1.70258 35.3112C1.26771 36.1319 0.813928 36.9336 0.379054 37.7544C-0.0936351 38.6324 -0.112543 39.5485 0.322331 40.2739C0.757205 40.9992 1.57023 41.4191 2.53452 41.4191C4.61435 41.4191 6.69418 41.4191 8.79292 41.4191H11.8749C12.4232 43.8432 13.8223 45.3319 16.0345 45.8473C16.6207 45.9809 17.2635 46 17.8686 46C18.0009 46 18.1522 46 18.2845 46C18.4169 46 18.5681 46 18.7005 46C18.7194 46 18.7194 46 18.7383 46C21.1774 46 23.3139 44.3203 23.919 41.8963C23.9568 41.7817 23.9757 41.6481 24.0135 41.5336L24.0513 41.4191H24.524C25.4127 41.4191 26.2824 41.4191 27.1711 41.4C29.2131 41.3809 31.3307 41.3809 33.4106 41.4382C34.3559 41.4573 35.2068 41.0183 35.6795 40.2548C36.1143 39.4913 36.1144 38.5751 35.6606 37.7162ZM5.18158 24.966C5.18158 23.0191 5.18158 21.0913 5.18158 19.1444C5.20048 13.6282 8.69838 8.74191 13.8791 6.9668C15.2026 6.50871 16.5828 6.29875 17.9442 6.29875C20.232 6.29875 22.5009 6.92863 24.5051 8.1502C27.7194 10.1162 29.9127 13.3992 30.5177 17.1593C30.6312 17.8465 30.6879 18.5909 30.6879 19.3162C30.6879 21.244 30.6879 23.1527 30.6879 25.0805C30.6879 27.0274 30.6879 29.0315 30.7068 31.0166C30.7068 31.3983 30.8013 31.7992 30.9715 32.1427C31.6333 33.4979 32.295 34.8531 32.9568 36.1892C33.3538 37.01 33.7698 37.8116 34.1669 38.6324C34.3181 38.9378 34.337 39.2241 34.2236 39.4149C34.1101 39.6058 33.8454 39.7203 33.5051 39.7394C33.4484 39.7394 33.3728 39.7394 33.316 39.7394H15.4484C11.1942 39.7394 6.93998 39.7394 2.68578 39.7394C2.64796 39.7394 2.61015 39.7394 2.57233 39.7394C2.45889 39.7394 2.34544 39.7394 2.232 39.7203C2.02401 39.6822 1.85384 39.5485 1.75931 39.3768C1.66477 39.1668 1.68368 38.8996 1.81603 38.6324C2.19418 37.9261 2.57233 37.2199 2.95048 36.5328C3.59334 35.3494 4.2551 34.1278 4.89796 32.9062C5.06813 32.6008 5.16267 32.2191 5.16267 31.8755C5.18158 29.5469 5.18158 27.2183 5.18158 24.966ZM16.5639 2.92033C16.6396 2.25228 17.3013 1.71784 18.0009 1.73693C18.7005 1.75601 19.3055 2.32863 19.3622 3.01576C19.3812 3.39751 19.3812 3.77925 19.3812 4.19917C19.3812 4.35186 19.3812 4.48547 19.3812 4.63817H16.545C16.545 4.48547 16.545 4.33278 16.545 4.18008C16.5261 3.76016 16.5261 3.34024 16.5639 2.92033ZM22.2551 41.4573C21.9337 42.9842 20.5912 44.1485 19.0408 44.2631C18.0954 44.3394 17.1879 44.3012 16.3749 44.1676C15.0513 43.9577 13.9169 42.8315 13.6333 41.4382H22.2551V41.4573Z" fill="#1DAD8C"/>
<path d="M9.927 31.4938C11.0425 31.4938 12.1581 31.4938 13.2736 31.4938C14.0488 31.4938 14.843 31.4938 15.6182 31.4938H17.9627H20.5341C22.3493 31.4938 24.1833 31.4938 25.9984 31.4938C26.5089 31.4938 26.8682 31.3411 27.0383 31.0738C27.1896 30.8066 27.1518 30.4249 26.906 29.9668C25.7904 27.9054 24.6749 25.8631 23.5404 23.8016C21.9711 20.9386 20.4207 18.0755 18.8514 15.2124C18.6623 14.8689 18.4165 14.5444 17.9627 14.5444C17.49 14.5444 17.2631 14.8689 17.0741 15.2315C15.5236 18.0755 13.9732 20.9386 12.4228 23.7826C11.2883 25.844 10.1728 27.9245 9.03834 29.9859C8.79254 30.4249 8.75473 30.8066 8.90599 31.0738C9.03834 31.3602 9.39758 31.4938 9.927 31.4938ZM11.0804 29.7568L17.9438 17.1593L24.8072 29.7568H11.0804Z" fill="#1DAD8C"/>
<path d="M18.7758 20.6523H17.1309V25.3859H18.7758V20.6523Z" fill="#1DAD8C"/>
<path d="M18.7953 26.7602H17.1504V28.4207H18.7953V26.7602Z" fill="#1DAD8C"/>
</g>
<defs>
<clipPath id="clip0_583_262">
<rect width="36" height="46" fill="white"/>
</clipPath>
</defs>
</svg>
