<svg xmlns="http://www.w3.org/2000/svg" width="32" height="32"><path d="M18.293 32h-5.496c-.918 0-1.665-.696-1.665-1.553V18.889H7.925c-.918 0-1.664-.697-1.664-1.554v-4.953c0-.856.747-1.553 1.664-1.553h3.207V8.351c0-2.46.828-4.552 2.394-6.051C15.1.795 17.299-.001 19.886-.001l4.192.007c.915 0 1.661.697 1.661 1.551v4.6c0 .856-.747 1.551-1.664 1.551h-2.822c-.861 0-1.08.163-1.127.211-.078.082-.17.313-.17.952v1.959h3.905c.295 0 .58.068.824.195.529.275.857.796.857 1.358l-.001 4.953c0 .856-.747 1.551-1.665 1.551h-3.919v11.559c0 .857-.747 1.553-1.664 1.553zm-5.148-1.875h4.8V18.048c0-.57.499-1.035 1.112-1.035h4.473v-4.305h-4.472c-.612 0-1.112-.465-1.112-1.037V8.872c0-.733.079-1.567.673-2.193.717-.758 1.846-.845 2.634-.845l2.475-.001V1.882l-3.843-.007c-4.157 0-6.741 2.482-6.741 6.477v3.32c0 .57-.498 1.037-1.112 1.037H8.271v4.305h3.759c.612 0 1.113.465 1.113 1.037v12.075z"/></svg>