<svg width="37" height="48" viewBox="0 0 37 48" fill="none" xmlns="http://www.w3.org/2000/svg">
<g clip-path="url(#clip0_583_112)">
<path d="M36.9817 29.5585C36.9817 28.2386 35.9381 27.1789 34.62 27.1417H34.4735C33.7778 27.1232 33.0455 27.1232 32.3315 27.1417C32.1667 27.1417 32.0569 27.1232 32.0203 27.086C31.9654 27.0302 31.9471 26.9187 31.9471 26.7142C31.9654 23.2936 31.9654 19.7986 31.9654 16.4338V13.1619H32.3315C32.8991 13.1619 33.43 13.1619 33.9609 13.1805C33.9975 13.1991 34.0524 13.2548 34.0524 13.2734C34.0708 13.5523 34.0708 13.8311 34.0708 14.1286C34.0708 14.1844 34.0708 14.2401 34.0708 14.2959C33.9792 14.2959 33.8877 14.2959 33.7961 14.3145C33.1371 14.3517 32.6977 14.7978 32.6794 15.4299C32.6611 17.3261 32.6611 19.2223 32.6794 21.0999C32.6794 21.7506 33.1371 22.1967 33.7961 22.2153C34.4552 22.2339 35.1326 22.2339 35.7734 22.2153C36.4142 22.1967 36.8902 21.732 36.8902 21.0999C36.9085 19.2037 36.9085 17.2889 36.8902 15.4299C36.8902 14.835 36.4325 14.3703 35.81 14.3145C35.7185 14.3145 35.6086 14.2959 35.4988 14.2959V14.11C35.4988 13.8497 35.4988 13.6081 35.4988 13.3664C35.4988 12.251 34.9495 11.6933 33.8694 11.6933C33.3934 11.6933 32.9174 11.6933 32.4231 11.6933H31.8921C31.8921 11.1913 31.8921 10.6894 31.9104 10.1874C31.9287 8.84895 31.9287 7.56623 31.8738 6.2835C31.8189 5.1309 32.0752 4.31293 32.716 3.58791C33.2835 2.93726 33.7778 2.19365 34.2721 1.46863L34.4369 1.20836C34.5834 0.985281 34.62 0.613476 34.5101 0.371803C34.4186 0.14872 34.0158 -0.0185922 33.7778 0.0371786C33.5948 0.074359 33.3934 0.223081 33.192 0.501935C32.8808 0.92951 32.5512 1.37568 32.24 1.80325C31.8006 2.41673 31.3429 3.0488 30.8669 3.66228C30.5191 4.12703 30.3726 4.59179 30.4275 5.1309C30.4458 5.37258 30.4458 5.63284 30.4458 5.91169C30.4458 5.93028 30.4458 5.93028 30.4458 5.94888C29.4938 4.98218 28.2855 4.49884 26.8575 4.49884C21.8412 4.49884 16.3671 4.49884 10.1059 4.49884C8.7145 4.49884 7.52449 4.98218 6.57249 5.91169C6.57249 5.8931 6.57249 5.85592 6.57249 5.83733C6.57249 5.48412 6.57249 5.1309 6.57249 4.79628V4.7591C6.57249 4.5732 6.55418 4.33152 6.44433 4.16421C5.60218 2.95585 4.68679 1.69171 3.66155 0.297442C3.5334 0.13013 3.36863 0.0185883 3.20386 -1.92248e-06C3.02078 -0.0185922 2.85601 0.0371786 2.67293 0.14872C2.34339 0.390393 2.28847 0.762198 2.50816 1.134C2.56309 1.22695 2.61801 1.30131 2.69124 1.39427L2.74617 1.45004C2.94755 1.7103 3.13063 1.98915 3.33201 2.24942C3.86294 2.99303 4.43048 3.75523 4.96141 4.49884C5.07125 4.64756 5.14448 4.87064 5.14448 5.05654C5.14448 5.85592 5.12617 6.69248 5.10787 7.47328C5.08956 8.03098 5.08956 8.58869 5.07125 9.1464C5.07125 9.75987 5.07125 10.3734 5.07125 11.0054C5.07125 11.2285 5.07125 11.4516 5.07125 11.6933H4.55863C4.04602 11.6933 3.55171 11.6933 3.0574 11.6933C2.08709 11.6933 1.53785 12.251 1.50124 13.2548C1.50124 13.5337 1.50124 13.794 1.50124 14.0914C1.50124 14.1658 1.50124 14.2401 1.50124 14.3145C1.4097 14.3145 1.33647 14.3145 1.26324 14.3145C0.567541 14.3517 0.128154 14.8164 0.128154 15.5043C0.128154 17.3819 0.128154 19.2409 0.128154 21.0441C0.128154 21.732 0.604156 22.2153 1.28154 22.2153C1.73924 22.2339 2.19693 22.2153 2.65463 22.2153H2.98417C3.95448 22.2153 4.35725 21.8064 4.35725 20.8211C4.35725 20.2819 4.35725 19.7242 4.35725 19.1851C4.35725 18.1069 4.33894 16.9915 4.37556 15.8947C4.39386 15.2998 4.26571 14.8722 3.99109 14.5933C3.75309 14.3703 3.42355 14.2587 2.96586 14.2587C2.96586 14.2029 2.96586 14.1286 2.96586 14.0728C2.96586 13.794 2.96586 13.5151 2.98417 13.2548C2.98417 13.2362 3.02078 13.1805 3.03909 13.1619C3.60663 13.1433 4.17417 13.1433 4.7234 13.1433H5.07125V17.0472C5.07125 20.3377 5.07125 23.6282 5.08956 26.9001C5.08956 26.9744 5.07125 27.0488 5.05294 27.0674C5.03464 27.086 4.97971 27.1046 4.85156 27.1046C4.10094 27.1046 3.33201 27.1046 2.56309 27.1046C1.00693 27.1603 0 28.1828 0 29.6886C0 31.6592 0 33.6297 0 35.6003C0 37.4407 0 39.2812 0 41.1216C0 42.0883 0.421079 42.8319 1.28154 43.371C1.37308 43.4268 1.46462 43.5755 1.46462 43.6685C1.48293 44.189 1.48293 44.7281 1.48293 45.2486C1.48293 45.5647 1.48293 45.8621 1.48293 46.1782C1.50124 47.2936 2.17862 47.9814 3.25878 47.9814C3.7714 47.9814 4.26571 47.9814 4.77833 47.9814C5.85849 47.9628 6.97526 47.9628 8.05542 48C8.11034 48 8.14696 48 8.20188 48C8.84265 48 9.37358 47.8141 9.70312 47.4609C10.0693 47.0891 10.2157 46.5314 10.1608 45.8064C10.1242 45.2858 10.1242 44.7839 10.1425 44.2262C10.1425 44.0403 10.1425 43.8544 10.1425 43.6685H26.7843C26.7843 44.1146 26.7843 44.5422 26.7843 44.9884V46.1224C26.7843 47.3122 27.425 47.9814 28.5967 47.9814C30.281 47.9814 31.9837 47.9814 33.6863 47.9814C34.8031 47.9814 35.4805 47.2936 35.4988 46.1596V45.8249C35.4988 45.1743 35.5171 44.4864 35.4988 43.8358C35.4988 43.5569 35.5537 43.4454 35.7734 43.3153C36.5606 42.8691 36.9634 42.1627 36.9634 41.2517C37 37.1061 37 33.2951 36.9817 29.5585ZM34.0341 46.3269C33.9975 46.3826 33.8694 46.4756 33.8144 46.4756C31.9837 46.4942 30.2078 46.4942 28.5235 46.4756C28.4686 46.4756 28.3221 46.3455 28.3038 46.2897C28.2855 45.6019 28.2855 44.914 28.2855 44.1704C28.2855 44.0031 28.2855 43.8172 28.2855 43.6499H34.0524C34.0524 43.8172 34.0524 43.9845 34.0524 44.1332C34.0524 44.8768 34.0524 45.6019 34.0341 46.3269ZM35.5537 41.103C35.5354 41.7909 35.1875 42.1441 34.5101 42.1998C34.4552 42.1998 34.382 42.1998 34.3271 42.1998H34.2538H31.05C21.6215 42.1998 12.2113 42.1998 2.78278 42.1998C2.52647 42.1998 2.32509 42.1813 2.16032 42.1255C1.97724 42.0697 1.53785 41.9024 1.51954 41.4376C1.48293 40.694 1.50124 39.9504 1.50124 39.1696C1.50124 38.9094 1.50124 38.6491 1.50124 38.4074H35.572C35.572 38.4446 35.5903 38.4632 35.5903 38.4818V38.9651C35.5537 39.653 35.5537 40.3966 35.5537 41.103ZM6.49926 24.9295V24.2231H10.1974C9.75804 25.3943 9.79466 26.584 9.84958 27.7552C9.86789 28.22 9.88619 28.6847 9.88619 29.1495C9.84958 30.8598 9.84958 32.6073 9.86789 34.299C9.86789 35.024 9.86789 35.7676 9.86789 36.4926V36.883H1.46462C1.46462 36.7901 1.44631 36.7157 1.44631 36.6228C1.44631 34.3734 1.44631 32.1425 1.44631 29.8931C1.44631 28.9264 1.75755 28.6104 2.69124 28.6104C3.02078 28.6104 3.35032 28.6104 3.67986 28.6104C4.04602 28.6104 4.41217 28.6104 4.79664 28.6104C5.91341 28.5918 6.49926 28.0155 6.49926 26.8815C6.49926 26.2308 6.49926 25.5988 6.49926 24.9295ZM26.8758 5.96746C28.9995 5.98606 30.4824 7.49187 30.5007 9.64833C30.5007 10.1503 30.5007 10.6522 30.5007 11.1727V11.6933H6.57249C6.57249 11.4144 6.55418 11.1541 6.55418 10.8939C6.51757 10.1689 6.49926 9.48102 6.6091 8.81177C6.88372 7.12006 8.27511 5.98606 10.0876 5.96746C13.145 5.96746 16.2207 5.96746 19.2781 5.96746H22.9946H24.2029C25.0816 5.96746 25.9787 5.96746 26.8758 5.96746ZM35.5537 35.1727V36.8273C35.5537 36.8459 35.5537 36.8644 35.5537 36.883H27.1504V33.8342C27.1504 31.3803 27.1504 28.9264 27.1504 26.4725V26.361C27.1504 25.6545 27.1504 24.9295 26.7843 24.2417H30.5007V24.9109C30.5007 25.543 30.5007 26.1751 30.5007 26.8071C30.5007 28.0155 31.0683 28.5918 32.2766 28.5918C32.5329 28.5918 32.7709 28.5918 33.0272 28.5918C33.5215 28.5918 34.0524 28.5918 34.5651 28.6104C35.2058 28.629 35.5537 28.9822 35.5537 29.6328C35.5537 31.4919 35.5537 33.3695 35.5537 35.1727ZM19.2415 22.1967V13.2177H30.4641V22.7359C30.4092 22.7359 30.3543 22.7545 30.2994 22.7545C30.1346 22.7545 29.9881 22.7545 29.8234 22.7545C29.5487 22.7545 29.2741 22.7545 28.9995 22.7545C27.0955 22.866 25.1732 22.6615 23.3058 22.457C23.0129 22.4198 22.7199 22.4012 22.427 22.3641C21.6581 22.2897 20.9075 22.2525 20.1202 22.2339C19.8456 22.2339 19.5344 22.2153 19.2415 22.1967ZM25.7224 34.9682V36.6414C25.7224 36.7157 25.7224 36.8087 25.7041 36.883H11.2959C11.2959 36.7715 11.2776 36.6785 11.2776 36.5856C11.2776 33.0534 11.2776 29.5213 11.2776 25.9892C11.2776 24.725 11.8451 24.1115 13.1084 23.9628C16.6784 23.5724 20.285 23.5724 24.1663 23.9814C25.0999 24.0744 25.7224 24.8552 25.7224 25.8962C25.7224 28.9264 25.7224 31.938 25.7224 34.9682ZM17.3191 22.2339C16.8798 22.2525 16.4404 22.2711 16.001 22.3083C15.4518 22.3641 14.8842 22.4198 14.335 22.4942C13.5111 22.5871 12.6324 22.6801 11.7902 22.7545C11.1311 22.8102 10.4537 22.7916 9.79466 22.7916C9.52004 22.7916 9.24542 22.7916 8.97081 22.7916C8.9525 22.7916 8.93419 22.7916 8.93419 22.7916C8.34834 22.7916 7.76249 22.7916 7.15834 22.7916H6.53587V13.2177H17.7585V22.2153C17.5938 22.2153 17.4656 22.2153 17.3191 22.2339ZM2.92924 44.2634C2.92924 44.0589 2.92924 43.8544 2.92924 43.6499H3.38694C3.82632 43.6499 4.28402 43.6499 4.7234 43.6499C5.95002 43.6499 7.21326 43.6499 8.45819 43.6313C8.64127 43.6313 8.69619 43.6499 8.7145 43.6871C8.73281 43.7057 8.76942 43.78 8.75111 43.9473C8.7145 44.6723 8.73281 45.4345 8.75111 46.0852C8.75111 46.2525 8.73281 46.3641 8.67788 46.4198C8.62296 46.4756 8.51311 46.5128 8.34834 46.4942C7.56111 46.4942 6.73726 46.4756 5.87679 46.4756C5.07125 46.4756 4.21079 46.4756 3.33201 46.4942C3.16724 46.4942 3.0574 46.4756 3.00247 46.4198C2.94755 46.3641 2.92924 46.2525 2.92924 46.0852C2.94755 45.4903 2.94755 44.8954 2.92924 44.2634ZM34.1074 20.7653V15.8203H35.4255V20.7467H34.1074V20.7653ZM1.57447 20.7653V15.8203H2.87432V20.7653H1.57447Z" fill="#1DAD8C"/>
<path d="M14.6458 34.8567V29.4283V27.0488C14.6458 26.9373 14.6458 26.8071 14.6458 26.6956C14.6458 26.3981 14.6458 26.0821 14.6275 25.7847C14.6092 25.3571 14.3346 25.0968 13.9318 25.0782C13.7121 25.0782 13.3093 25.1526 13.1995 25.7289C13.1812 25.8218 13.1812 25.8962 13.1812 25.9706C13.1812 25.9892 13.1812 26.0263 13.1812 26.0449C13.1812 28.9822 13.1812 31.938 13.1812 34.8753C13.1812 34.9125 13.1812 34.9311 13.1812 34.9682C13.1812 35.0984 13.1629 35.2471 13.2544 35.3586L13.2727 35.3772C13.4375 35.5817 13.6572 35.842 13.8952 35.842C13.9135 35.842 13.9135 35.842 13.9318 35.842C14.1881 35.8234 14.3895 35.5631 14.5726 35.3772L14.6092 35.34C14.7007 35.2285 14.6824 35.0798 14.6824 34.9496C14.6458 34.9311 14.6458 34.8939 14.6458 34.8567Z" fill="#1DAD8C"/>
<path d="M18.4901 25.0968C18.0874 25.0968 17.831 25.3385 17.7761 25.7661C17.7578 25.8404 17.7578 25.9334 17.7578 26.0077C17.7578 26.0263 17.7578 26.0635 17.7578 26.0821V27.3834C17.7578 29.8931 17.7578 32.4028 17.7578 34.9125V34.9496C17.7578 35.1355 17.7578 35.3586 17.8677 35.5074C17.9958 35.6933 18.2521 35.8792 18.4718 35.8792C18.6915 35.8792 18.9478 35.6933 19.076 35.5259C19.1858 35.3586 19.1858 35.1355 19.1858 34.9496V34.9125C19.1858 33.7785 19.1858 32.6445 19.1858 31.5104V26.8257C19.1858 26.7328 19.1858 26.6398 19.1858 26.5283C19.1858 26.2866 19.1858 26.0263 19.1675 25.7847C19.1858 25.3571 18.9112 25.0968 18.4901 25.0968Z" fill="#1DAD8C"/>
<path d="M23.7996 34.8195C23.7996 33.6855 23.7996 32.5329 23.7996 31.3989V26.5097C23.7996 26.4539 23.7996 26.3795 23.7996 26.3238C23.7996 26.1751 23.7996 26.0077 23.7996 25.8404C23.763 25.3757 23.5067 25.0968 23.0856 25.0968C22.6645 25.0968 22.4082 25.3571 22.3533 25.8218C22.3533 25.8776 22.3533 25.952 22.3533 26.0077V34.8939C22.3533 34.9125 22.3533 34.9496 22.3533 34.9868C22.335 35.0984 22.335 35.2285 22.4265 35.34C22.4449 35.3586 22.4632 35.3958 22.4998 35.4144C22.6645 35.6189 22.8476 35.842 23.0856 35.842C23.3419 35.842 23.5616 35.5817 23.763 35.3214C23.8546 35.2099 23.8362 35.0426 23.8362 34.9125C23.7996 34.8939 23.7996 34.8567 23.7996 34.8195Z" fill="#1DAD8C"/>
<path d="M33.3563 29.8745C32.0198 29.8745 30.8847 29.8559 29.7496 29.8745C29.1821 29.8745 28.9258 30.1534 28.9258 30.7111C28.9258 31.9752 28.9258 33.2207 28.9258 34.4291C28.9258 34.9868 29.2004 35.2471 29.7496 35.2471C29.9876 35.2471 30.2256 35.2471 30.4636 35.2471C30.6467 35.2471 30.8115 35.2471 30.9946 35.2471H31.5438H32.0564C32.4775 35.2471 32.8986 35.2471 33.3196 35.2471C33.9055 35.2471 34.1618 34.9868 34.1801 34.3919C34.1801 33.7413 34.1801 33.0906 34.1801 32.44C34.1801 31.8637 34.1801 31.2874 34.1801 30.7111C34.1801 30.1719 33.8872 29.8745 33.3563 29.8745ZM32.7338 31.3617V33.7227H30.3721V31.3617H32.7338Z" fill="#1DAD8C"/>
<path d="M3.60632 29.8745C3.09371 29.8745 2.80078 30.172 2.80078 30.6925C2.80078 31.1758 2.80078 31.6778 2.80078 32.1611C2.80078 32.9047 2.80078 33.6483 2.80078 34.4105C2.80078 34.9682 3.0754 35.2285 3.62463 35.2285C4.24709 35.2285 4.85125 35.2285 5.45541 35.2285C6.05956 35.2285 6.66372 35.2285 7.24957 35.2285C7.7988 35.2285 8.05511 34.9682 8.07342 34.3919C8.07342 33.9644 8.07342 33.5554 8.07342 33.1278V32.5887C8.07342 32.4028 8.07342 32.2169 8.07342 32.031C8.07342 31.6034 8.07342 31.1758 8.07342 30.7482C8.07342 30.4694 8.0185 30.2463 7.87203 30.0976C7.72557 29.9489 7.52419 29.8745 7.26788 29.8745C6.02295 29.8559 4.79633 29.8559 3.60632 29.8745ZM4.2654 33.7413V31.3617H6.6271V33.7413H4.2654Z" fill="#1DAD8C"/>
</g>
<defs>
<clipPath id="clip0_583_112">
<rect width="37" height="48" fill="white"/>
</clipPath>
</defs>
</svg>
