<svg width="33" height="46" viewBox="0 0 33 46" fill="none" xmlns="http://www.w3.org/2000/svg">
<g clip-path="url(#clip0_583_392)">
<path d="M13.6593 1.40161V0.143799C10.2401 0.143799 6.82085 0.143799 3.40161 0.143799V1.40161H3.76984C3.78737 1.50942 3.80491 1.61724 3.80491 1.70708C3.80491 4.56411 3.80491 7.40317 3.78737 10.2602C3.78737 10.5836 3.87504 10.8352 4.17313 10.943C4.45368 11.0508 4.69917 10.961 4.92712 10.7274C5.71617 9.90083 6.52276 9.07427 7.32935 8.26568C7.38195 8.21177 7.45209 8.13989 7.5573 8.05005C8.04826 8.57114 8.53923 9.07427 9.0302 9.55943C9.38089 9.9188 9.74911 10.2782 10.0998 10.6555C10.3278 10.8891 10.5557 11.0688 10.9064 10.9251C11.2396 10.7813 11.2746 10.4758 11.2746 10.1524C11.2746 7.38521 11.2746 4.63599 11.2746 1.8688V1.40161H13.6593ZM9.9946 8.7688C9.90692 8.69693 9.81925 8.64302 9.76665 8.57114C9.20554 8.01411 8.66197 7.43911 8.1184 6.88208C7.6625 6.41489 7.39949 6.39692 6.94359 6.86411C6.32988 7.49302 5.71617 8.12193 5.03232 8.84068V1.40161H9.9946V8.7688Z" fill="#1DAD8C"/>
<path d="M0 22.982C0 16.6211 0 10.2602 0 3.89922C0 2.06641 1.017 0.628906 2.64772 0.161719C2.99841 0.0539063 3.36663 0 3.71732 0C9.1881 0 14.6589 0 20.1121 0.0179688C20.4277 0.0179688 20.8135 0.179688 21.0414 0.413281C24.9166 4.34844 28.7566 8.30156 32.6142 12.2367C32.8773 12.5063 33 12.8117 33 13.1891C33 22.8383 33 32.5055 33 42.1547C33 44.3649 31.4219 45.982 29.2651 45.982C20.7609 45.982 12.2566 45.982 3.75239 45.982C1.57811 46 0 44.3648 0 42.1188C0 35.7398 0 29.3609 0 22.982ZM31.229 13.9258C31.0186 13.9258 30.8608 13.9258 30.703 13.9258C28.2657 13.9258 25.8284 13.9258 23.3911 13.9258C20.9538 13.9258 19.4283 12.3445 19.4283 9.86485C19.4283 7.36719 19.4283 4.86953 19.4283 2.37188C19.4283 2.19219 19.4107 2.03047 19.4107 1.83281C19.1828 1.83281 19.0074 1.83281 18.8321 1.83281C13.8874 1.83281 8.96015 1.83281 4.01541 1.83281C2.52497 1.83281 1.80606 2.56953 1.80606 4.07891C1.80606 16.7109 1.80606 29.3609 1.80606 41.993C1.80606 43.4305 2.56004 44.2031 3.98034 44.2031C12.3443 44.2031 20.6908 44.2031 29.0547 44.2031C30.5276 44.2031 31.2641 43.4484 31.2641 41.9391C31.2641 32.775 31.2641 23.6109 31.2641 14.4469C31.229 14.2852 31.229 14.1414 31.229 13.9258ZM29.7561 12.1109C26.898 9.18203 24.0399 6.25313 21.1993 3.34219C21.1993 3.34219 21.1817 3.41406 21.1817 3.48594C21.1817 5.69609 21.1642 7.90625 21.1817 10.1344C21.1993 11.3203 21.9883 12.1109 23.1631 12.1289C24.5133 12.1469 25.881 12.1289 27.2311 12.1289C28.1079 12.1109 28.9671 12.1109 29.7561 12.1109Z" fill="#1DAD8C"/>
<path d="M18.1132 18.6516C16.5175 18.6516 14.9394 18.6516 13.3438 18.6516C12.8528 18.6516 12.5372 18.3461 12.5197 17.9149C12.5021 17.4657 12.8528 17.1422 13.3438 17.1243C13.4665 17.1243 13.5717 17.1243 13.6945 17.1243C16.4474 17.1243 19.1828 17.1243 21.9357 17.1243C22.2513 17.1243 22.5845 17.1243 22.9001 17.1243C23.4262 17.1422 23.7418 17.4297 23.7418 17.8969C23.7418 18.3641 23.4262 18.6516 22.9001 18.6516C21.2869 18.6516 19.6913 18.6516 18.1132 18.6516Z" fill="#1DAD8C"/>
<path d="M18.1483 25.5696C19.6913 25.5696 21.2343 25.5696 22.7949 25.5696C23.3911 25.5696 23.7242 25.8391 23.7242 26.3243C23.7242 26.8094 23.3911 27.0969 22.7949 27.0969C19.6738 27.0969 16.5526 27.0969 13.4315 27.0969C12.8528 27.0969 12.5021 26.7915 12.5197 26.3063C12.5372 25.8571 12.8704 25.5696 13.4315 25.5696C14.992 25.5696 16.5701 25.5696 18.1483 25.5696Z" fill="#1DAD8C"/>
<path d="M7.03127 29.6844C7.87293 27.9594 8.64445 26.3601 9.4335 24.7609C9.50364 24.6172 9.57378 24.4554 9.66145 24.3297C9.8894 24.0242 10.2752 23.9344 10.5908 24.114C10.9239 24.2937 11.0642 24.6531 10.9415 25.0304C10.9064 25.1383 10.8538 25.2461 10.8012 25.3539C9.87186 27.2406 8.96007 29.1453 8.03074 31.032C7.66251 31.8047 7.15401 31.8765 6.55784 31.2836C6.13701 30.8703 5.73371 30.439 5.33042 30.0078C4.96219 29.6304 4.92712 29.1812 5.24275 28.8578C5.55837 28.5164 5.99673 28.5344 6.40003 28.9297C6.61044 29.1633 6.78579 29.3969 7.03127 29.6844Z" fill="#1DAD8C"/>
<path d="M7.03143 21.257C7.80295 19.6757 8.52186 18.2023 9.24078 16.7468C9.34599 16.5132 9.45119 16.2796 9.57394 16.064C9.80189 15.6507 10.1876 15.507 10.5734 15.6867C10.9767 15.8843 11.117 16.2976 10.9066 16.7468C10.5909 17.4296 10.2578 18.0945 9.94216 18.7593C9.31092 20.0351 8.69721 21.3289 8.06597 22.6046C7.66267 23.4132 7.17171 23.4851 6.54046 22.8382C6.1547 22.4429 5.76894 22.0476 5.40072 21.6703C4.97989 21.239 4.92728 20.7898 5.26044 20.4484C5.5936 20.089 6.03196 20.1249 6.47032 20.5921C6.64567 20.7718 6.80348 20.9874 7.03143 21.257Z" fill="#1DAD8C"/>
<path d="M7.04879 38.0758C7.24167 37.6805 7.39948 37.3751 7.55729 37.0516C8.20607 35.7219 8.85485 34.3743 9.50363 33.0446C9.76665 32.4876 10.1524 32.3258 10.5908 32.5415C11.0116 32.7571 11.1168 33.1883 10.8538 33.7274C9.90692 35.668 8.97759 37.6086 8.01319 39.5313C7.68004 40.2321 7.154 40.304 6.62796 39.7649C6.1896 39.3336 5.75124 38.8844 5.33041 38.4352C4.96218 38.0579 4.94465 37.6086 5.26027 37.2852C5.57589 36.9618 5.99672 36.9797 6.38248 37.3571C6.59289 37.5727 6.80331 37.8063 7.04879 38.0758Z" fill="#1DAD8C"/>
<path d="M15.5006 21.7242C14.7817 21.7242 14.0628 21.7242 13.3614 21.7242C12.8354 21.7242 12.5197 21.4188 12.5022 20.9696C12.5022 20.5203 12.8354 20.1969 13.3439 20.1969C14.7817 20.1969 16.202 20.1969 17.6398 20.1969C18.1659 20.1969 18.4815 20.5024 18.4815 20.9696C18.4815 21.4367 18.1834 21.7242 17.6398 21.7242C16.9384 21.7242 16.2195 21.7242 15.5006 21.7242Z" fill="#1DAD8C"/>
<path d="M15.4831 30.1516C14.7642 30.1516 14.0452 30.1516 13.3439 30.1516C12.8354 30.1516 12.5022 29.8282 12.5022 29.379C12.5022 28.9297 12.8529 28.6243 13.3614 28.6243C14.7992 28.6243 16.2195 28.6243 17.6574 28.6243C18.1834 28.6243 18.499 28.9297 18.4815 29.3969C18.4815 29.8641 18.1659 30.1516 17.6398 30.1516C16.9209 30.1696 16.202 30.1516 15.4831 30.1516Z" fill="#1DAD8C"/>
<path d="M18.1483 33.9968C19.6913 33.9968 21.2343 33.9968 22.7949 33.9968C23.3911 33.9968 23.7242 34.2664 23.7242 34.7515C23.7242 35.2367 23.3911 35.5242 22.7949 35.5242C19.6738 35.5242 16.5526 35.5242 13.4315 35.5242C12.8528 35.5242 12.5021 35.2187 12.5197 34.7335C12.5372 34.2843 12.8704 33.9968 13.4315 33.9968C14.992 33.9968 16.5701 33.9968 18.1483 33.9968Z" fill="#1DAD8C"/>
<path d="M15.4831 38.5969C14.7642 38.5969 14.0452 38.5969 13.3439 38.5969C12.8354 38.5969 12.5022 38.2735 12.5022 37.8243C12.5022 37.375 12.8529 37.0696 13.3614 37.0696C14.7992 37.0696 16.2195 37.0696 17.6574 37.0696C18.1834 37.0696 18.499 37.375 18.4815 37.8422C18.4815 38.3094 18.1659 38.5969 17.6398 38.5969C16.9209 38.5969 16.202 38.5969 15.4831 38.5969Z" fill="#1DAD8C"/>
</g>
<defs>
<clipPath id="clip0_583_392">
<rect width="33" height="46" fill="white"/>
</clipPath>
</defs>
</svg>
