<svg width="46" height="46" viewBox="0 0 46 46" fill="none" xmlns="http://www.w3.org/2000/svg">
<g clip-path="url(#clip0_583_332)">
<path d="M0 23.7638C0 18.461 0 13.1581 0 7.85526C0 5.46448 1.59922 3.84666 3.98906 3.82869C5.40859 3.82869 6.82813 3.82869 8.24766 3.82869C8.40938 3.82869 8.625 3.79274 8.71484 3.68488C9.14609 3.16358 9.72109 3.0018 10.368 3.05573C10.7992 3.09168 11.0328 2.96585 11.2484 2.53443C12.1109 0.826734 13.5664 -0.0540785 15.4891 -0.000151194C17.3398 0.0537761 18.6875 0.988516 19.4961 2.66026C19.6398 2.96585 19.8016 3.09168 20.125 3.05573C20.8258 3.0018 21.4906 3.07371 21.9758 3.72083C22.0477 3.81071 22.2633 3.82869 22.425 3.82869C24.4195 3.82869 26.4141 3.81071 28.3906 3.84666C30.2594 3.86464 31.7328 5.08699 32.1281 6.92052C32.2 7.26206 32.2 7.63955 32.2 7.99907C32.2 12.0975 32.2 16.214 32.2 20.3125C32.2 20.636 32.2539 20.7978 32.6133 20.9057C33.6914 21.1933 34.4461 21.9123 35.0211 22.865C37.0336 26.1726 39.0641 29.4621 41.0945 32.7697C42.532 35.1065 43.9695 37.4254 45.3891 39.7623C46.8266 42.153 45.6406 45.155 43.0172 45.874C42.6758 45.9639 42.3164 46.0178 41.957 46.0178C34.9492 46.0178 27.9414 46.0358 20.9336 46.0178C19.4422 46.0178 18.2922 45.3527 17.5016 44.0764C17.3219 43.7888 17.1602 43.699 16.8367 43.699C12.5602 43.7169 8.26562 43.7169 3.98906 43.699C2.08438 43.699 0.610937 42.6024 0.14375 40.8768C0.0539063 40.4993 0 40.1038 0 39.7263C0 34.3875 0 29.0846 0 23.7638ZM4.61797 39.0612C4.72578 39.0792 4.81562 39.0792 4.90547 39.0792C9.12813 39.0792 13.3508 39.0792 17.5734 39.0612C17.7531 39.0612 17.9867 38.8994 18.0766 38.7376C21.1852 33.7044 24.2937 28.6712 27.3844 23.62C27.5102 23.4043 27.6 23.1167 27.6 22.865C27.618 18.2093 27.618 13.5536 27.618 8.89786C27.618 8.75405 27.618 8.61024 27.618 8.46644C27.5281 8.44846 27.4922 8.43049 27.4563 8.43049C25.7313 8.43049 24.0063 8.43049 22.2992 8.43049C22.1555 8.43049 21.9937 8.53834 21.9039 8.64619C21.5805 8.98773 21.2211 9.16749 20.7539 9.16749C17.1602 9.16749 13.5664 9.16749 9.97266 9.14952C9.64922 9.14952 9.21797 9.00571 9.02031 8.77203C8.71484 8.44846 8.40938 8.39454 8.03203 8.43049C7.79844 8.44846 7.54688 8.43049 7.31328 8.43049C6.43281 8.43049 5.55234 8.43049 4.65391 8.43049C4.61797 18.6587 4.61797 28.833 4.61797 39.0612ZM31.4273 44.4719C34.8414 44.4719 38.2555 44.4719 41.6695 44.4719C42.7297 44.4719 43.5742 44.1304 44.1133 43.1956C44.6703 42.2249 44.5625 41.2902 43.9875 40.3555C40.5555 34.765 37.1234 29.1745 33.6734 23.5841C32.5414 21.7505 30.3492 21.7505 29.2172 23.5661C25.7672 29.1566 22.3352 34.765 18.8852 40.3734C18.3281 41.2902 18.2203 42.2249 18.7594 43.1777C19.2984 44.1304 20.143 44.4719 21.1852 44.4719C24.5992 44.4719 28.0133 44.4719 31.4273 44.4719ZM8.42734 5.39258C8.30156 5.3746 8.21172 5.3746 8.13984 5.3746C6.68437 5.3746 5.22891 5.3746 3.79141 5.3746C3.62969 5.3746 3.46797 5.39258 3.30625 5.42853C2.21016 5.71614 1.54531 6.59696 1.54531 7.81931C1.54531 18.407 1.56328 28.9948 1.52734 39.5825C1.52734 40.9666 2.46172 42.171 4.09687 42.153C8.19375 42.0991 12.3086 42.1351 16.4055 42.1351C16.5672 42.1351 16.7289 42.1171 16.8547 42.1171C16.9086 41.5958 16.9805 41.1284 17.0344 40.6071C16.8547 40.6071 16.675 40.6071 16.5133 40.6071C12.5781 40.6071 8.64297 40.6071 4.70781 40.6071C3.7375 40.6071 3.09063 39.978 3.09063 39.0073C3.09063 28.833 3.09063 18.6587 3.09063 8.50239C3.09063 7.5317 3.7375 6.90254 4.68984 6.88457C5.78594 6.88457 6.88203 6.88457 7.96016 6.88457C8.12187 6.88457 8.28359 6.88457 8.44531 6.88457C8.42734 6.36327 8.42734 5.91388 8.42734 5.39258ZM20.6641 4.6376C20.5742 4.61962 20.5562 4.60165 20.5203 4.60165C20.125 4.60165 19.7117 4.60165 19.3164 4.60165C18.6336 4.60165 18.4898 4.49379 18.3102 3.84666C17.9328 2.51646 16.8008 1.59969 15.4711 1.54577C14.0516 1.45589 12.7937 2.37265 12.3984 3.73881C12.1828 4.49379 12.057 4.58367 11.2664 4.58367C10.8531 4.58367 10.4398 4.58367 10.0086 4.58367C10.0086 5.62627 10.0086 6.61493 10.0086 7.62158C13.5844 7.62158 17.1242 7.62158 20.682 7.62158C20.6641 6.59696 20.6641 5.62627 20.6641 4.6376ZM29.1273 21.373C29.5586 21.1933 29.918 20.9776 30.2953 20.8877C30.6008 20.8158 30.6547 20.672 30.6547 20.4023C30.6547 16.196 30.6547 11.9897 30.6547 7.78336C30.6547 6.30934 29.7203 5.39258 28.2289 5.39258C26.3781 5.39258 24.5094 5.39258 22.6586 5.39258C22.5328 5.39258 22.407 5.41056 22.2633 5.41056C22.2633 5.93185 22.2633 6.4172 22.2633 6.92052C23.9703 6.92052 25.6234 6.97445 27.2766 6.90255C28.4625 6.86659 29.1273 7.62158 29.1273 8.73607C29.0914 12.7806 29.1094 16.8252 29.1094 20.8697C29.1273 20.9955 29.1273 21.1573 29.1273 21.373Z" fill="#1DAD8C"/>
<path d="M20.3588 14.5604C18.7417 14.5604 17.1245 14.5604 15.5073 14.5604C14.9143 14.5604 14.5549 14.2548 14.5729 13.7874C14.5909 13.338 14.9503 13.0324 15.5073 13.0324C18.7237 13.0324 21.9401 13.0324 25.1565 13.0324C25.7135 13.0324 26.0549 13.32 26.0729 13.8054C26.0729 14.2907 25.7495 14.5604 25.1745 14.5604C23.5573 14.5604 21.9581 14.5604 20.3588 14.5604Z" fill="#1DAD8C"/>
<path d="M20.3587 21.4631C21.9399 21.4631 23.5212 21.4631 25.1204 21.4631C25.7313 21.4631 26.0727 21.7327 26.0727 22.236C26.0727 22.7214 25.7313 22.991 25.1204 22.991C21.904 22.991 18.6876 22.991 15.4712 22.991C15.004 22.991 14.6805 22.7573 14.6087 22.3798C14.5368 22.0023 14.6985 21.7327 15.0219 21.5709C15.1657 21.499 15.3633 21.481 15.543 21.481C17.1243 21.4631 18.7415 21.4631 20.3587 21.4631Z" fill="#1DAD8C"/>
<path d="M8.9663 25.5795C9.23583 25.0403 9.46942 24.5909 9.70302 24.1415C10.3319 22.9011 10.9429 21.6608 11.5718 20.4205C11.8054 19.9711 12.2186 19.8273 12.614 20.025C13.0272 20.2227 13.153 20.6362 12.9374 21.0856C12.9194 21.1215 12.9015 21.1575 12.8835 21.2114C11.9132 23.1528 10.9608 25.0942 9.97255 27.0176C9.63114 27.7007 9.09208 27.7905 8.53505 27.2513C8.08583 26.8019 7.63661 26.3705 7.20536 25.9211C6.82802 25.5436 6.81005 25.0942 7.15146 24.7706C7.49286 24.4291 7.90614 24.465 8.30146 24.8425C8.49911 25.0582 8.71474 25.2919 8.9663 25.5795Z" fill="#1DAD8C"/>
<path d="M8.94786 17.1669C9.81036 15.4232 10.619 13.8234 11.4096 12.2235C11.4815 12.0977 11.5354 11.9539 11.6252 11.8281C11.8768 11.4865 12.2721 11.3966 12.6135 11.5944C12.9549 11.7921 13.0986 12.1696 12.9369 12.5651C12.8291 12.8347 12.6854 13.0684 12.5596 13.338C11.6971 15.0637 10.8346 16.7894 9.97208 18.515C9.57676 19.306 9.05567 19.3959 8.44473 18.7667C8.01348 18.3353 7.6002 17.9218 7.16895 17.4904C6.79161 17.1129 6.77364 16.6635 7.09708 16.34C7.43848 15.9984 7.85176 16.0164 8.24708 16.4119C8.49864 16.6096 8.6963 16.8613 8.94786 17.1669Z" fill="#1DAD8C"/>
<path d="M8.96661 34.0102C9.82911 32.3025 10.6197 30.7026 11.4104 29.1208C11.4822 28.9769 11.5541 28.8152 11.644 28.6893C11.8596 28.3837 12.2549 28.2759 12.5963 28.4377C12.9377 28.5995 13.1174 28.9769 13.0096 29.3365C12.9736 29.4623 12.9018 29.5881 12.8479 29.696C11.9135 31.5834 10.9611 33.4709 10.0268 35.3404C9.61348 36.1673 9.12833 36.2392 8.46348 35.592C8.0502 35.1786 7.63692 34.7651 7.22364 34.3517C6.8463 33.9562 6.82833 33.5248 7.15176 33.2012C7.4752 32.8777 7.90645 32.8777 8.30176 33.2552C8.49942 33.4889 8.69708 33.7225 8.96661 34.0102Z" fill="#1DAD8C"/>
<path d="M18.0406 29.9117C18.8852 29.9117 19.7477 29.9117 20.5922 29.9117C21.1313 29.9117 21.4547 30.2173 21.4547 30.6667C21.4547 31.0981 21.0953 31.4396 20.5742 31.4396C18.8492 31.4396 17.1242 31.4396 15.4172 31.4396C14.9141 31.4396 14.5547 31.0981 14.5547 30.6667C14.5547 30.2352 14.9141 29.9117 15.4352 29.9117C16.3156 29.9117 17.1781 29.9117 18.0406 29.9117Z" fill="#1DAD8C"/>
<path d="M17.6273 26.0649C16.8906 26.0649 16.1539 26.0649 15.4352 26.0649C14.9141 26.0649 14.5547 25.7413 14.5547 25.3099C14.5547 24.8785 14.9141 24.5369 15.4172 24.5369C16.8906 24.5369 18.3461 24.5369 19.8195 24.5369C20.3586 24.5369 20.682 24.8245 20.682 25.2919C20.682 25.7593 20.3766 26.0469 19.8375 26.0469C19.1008 26.0649 18.3641 26.0649 17.6273 26.0649Z" fill="#1DAD8C"/>
<path d="M17.646 17.6163C16.8913 17.6163 16.1546 17.6163 15.3999 17.6163C14.8967 17.6163 14.5733 17.3107 14.5553 16.8793C14.5374 16.4478 14.8967 16.0883 15.3999 16.0883C16.8733 16.0703 18.3647 16.0703 19.8381 16.0883C20.3592 16.0883 20.6827 16.4119 20.6647 16.8793C20.6647 17.3286 20.3592 17.6163 19.8381 17.6163C19.1194 17.6163 18.3827 17.6163 17.646 17.6163Z" fill="#1DAD8C"/>
<path d="M16.8374 34.4955C16.3522 34.4955 15.885 34.4955 15.3999 34.4955C14.8967 34.4955 14.5374 34.136 14.5553 33.7046C14.5733 33.2911 14.9147 32.9676 15.3999 32.9676C16.3702 32.9676 17.3405 32.9676 18.3108 32.9676C18.8319 32.9676 19.1194 33.2552 19.1374 33.7046C19.1553 34.1719 18.8319 34.4775 18.3108 34.4955C17.8256 34.5135 17.3405 34.4955 16.8374 34.4955Z" fill="#1DAD8C"/>
<path d="M33.7088 31.0621C33.7088 32.2485 33.7268 33.417 33.7088 34.6034C33.6908 35.5381 33.1877 36.2212 32.3432 36.5987C31.5166 36.9582 30.708 36.8503 29.9893 36.2751C29.4143 35.8257 29.1268 35.1966 29.1268 34.4775C29.1088 32.1946 29.1088 29.8937 29.1268 27.6108C29.1447 26.4244 29.9893 25.4537 31.0674 25.3279C32.2893 25.1841 33.3135 25.8132 33.6189 26.9457C33.6908 27.2333 33.7088 27.5389 33.7088 27.8265C33.7268 28.923 33.7268 29.9836 33.7088 31.0621C33.7268 31.0621 33.7268 31.0621 33.7088 31.0621ZM32.1814 31.0801C32.1814 29.9836 32.1814 28.8871 32.1814 27.8085C32.1814 27.5928 32.1455 27.3591 32.0377 27.1614C31.858 26.8378 31.5166 26.7659 31.1752 26.8738C30.7799 26.9996 30.6541 27.3411 30.6541 27.7186C30.6541 29.9117 30.6541 32.1227 30.6541 34.3157C30.6541 34.891 30.9416 35.2325 31.4088 35.2325C31.8939 35.2505 32.1814 34.9089 32.1814 34.2978C32.1994 33.2372 32.1814 32.1587 32.1814 31.0801Z" fill="#1DAD8C"/>
<path d="M31.4451 38.3603C32.7209 38.3603 33.7272 39.3669 33.7272 40.6432C33.7272 41.9375 32.703 42.9621 31.4272 42.9621C30.1873 42.9621 29.1452 41.9015 29.1272 40.6612C29.1092 39.3849 30.1514 38.3603 31.4451 38.3603ZM32.1819 40.6252C32.1819 40.1759 31.8405 39.8703 31.4092 39.8882C31.0139 39.9062 30.6725 40.2478 30.6725 40.6432C30.6725 41.0567 31.0498 41.4162 31.4451 41.4162C31.8584 41.3982 32.1819 41.0567 32.1819 40.6252Z" fill="#1DAD8C"/>
</g>
<defs>
<clipPath id="clip0_583_332">
<rect width="46" height="46" fill="white"/>
</clipPath>
</defs>
</svg>
