<svg width="42" height="42" viewBox="0 0 42 42" fill="none" xmlns="http://www.w3.org/2000/svg">
<g clip-path="url(#clip0_259_23)">
<path d="M25.0982 28.7321C24.6802 28.3147 24.2622 27.9154 23.8624 27.4979C16.9381 32.3259 7.7966 30.3657 3.19859 24.1219C-1.25403 18.096 -0.563418 9.61977 4.85242 4.44691C10.3046 -0.780405 18.81 -1.14341 24.6802 3.61199C30.6594 8.45814 32.1315 17.2429 27.479 23.886C27.897 24.2853 28.315 24.6846 28.7512 25.1202C28.7875 25.0839 28.8602 25.0294 28.9511 24.9568C29.8779 24.2127 31.132 24.249 31.968 25.0839C35.003 28.0969 38.0381 31.128 41.0549 34.1591C41.9454 35.0666 41.9454 36.3916 41.0549 37.2991C39.8191 38.5878 38.5469 39.8402 37.2566 41.0744C36.3479 41.9456 35.003 41.9456 34.1125 41.0562C31.0774 38.0433 28.0787 35.0303 25.0619 31.9992C24.1713 31.0735 24.1895 29.9301 25.0982 28.7321ZM29.3509 15.319C29.3691 7.55063 23.0264 1.23429 15.2661 1.23429C7.46947 1.23429 1.18128 7.53247 1.16311 15.319C1.16311 23.1237 7.43312 29.3492 15.3206 29.3492C23.0264 29.3492 29.3327 23.0329 29.3509 15.319ZM35.7481 40.9655C36.1298 40.7477 36.5296 40.6025 36.8204 40.3484C38.0381 39.1868 39.2194 37.9888 40.4007 36.7909C41.0549 36.1193 41.0731 35.3207 40.4007 34.6673C37.4201 31.6725 34.4396 28.6958 31.4591 25.701C30.8412 25.0839 30.0052 25.0839 29.3873 25.701C28.1514 26.9171 26.9156 28.1513 25.6979 29.3855C25.0982 29.9845 25.0982 30.8194 25.6798 31.4184C28.6785 34.4132 31.6772 37.408 34.694 40.3847C34.9485 40.6388 35.3483 40.7477 35.7481 40.9655ZM28.006 25.8099C27.6607 25.4288 27.2972 25.0476 27.0065 24.739C26.2432 25.5195 25.498 26.2818 24.7347 27.0623C25.0073 27.3346 25.389 27.7157 25.7343 28.0606C26.5339 27.2983 27.2972 26.5178 28.006 25.8099Z" fill="#1DAD8C"/>
<path d="M35.7119 42C35.0758 42 34.4397 41.7459 33.9308 41.2558C31.0411 38.3881 27.9879 35.3388 24.8802 32.1988C23.9351 31.2368 23.8806 30.0208 24.7348 28.7684L23.8261 27.8609C20.5184 30.0934 16.5383 30.9464 12.6128 30.2386C8.72354 29.5307 5.28866 27.4253 2.98057 24.3034C-1.56292 18.1504 -0.835959 9.52897 4.67075 4.26535C10.2138 -1.05271 18.901 -1.41572 24.862 3.41229C27.8425 5.82629 29.7871 9.23856 30.3505 13.0501C30.9139 16.8254 30.0234 20.6552 27.8607 23.8678L28.8058 24.7753C28.8058 24.7753 28.8058 24.7753 28.8239 24.7571C29.878 23.9222 31.2774 23.9767 32.2043 24.9023C35.4211 28.0968 38.4016 31.0553 41.2913 33.9775C42.2726 34.9758 42.2726 36.4823 41.2913 37.4987C40.0191 38.8055 38.7469 40.0761 37.4929 41.2921C36.9659 41.7459 36.3479 42 35.7119 42ZM23.8806 27.1348L25.4436 28.6958L25.2982 28.8773C24.4622 30.0026 24.444 30.9827 25.2618 31.7995C28.3696 34.9395 31.4228 37.9888 34.3125 40.8565C35.1121 41.6552 36.2752 41.6552 37.0749 40.8747C38.3289 39.6586 39.6011 38.3881 40.8551 37.0994C41.6366 36.2826 41.6366 35.121 40.8551 34.3405C37.9654 31.4183 34.9849 28.4598 31.7681 25.2654C31.0411 24.5393 29.9507 24.503 29.1147 25.1565C29.0602 25.2109 28.9875 25.2472 28.9511 25.2835L28.7331 25.465L27.1156 23.9041L27.2428 23.7044C29.4237 20.5826 30.3324 16.8073 29.7871 13.0864C29.2601 9.43821 27.3882 6.13484 24.5167 3.81159C18.7556 -0.834906 10.3955 -0.490049 5.03423 4.62836C-0.272567 9.71047 -0.963177 18.0233 3.39857 23.9585C5.63397 26.9715 8.92345 29.0043 12.6855 29.6941C16.5565 30.3838 20.4639 29.5307 23.6807 27.28L23.8806 27.1348ZM35.7482 41.274L35.621 41.2014C35.4938 41.1288 35.3665 41.0743 35.2393 41.0199C34.9667 40.8928 34.6941 40.7839 34.4942 40.5661C31.1865 37.2991 27.9334 34.0683 25.4799 31.5998C24.7711 30.892 24.7893 29.9119 25.4981 29.1858C26.6794 27.9879 27.9152 26.7537 29.1874 25.5013C29.9144 24.7934 30.9139 24.7934 31.6409 25.5013C34.6396 28.4961 37.6565 31.5091 40.5825 34.4676C41.3458 35.2299 41.3458 36.1919 40.5825 36.9724L40.328 37.2446C39.2558 38.3336 38.129 39.459 37.0204 40.5298C36.8023 40.7295 36.5297 40.8747 36.2571 41.0017C36.1299 41.0562 36.0208 41.1288 35.8936 41.1832L35.7482 41.274ZM30.4232 25.5013C30.1325 25.5013 29.8417 25.6284 29.5691 25.8825C28.2969 27.1348 27.0611 28.3872 25.8797 29.567C25.389 30.0752 25.3891 30.7286 25.8616 31.2187C28.3151 33.669 31.55 36.9179 34.8759 40.185C35.0212 40.3302 35.2212 40.4209 35.4756 40.5298C35.5665 40.5661 35.6573 40.6024 35.7482 40.6569C35.8391 40.6024 35.9299 40.5661 36.0026 40.5298C36.2389 40.4209 36.4752 40.2939 36.6206 40.1487C37.7473 39.0778 38.8559 37.9525 39.9282 36.8635L40.1826 36.5912C40.7279 36.0285 40.746 35.3933 40.1826 34.8488C37.2385 31.8902 34.2398 28.8773 31.2411 25.8825C31.0048 25.6284 30.714 25.5013 30.4232 25.5013ZM15.357 29.6214C15.3389 29.6214 15.3389 29.6214 15.357 29.6214C11.4496 29.6214 7.81484 28.1331 5.10692 25.4469C2.399 22.7606 0.890565 19.1668 0.890565 15.3189C0.890565 7.40537 7.34232 0.961983 15.248 0.961983C19.0827 0.961983 22.6811 2.46847 25.4072 5.17287C28.1333 7.89543 29.6236 11.4892 29.6236 15.3189C29.6054 23.2144 23.2082 29.6214 15.357 29.6214ZM15.248 1.50649C7.6331 1.50649 1.43578 7.69578 1.43578 15.3189C1.43578 19.0216 2.87153 22.4702 5.4704 25.0657C8.08745 27.6431 11.5768 29.0769 15.3207 29.0769H15.3389C22.8992 29.0769 29.042 22.9058 29.0602 15.3189C29.0602 11.6344 27.6244 8.16769 25.0074 5.55403C22.4085 2.94038 18.9373 1.50649 15.248 1.50649ZM25.7525 28.4598L24.3713 27.0804L27.0247 24.3578L28.3878 25.828L25.7525 28.4598ZM25.1346 27.0622L25.7525 27.6794L27.6426 25.7917L27.0247 25.1202L25.1346 27.0622Z" fill="#1DAD8C"/>
<path d="M3.72583 15.2644C3.72583 8.89364 8.86906 3.75708 15.2299 3.75708C21.5908 3.75708 26.7341 8.89364 26.7341 15.2281C26.7341 21.6171 21.5908 26.7355 15.1754 26.7355C8.86906 26.7173 3.72583 21.5808 3.72583 15.2644ZM15.2118 4.6283C9.25071 4.68275 4.50731 9.4563 4.56183 15.3733C4.61635 21.2541 9.41428 25.955 15.3753 25.9187C21.1728 25.8824 25.9344 21.0363 25.8981 15.2281C25.8617 9.36555 21.0456 4.592 15.2118 4.6283Z" fill="#1DAD8C"/>
<path d="M15.1935 27.0078H15.1753C8.72357 26.9896 3.45312 21.726 3.45312 15.2645C3.45312 12.1063 4.68895 9.14778 6.90618 6.91529C9.1234 4.70094 12.0676 3.48486 15.2117 3.48486H15.2298C21.7179 3.48486 27.0066 8.76663 26.9884 15.2282C26.9884 18.3863 25.7526 21.363 23.5353 23.5773C21.3363 25.7917 18.3739 27.0078 15.1935 27.0078ZM15.2298 4.02937C12.2311 4.02937 9.41418 5.191 7.306 7.29644C5.17965 9.42004 3.99834 12.2515 3.99834 15.2645C3.99834 21.4356 9.01435 26.4633 15.1753 26.4633H15.1935C18.2104 26.4633 21.0455 25.3016 23.1719 23.1962C25.2982 21.0907 26.4613 18.2593 26.4613 15.2463C26.4613 9.05703 21.4272 4.04753 15.2298 4.02937ZM15.2844 26.191C12.3584 26.191 9.63227 25.0838 7.56044 23.0691C5.47043 21.0363 4.3073 18.3137 4.28913 15.3915C4.27095 12.4512 5.37956 9.6923 7.43322 7.62315C9.48688 5.53586 12.2493 4.39238 15.2117 4.35608C18.1013 4.33793 20.8274 5.4451 22.8993 7.4961C24.9893 9.56524 26.1524 12.306 26.1706 15.21C26.1887 18.0959 25.062 20.8366 23.0265 22.9239C20.9728 25.0112 18.2649 26.1729 15.3934 26.191C15.3389 26.191 15.3207 26.191 15.2844 26.191ZM15.2117 4.90059C12.3947 4.91874 9.77766 6.02592 7.81487 7.98616C5.87026 9.96455 4.81617 12.5782 4.83435 15.3734C4.85252 18.1504 5.96113 20.7459 7.94209 22.6698C9.90488 24.5938 12.5219 25.6465 15.2844 25.6465C15.3025 25.6465 15.3389 25.6465 15.3571 25.6465C18.0832 25.6283 20.6639 24.5212 22.6085 22.5428C24.5531 20.5644 25.6253 17.9689 25.6072 15.21C25.589 12.433 24.4804 9.8375 22.4994 7.87726C20.5366 5.93517 17.9559 4.88244 15.2117 4.90059Z" fill="#1DAD8C"/>
<path d="M21.1728 14.5748C21.1728 16.0086 21.1728 17.4425 21.1728 18.8764C21.1728 19.3483 21.1001 19.4209 20.6276 19.4209C19.8279 19.4209 19.0464 19.4209 18.2468 19.4209C17.8106 19.4209 17.7197 19.3302 17.7197 18.9127C17.7197 16.0086 17.7197 13.1046 17.7197 10.2005C17.7197 9.8738 17.8288 9.71045 18.1922 9.71045C19.0283 9.7286 19.8643 9.7286 20.7184 9.71045C21.0637 9.71045 21.191 9.85565 21.191 10.2005C21.1728 11.6525 21.1728 13.1227 21.1728 14.5748ZM20.464 18.7312C20.464 15.936 20.464 13.1772 20.464 10.4183C19.7552 10.4183 19.0828 10.4183 18.4285 10.4183C18.4285 13.1953 18.4285 15.9542 18.4285 18.7312C19.1191 18.7312 19.7916 18.7312 20.464 18.7312Z" fill="#1DAD8C"/>
<path d="M19.3553 19.6932C18.9918 19.6932 18.6102 19.6932 18.2467 19.6932C17.6651 19.6932 17.447 19.4754 17.447 18.9127V15.8453C17.447 13.9577 17.447 12.07 17.447 10.2005C17.447 9.94644 17.5015 9.74679 17.6469 9.61974C17.7742 9.49268 17.9559 9.43823 18.1922 9.43823C19.0463 9.45638 19.9005 9.45638 20.7002 9.43823C20.9546 9.43823 21.1182 9.49268 21.2454 9.61974C21.3726 9.74679 21.4453 9.92829 21.4453 10.2005C21.4453 11.2714 21.4453 12.3423 21.4453 13.4132V15.7727C21.4453 16.8073 21.4453 17.8419 21.4453 18.8764C21.4453 19.5117 21.2454 19.6932 20.6275 19.6932C20.2095 19.6932 19.7733 19.6932 19.3553 19.6932ZM18.0286 19.1305C18.0468 19.1305 18.1013 19.1487 18.2648 19.1487C19.0463 19.1487 19.846 19.1487 20.6275 19.1487C20.791 19.1487 20.8637 19.1305 20.8819 19.1305C20.8819 19.1124 20.9001 19.0398 20.9001 18.8764C20.9001 17.8419 20.9001 16.8073 20.9001 15.7727V13.4132C20.9001 12.3423 20.9001 11.2714 20.9001 10.2005C20.9001 10.0553 20.8637 10.019 20.8637 10.019C20.8637 10.019 20.8274 9.98274 20.7002 10.0009C19.9005 10.019 19.0463 10.019 18.174 10.0009C18.0649 10.0009 18.0286 10.019 18.0104 10.019C18.0104 10.019 17.9741 10.0553 17.9741 10.2005C17.9741 12.0882 17.9741 13.9758 17.9741 15.8453V18.9127C17.9922 19.0761 18.0104 19.1305 18.0286 19.1305ZM20.7365 19.0035H18.1558V10.1461H20.7365V19.0035ZM18.701 18.459H20.1913V10.6906H18.701V18.459Z" fill="#1DAD8C"/>
<path d="M16.4654 16.2446C16.4654 17.134 16.4654 18.0234 16.4654 18.8946C16.4654 19.3121 16.3745 19.4028 15.9565 19.4028C15.1569 19.4028 14.3572 19.4028 13.5576 19.4028C13.1214 19.4028 13.0305 19.3121 13.0305 18.8946C13.0305 17.1159 13.0305 15.319 13.0305 13.5402C13.0305 13.1228 13.1214 13.0502 13.5212 13.0502C14.339 13.0502 15.175 13.0502 15.9929 13.0502C16.3382 13.0502 16.4654 13.1954 16.4654 13.5402C16.4472 14.4478 16.4654 15.3553 16.4654 16.2446ZM15.7566 13.7762C15.0297 13.7762 14.3572 13.7762 13.703 13.7762C13.703 15.446 13.703 17.0796 13.703 18.7131C14.3936 18.7131 15.0842 18.7131 15.7566 18.7131C15.7566 17.0614 15.7566 15.4279 15.7566 13.7762Z" fill="#1DAD8C"/>
<path d="M14.7208 19.6932C14.321 19.6932 13.9212 19.6932 13.5213 19.6932C12.9398 19.6932 12.7217 19.4935 12.7217 18.9127C12.7217 17.134 12.7217 15.3371 12.7217 13.5583C12.7217 12.9957 12.9216 12.796 13.485 12.796C13.7939 12.796 14.1211 12.796 14.43 12.796C14.9389 12.796 15.4478 12.796 15.9566 12.796C16.2111 12.796 16.3928 12.8505 16.52 12.9775C16.6473 13.1046 16.7199 13.2861 16.7199 13.5402C16.7199 14.1754 16.7199 14.8289 16.7199 15.4641V17.0069C16.7199 17.6422 16.7199 18.2593 16.7199 18.8946C16.7199 19.4572 16.5019 19.675 15.9385 19.675C15.5386 19.6932 15.1388 19.6932 14.7208 19.6932ZM13.3032 19.1305C13.3214 19.1305 13.3941 19.1487 13.5395 19.1487C14.3392 19.1487 15.1388 19.1487 15.9385 19.1487C16.1202 19.1487 16.1566 19.1305 16.1747 19.1305C16.1747 19.1305 16.1929 19.0942 16.1929 18.9127C16.1929 18.2774 16.1929 17.6603 16.1929 17.0251V15.4823C16.1929 14.847 16.1929 14.1936 16.1929 13.5583C16.1929 13.4494 16.1747 13.395 16.1566 13.3768C16.1384 13.3587 16.102 13.3405 15.993 13.3405C15.4841 13.3405 14.9752 13.3405 14.4482 13.3405C14.1392 13.3405 13.8121 13.3405 13.5032 13.3405C13.3759 13.3405 13.3214 13.3587 13.3032 13.3587C13.3032 13.3768 13.2851 13.4313 13.2851 13.5583C13.2851 15.3371 13.2851 17.134 13.2851 18.9127C13.2851 19.0579 13.2851 19.1124 13.3032 19.1305ZM16.0293 18.9853H13.4305V13.5039H16.0293V18.9853ZM13.9757 18.4408H15.4841V14.0484H13.9757V18.4408Z" fill="#1DAD8C"/>
<path d="M11.7404 17.3518C11.7404 17.8782 11.7404 18.4227 11.7404 18.949C11.7404 19.2576 11.6132 19.421 11.2861 19.421C10.4319 19.421 9.5777 19.421 8.7417 19.421C8.43275 19.421 8.28735 19.2939 8.28735 18.9853C8.28735 17.9145 8.28735 16.8255 8.28735 15.7546C8.28735 15.446 8.43275 15.319 8.7417 15.319C9.59588 15.319 10.4501 15.319 11.2861 15.319C11.6132 15.319 11.7404 15.4642 11.7404 15.7909C11.7404 16.3172 11.7404 16.8255 11.7404 17.3518ZM8.97796 18.7312C9.63223 18.7312 10.2501 18.7312 10.8681 18.7312C10.9408 18.7312 11.0498 18.6223 11.0498 18.5679C11.068 17.7148 11.0498 16.8799 11.0498 16.0087C10.341 16.0087 9.66857 16.0087 8.97796 16.0087C8.97796 16.9162 8.97796 17.8056 8.97796 18.7312Z" fill="#1DAD8C"/>
<path d="M8.72343 19.6932C8.48717 19.6932 8.32361 19.6387 8.19639 19.5117C8.06917 19.3846 8.01465 19.2213 8.01465 18.9853V18.586C8.01465 17.6422 8.01465 16.6984 8.01465 15.7545C8.01465 15.5367 8.06917 15.3552 8.19639 15.2463C8.32361 15.1193 8.50535 15.0648 8.74161 15.0648C9.61396 15.0648 10.4681 15.0648 11.286 15.0648C11.5222 15.0648 11.704 15.1193 11.8312 15.2463C11.9584 15.3734 12.0311 15.5549 12.0129 15.7908C12.0129 16.1538 12.0129 16.5169 12.0129 16.8799V17.3518V17.8418C12.0129 18.2048 12.0129 18.586 12.0129 18.949C12.0129 19.185 11.9584 19.3665 11.8312 19.4935C11.704 19.6206 11.5222 19.6932 11.286 19.6932C10.3409 19.6932 9.50491 19.6932 8.72343 19.6932ZM8.72343 15.5912C8.59622 15.5912 8.57804 15.6093 8.57804 15.6275C8.57804 15.6275 8.55987 15.6819 8.55987 15.7545C8.55987 16.6984 8.55987 17.6422 8.55987 18.586V18.9853C8.55987 19.0579 8.57804 19.1124 8.57804 19.1124C8.57804 19.1124 8.61439 19.1487 8.72343 19.1487C9.50491 19.1487 10.3409 19.1487 11.2678 19.1487C11.3587 19.1487 11.4132 19.1305 11.4132 19.1124C11.4314 19.0942 11.4495 19.0398 11.4495 18.949C11.4495 18.5678 11.4495 18.2048 11.4495 17.8237V17.3336V16.8799C11.4495 16.5169 11.4495 16.1357 11.4495 15.7727C11.4495 15.6456 11.4314 15.6093 11.4132 15.6093C11.395 15.5912 11.3587 15.573 11.2678 15.573C10.4681 15.6093 9.61396 15.6093 8.72343 15.5912ZM9.83204 19.0216C9.68665 19.0216 9.55943 19.0216 9.41404 19.0216H8.70526V15.7545H11.3223V16.5169C11.3223 17.1884 11.3223 17.8963 11.3223 18.586C11.3223 18.8038 11.0679 19.0035 10.868 19.0216C10.5227 19.0035 10.1773 19.0216 9.83204 19.0216ZM9.25048 18.4771H9.41404C9.88657 18.4771 10.3227 18.4771 10.7771 18.4771C10.7771 17.8237 10.7771 17.1703 10.7771 16.5169V16.299H9.25048V18.4771Z" fill="#1DAD8C"/>
</g>
<defs>
<clipPath id="clip0_259_23">
<rect width="42" height="42" fill="white"/>
</clipPath>
</defs>
</svg>
