<svg xmlns="http://www.w3.org/2000/svg" width="32" height="32"><path fill="#4d4949" d="M23.338 0H8.663A8.671 8.671 0 0 0 .001 8.662v14.676A8.671 8.671 0 0 0 8.663 32h14.676a8.671 8.671 0 0 0 8.662-8.662V8.662A8.671 8.671 0 0 0 23.339 0h-.001zm6.787 23.338a6.794 6.794 0 0 1-6.786 6.787H8.663a6.794 6.794 0 0 1-6.787-6.786V8.663a6.794 6.794 0 0 1 6.786-6.787h14.676a6.794 6.794 0 0 1 6.787 6.786v14.676z"/><path fill="#4d4949" d="M15.304 8.348c-4.602 0-8.348 3.745-8.348 8.348s3.745 8.348 8.348 8.348 8.348-3.745 8.348-8.348-3.745-8.348-8.348-8.348zm0 14.906a6.566 6.566 0 0 1-6.559-6.558 6.568 6.568 0 0 1 6.558-6.559 6.567 6.567 0 0 1 6.559 6.559 6.567 6.567 0 0 1-6.559 6.559zm8.348-19.08c-1.535 0-2.783 1.248-2.783 2.783s1.248 2.783 2.783 2.783 2.783-1.248 2.783-2.783-1.248-2.783-2.783-2.783zm0 3.546a.766.766 0 0 1 0-1.53h.001a.766.766 0 0 1 0 1.53h-.001z"/></svg>