<svg width="41" height="46" viewBox="0 0 41 46" fill="none" xmlns="http://www.w3.org/2000/svg">
<g clip-path="url(#clip0_583_350)">
<path d="M4.05767 18.1664C6.34537 18.1664 8.57946 18.2023 10.8136 18.1484C12.1719 18.1125 13.1728 18.5797 13.8162 19.8195C14.1021 20.3766 14.4775 20.8797 14.7992 21.4187C14.9779 21.7062 15.2281 21.85 15.5677 21.85C22.6095 21.85 29.6514 21.85 36.6932 21.85C36.7469 21.85 36.8005 21.832 36.9077 21.832C36.9077 17.8969 36.9077 13.9617 36.9077 9.99062C36.7647 9.99062 36.6039 9.97266 36.443 9.97266C34.8702 9.97266 33.2795 9.97266 31.7068 9.97266C30.2769 9.95469 29.2224 9.16406 28.9365 7.85234C28.8829 7.60078 28.8829 7.34922 28.8829 7.09766C28.8829 5.53438 28.8829 3.95312 28.8829 2.38984C28.8829 2.22813 28.8829 2.06641 28.8829 1.83281C28.6863 1.83281 28.5254 1.83281 28.3824 1.83281C26.7203 1.83281 25.0402 1.83281 23.3781 1.83281C22.7347 1.83281 22.3057 1.47344 22.3057 0.952344C22.2878 0.413281 22.7346 0.0359375 23.3959 0.0359375C25.6658 0.0359375 27.9535 0.0359375 30.2233 0.0359375C30.6344 0.0359375 30.9382 0.161719 31.2063 0.449219C33.5834 2.83906 35.9605 5.24688 38.3554 7.61875C38.6771 7.94219 38.7486 8.28359 38.7486 8.71484C38.7486 12.9016 38.7486 17.1063 38.7486 21.293C38.7486 21.4727 38.7486 21.6523 38.7486 21.8141C38.8022 21.85 38.8201 21.868 38.8558 21.8859C40.5537 22.4969 41.0006 23.1258 41.0006 24.9227C41.0006 31.0141 41.0006 37.1055 41.0006 43.2148C41.0006 43.8258 40.9469 44.4188 40.5716 44.9219C40.0533 45.6586 39.3563 46.0359 38.4448 46.0359C26.4879 46.0359 14.5311 46.0359 2.57423 46.0359C1.12654 46.0359 0.0541801 44.9938 0.0184346 43.5383C-0.0173108 42.1008 0.000561928 40.6633 0.000561928 39.2258C0.000561928 33.1523 0.000561928 27.0609 0.000561928 20.9875C0.000561928 19.4961 0.572489 18.7055 2.00231 18.2563C2.10954 18.2203 2.19891 18.0766 2.23465 17.9508C2.2704 17.843 2.25252 17.7172 2.25252 17.5914C2.25252 12.7039 2.25252 7.79844 2.25252 2.91094C2.25252 1.40156 3.07467 0.377344 4.46874 0.0898438C4.59385 0.0179687 4.73683 0 4.86194 0C8.25776 0 20.0001 0 23.3959 0C24.0036 0 24.3789 0.323438 24.3968 0.8625C24.4147 1.4375 24.0394 1.79688 23.3959 1.79688C21.001 1.79688 10.2595 1.79688 7.86456 1.79688C6.93517 1.79688 5.98792 1.79688 5.05854 1.79688C4.41512 1.79688 4.05767 2.13828 4.05767 2.78516C4.05767 7.79844 4.05767 12.8117 4.05767 17.825C4.03979 17.9328 4.05767 18.0227 4.05767 18.1664ZM20.4827 44.2031C26.3807 44.2031 32.2787 44.2031 38.1767 44.2031C38.9988 44.2031 39.1954 44.0055 39.1954 43.1609C39.1954 37.0156 39.1954 30.8523 39.1954 24.707C39.1954 23.8266 38.9988 23.6289 38.1231 23.6289C30.6344 23.6289 23.1457 23.6289 15.6571 23.6289C14.5847 23.6289 13.7983 23.1977 13.2442 22.2992C12.9047 21.7602 12.5293 21.2211 12.2255 20.6641C11.9395 20.143 11.5642 19.9453 10.9744 19.9453C8.27563 19.9633 5.57685 19.9633 2.89594 19.9633C1.98443 19.9633 1.78783 20.143 1.78783 21.0594C1.78783 28.4266 1.78783 35.7938 1.78783 43.1609C1.78783 44.0234 1.98443 44.2211 2.84232 44.2211C8.72245 44.2031 14.6026 44.2031 20.4827 44.2031ZM36.1749 8.12187C34.334 6.28906 32.511 4.45625 30.688 2.64141C30.688 4.16875 30.6701 5.76797 30.688 7.36719C30.688 7.78047 31.0455 8.12187 31.4923 8.12187C33.0651 8.13984 34.6379 8.12187 36.1749 8.12187Z" fill="#1DAD8C"/>
<path d="M17.6932 31.3914C17.6932 30.3492 17.6932 29.3789 17.6932 28.4086C17.6932 27.025 18.1937 26.5219 19.5878 26.5219C20.2669 26.5219 20.964 26.5219 21.6431 26.5219C22.7512 26.5219 23.3053 27.0969 23.3231 28.2109C23.3231 29.0914 23.3231 29.9719 23.3231 30.8523C23.3231 31.0141 23.3231 31.1758 23.3231 31.3914C23.8236 31.3914 24.2704 31.3914 24.6993 31.3914C25.3428 31.3914 25.9862 31.3734 26.6117 31.3914C27.5411 31.4273 28.1309 32.0023 28.1667 32.9008C28.1845 33.7813 28.1845 34.6617 28.1667 35.5422C28.1309 36.4586 27.5411 37.0156 26.6117 37.0336C25.6823 37.0516 24.7708 37.0336 23.8415 37.0336C23.6806 37.0336 23.5197 37.0336 23.3053 37.0336C23.3053 37.393 23.3053 37.6805 23.3053 37.968C23.3053 38.7766 23.3231 39.5852 23.3053 40.3938C23.2874 41.2742 22.7512 41.8672 21.8755 41.9031C20.964 41.9391 20.0524 41.9391 19.1588 41.9031C18.2652 41.8672 17.729 41.2742 17.7111 40.3578C17.6932 39.4234 17.7111 38.507 17.7111 37.5727C17.7111 37.4109 17.7111 37.2492 17.7111 37.0156C17.2107 37.0156 16.746 37.0156 16.2992 37.0156C15.6736 37.0156 15.0481 37.0156 14.4225 37.0156C13.4574 36.9977 12.8676 36.4227 12.8497 35.4523C12.8319 34.6438 12.8497 33.8352 12.8497 33.0266C12.8497 31.9844 13.4217 31.3914 14.4762 31.3734C15.3877 31.3555 16.2992 31.3734 17.1928 31.3734C17.3358 31.3914 17.4788 31.3914 17.6932 31.3914ZM14.637 35.2367C14.8515 35.2367 15.0123 35.2367 15.1732 35.2367C16.2277 35.2367 17.2822 35.2367 18.3367 35.2367C19.1231 35.2367 19.4626 35.5602 19.4626 36.3508C19.4626 36.9258 19.4626 37.4828 19.4626 38.0578C19.4626 38.7227 19.4626 39.4055 19.4626 40.0883C20.1597 40.0883 20.8031 40.0883 21.5001 40.0883C21.5001 39.8906 21.5001 39.7289 21.5001 39.5672C21.5001 38.507 21.5001 37.4469 21.5001 36.3867C21.5001 35.5781 21.8397 35.2367 22.644 35.2367C23.7163 35.2367 24.7887 35.2367 25.8611 35.2367C26.0219 35.2367 26.1828 35.2188 26.3436 35.2188C26.3436 34.5359 26.3436 33.907 26.3436 33.2242C26.1649 33.2242 26.0041 33.2063 25.8432 33.2063C24.8423 33.2063 23.8415 33.2063 22.8585 33.2063C21.7503 33.2063 21.518 32.9727 21.518 31.8766C21.518 30.8523 21.518 29.8461 21.518 28.8219C21.518 28.6602 21.5001 28.5164 21.4823 28.3547C20.8031 28.3547 20.1597 28.3547 19.4805 28.3547C19.4805 28.5523 19.4805 28.7141 19.4805 28.8758C19.4805 29.9359 19.4805 30.9961 19.4805 32.0563C19.4805 32.8828 19.1767 33.1883 18.3545 33.2063C17.2822 33.2063 16.2098 33.2063 15.1374 33.2063C14.9766 33.2063 14.8157 33.2242 14.637 33.2242C14.637 33.907 14.637 34.5359 14.637 35.2367Z" fill="#1DAD8C"/>
</g>
<defs>
<clipPath id="clip0_583_350">
<rect width="41" height="46" fill="white"/>
</clipPath>
</defs>
</svg>
