<svg width="41" height="46" viewBox="0 0 41 46" fill="none" xmlns="http://www.w3.org/2000/svg">
<g clip-path="url(#clip0_583_384)">
<path d="M4.05742 18.1664C6.34513 18.1664 8.57922 18.2023 10.8133 18.1484C12.1716 18.1125 13.1725 18.5797 13.8159 19.8195C14.1019 20.3766 14.4772 20.8797 14.7989 21.4187C14.9777 21.7062 15.2279 21.85 15.5674 21.85C22.6093 21.85 29.6511 21.85 36.693 21.85C36.7466 21.85 36.8002 21.832 36.9075 21.832C36.9075 17.8969 36.9075 13.9617 36.9075 9.99062C36.7645 9.99062 36.6036 9.97266 36.4428 9.97266C34.87 9.97266 33.2793 9.97266 31.7065 9.97266C30.2767 9.95469 29.2222 9.16406 28.9362 7.85234C28.8826 7.60078 28.8826 7.34922 28.8826 7.09766C28.8826 5.53438 28.8826 3.95312 28.8826 2.38984C28.8826 2.22813 28.8826 2.06641 28.8826 1.83281C28.686 1.83281 28.5252 1.83281 28.3822 1.83281C26.72 1.83281 25.04 1.83281 23.3778 1.83281C22.7344 1.83281 22.3055 1.47344 22.3055 0.952344C22.2876 0.413281 22.7344 0.0359375 23.3957 0.0359375C25.6655 0.0359375 27.9532 0.0359375 30.2231 0.0359375C30.6341 0.0359375 30.938 0.161719 31.2061 0.449219C33.5831 2.83906 35.9602 5.24688 38.3552 7.61875C38.6769 7.94219 38.7484 8.28359 38.7484 8.71484C38.7484 12.9016 38.7484 17.1063 38.7484 21.293C38.7484 21.4727 38.7484 21.6523 38.7484 21.8141C38.802 21.85 38.8198 21.868 38.8556 21.8859C40.5535 22.4969 41.0003 23.1258 41.0003 24.9227C41.0003 31.0141 41.0003 37.1055 41.0003 43.2148C41.0003 43.8258 40.9467 44.4188 40.5714 44.9219C40.0531 45.6586 39.356 46.0359 38.4445 46.0359C26.4877 46.0359 14.5308 46.0359 2.57399 46.0359C1.1263 46.0359 0.0539359 44.9938 0.0181905 43.5383C-0.0175549 42.1008 0.000317787 40.6633 0.000317787 39.2258C0.000317787 33.1523 0.000317787 27.0609 0.000317787 20.9875C0.000317787 19.4961 0.572244 18.7055 2.00206 18.2563C2.1093 18.2203 2.19866 18.0766 2.23441 17.9508C2.27015 17.843 2.25228 17.7172 2.25228 17.5914C2.25228 12.7039 2.25228 7.79844 2.25228 2.91094C2.25228 1.40156 3.07442 0.377344 4.4685 0.0898438C4.5936 0.0179687 4.73659 0 4.8617 0C8.25751 0 19.9999 0 23.3957 0C24.0034 0 24.3787 0.323438 24.3966 0.8625C24.4144 1.4375 24.0391 1.79688 23.3957 1.79688C21.0008 1.79688 10.2593 1.79688 7.86431 1.79688C6.93493 1.79688 5.98768 1.79688 5.0583 1.79688C4.41488 1.79688 4.05742 2.13828 4.05742 2.78516C4.05742 7.79844 4.05742 12.8117 4.05742 17.825C4.03955 17.9328 4.05742 18.0227 4.05742 18.1664ZM20.4824 44.2031C26.3804 44.2031 32.2784 44.2031 38.1764 44.2031C38.9986 44.2031 39.1952 44.0055 39.1952 43.1609C39.1952 37.0156 39.1952 30.8523 39.1952 24.707C39.1952 23.8266 38.9986 23.6289 38.1228 23.6289C30.6341 23.6289 23.1455 23.6289 15.6568 23.6289C14.5845 23.6289 13.7981 23.1977 13.244 22.2992C12.9044 21.7602 12.5291 21.2211 12.2253 20.6641C11.9393 20.143 11.564 19.9453 10.9742 19.9453C8.27538 19.9633 5.5766 19.9633 2.8957 19.9633C1.98419 19.9633 1.78759 20.143 1.78759 21.0594C1.78759 28.4266 1.78759 35.7938 1.78759 43.1609C1.78759 44.0234 1.98419 44.2211 2.84208 44.2211C8.7222 44.2031 14.6023 44.2031 20.4824 44.2031ZM36.1747 8.12187C34.3338 6.28906 32.5108 4.45625 30.6878 2.64141C30.6878 4.16875 30.6699 5.76797 30.6878 7.36719C30.6878 7.78047 31.0452 8.12187 31.492 8.12187C33.0648 8.13984 34.6376 8.12187 36.1747 8.12187Z" fill="#1DAD8C"/>
<path d="M17.694 31.3914C17.694 30.3492 17.694 29.3789 17.694 28.4086C17.694 27.025 18.1944 26.5219 19.5885 26.5219C20.2676 26.5219 20.9647 26.5219 21.6438 26.5219C22.752 26.5219 23.306 27.0968 23.3239 28.2109C23.3239 29.0914 23.3239 29.9718 23.3239 30.8523C23.3239 31.014 23.3239 31.1758 23.3239 31.3914C23.8243 31.3914 24.2711 31.3914 24.7001 31.3914C25.3435 31.3914 25.9869 31.3734 26.6125 31.3914C27.5418 31.4273 28.1316 32.0023 28.1674 32.9008C28.1853 33.7812 28.1853 34.6617 28.1674 35.5422C28.1316 36.4586 27.5418 37.0156 26.6125 37.0336C25.6831 37.0515 24.7716 37.0336 23.8422 37.0336C23.6813 37.0336 23.5205 37.0336 23.306 37.0336C23.306 37.3929 23.306 37.6804 23.306 37.9679C23.306 38.7765 23.3239 39.5851 23.306 40.3937C23.2881 41.2742 22.752 41.8672 21.8762 41.9031C20.9647 41.939 20.0532 41.939 19.1595 41.9031C18.2659 41.8672 17.7297 41.2742 17.7118 40.3578C17.694 39.4234 17.7118 38.507 17.7118 37.5726C17.7118 37.4109 17.7118 37.2492 17.7118 37.0156C17.2114 37.0156 16.7467 37.0156 16.2999 37.0156C15.6744 37.0156 15.0488 37.0156 14.4233 37.0156C13.4581 36.9976 12.8683 36.4226 12.8505 35.4523C12.8326 34.6437 12.8505 33.8351 12.8505 33.0265C12.8505 31.9844 13.4224 31.3914 14.4769 31.3734C15.3884 31.3554 16.2999 31.3734 17.1935 31.3734C17.3365 31.3914 17.4795 31.3914 17.694 31.3914ZM14.6377 35.2367C14.8522 35.2367 15.0131 35.2367 15.1739 35.2367C16.2284 35.2367 17.2829 35.2367 18.3374 35.2367C19.1238 35.2367 19.4634 35.5601 19.4634 36.3508C19.4634 36.9258 19.4634 37.4828 19.4634 38.0578C19.4634 38.7226 19.4634 39.4054 19.4634 40.0883C20.1604 40.0883 20.8038 40.0883 21.5009 40.0883C21.5009 39.8906 21.5009 39.7289 21.5009 39.5672C21.5009 38.507 21.5009 37.4468 21.5009 36.3867C21.5009 35.5781 21.8404 35.2367 22.6447 35.2367C23.7171 35.2367 24.7894 35.2367 25.8618 35.2367C26.0227 35.2367 26.1835 35.2187 26.3444 35.2187C26.3444 34.5359 26.3444 33.907 26.3444 33.2242C26.1656 33.2242 26.0048 33.2062 25.8439 33.2062C24.8431 33.2062 23.8422 33.2062 22.8592 33.2062C21.7511 33.2062 21.5187 32.9726 21.5187 31.8765C21.5187 30.8523 21.5187 29.8461 21.5187 28.8218C21.5187 28.6601 21.5009 28.5164 21.483 28.3547C20.8038 28.3547 20.1604 28.3547 19.4812 28.3547C19.4812 28.5523 19.4812 28.714 19.4812 28.8758C19.4812 29.9359 19.4812 30.9961 19.4812 32.0562C19.4812 32.8828 19.1774 33.1883 18.3553 33.2062C17.2829 33.2062 16.2105 33.2062 15.1382 33.2062C14.9773 33.2062 14.8165 33.2242 14.6377 33.2242C14.6377 33.907 14.6377 34.5359 14.6377 35.2367Z" fill="#1DAD8C"/>
</g>
<defs>
<clipPath id="clip0_583_384">
<rect width="41" height="46" fill="white"/>
</clipPath>
</defs>
</svg>
