<svg width="35" height="48" viewBox="0 0 35 48" fill="none" xmlns="http://www.w3.org/2000/svg">
<g clip-path="url(#clip0_583_363)">
<path d="M0 23.9813C0 17.3438 0 10.7063 0 4.06875C0 1.93125 1.28389 0.4125 3.34928 0.0375C3.53535 0 3.74003 0 3.94471 0C9.73153 0 15.5183 0 21.2865 0C21.7145 0 22.0494 0.13125 22.3658 0.45C26.4221 4.55625 30.4971 8.64375 34.572 12.75C34.8698 13.05 35 13.3687 35 13.7812C35 23.85 35 33.9375 35 44.0062C35 46.3312 33.3068 48 30.9809 48C21.9936 48 12.9878 48 4.00053 48C1.67464 48 0 46.3125 0 43.95C0 37.2937 0 30.6375 0 23.9813ZM20.5795 1.89375C20.3376 1.89375 20.1701 1.89375 20.0027 1.89375C14.7182 1.89375 9.43381 1.89375 4.14939 1.89375C2.69803 1.89375 1.87932 2.71875 1.87932 4.18125C1.87932 17.4 1.87932 30.6188 1.87932 43.8375C1.87932 45.3 2.69803 46.125 4.168 46.125C13.0436 46.125 21.9378 46.125 30.8134 46.125C32.3392 46.125 33.1393 45.3188 33.1393 43.8C33.1393 34.2188 33.1393 24.6375 33.1393 15.075C33.1393 14.9062 33.1393 14.7375 33.1393 14.55C32.8974 14.55 32.7299 14.55 32.5625 14.55C29.9203 14.55 27.2966 14.55 24.6544 14.55C24.2637 14.55 23.8543 14.5125 23.4636 14.4C21.6959 13.9125 20.5981 12.4125 20.5795 10.5C20.5609 7.8375 20.5795 5.19375 20.5795 2.53125C20.5795 2.325 20.5795 2.1375 20.5795 1.89375ZM31.5763 12.6375C28.5433 9.58125 25.5104 6.525 22.496 3.4875C22.496 3.4875 22.4774 3.5625 22.4774 3.6375C22.4774 5.925 22.4588 8.23125 22.4774 10.5187C22.496 11.8312 23.3333 12.6375 24.673 12.6375C26.5152 12.6375 28.3573 12.6375 30.1994 12.6375C30.7018 12.6375 31.1669 12.6375 31.5763 12.6375Z" fill="#1DAD8C"/>
<path d="M15.4111 34.4813C13.0666 34.4813 10.7407 34.4813 8.3962 34.4813C8.24734 34.4813 8.07988 34.4813 7.93102 34.4625C7.3542 34.4063 6.98206 34.0125 7.00067 33.4875C7.00067 32.9625 7.37281 32.6063 7.96824 32.55C8.11709 32.5313 8.28456 32.55 8.43342 32.55C13.1596 32.55 17.8858 32.55 22.612 32.55C23.4866 32.55 23.9331 32.8688 23.9518 33.5063C23.9518 34.1438 23.5052 34.4813 22.6493 34.4813C20.2117 34.4813 17.8114 34.4813 15.4111 34.4813Z" fill="#1DAD8C"/>
<path d="M13.0358 36.825C14.6732 36.825 16.3292 36.825 17.9667 36.825C18.5435 36.825 18.9156 37.1063 19.0087 37.5563C19.1203 38.1938 18.7296 38.6813 18.0597 38.7188C17.5573 38.7375 17.0735 38.7188 16.5711 38.7188C13.7987 38.7188 11.0262 38.7188 8.25374 38.7188C8.06767 38.7188 7.8816 38.7188 7.69553 38.6625C7.23035 38.5313 6.95124 38.1 7.00707 37.6313C7.06289 37.1813 7.39782 36.8437 7.8816 36.825C8.68171 36.8062 9.50042 36.8063 10.3005 36.8063C11.2123 36.825 12.124 36.825 13.0358 36.825Z" fill="#1DAD8C"/>
<path d="M7.78 26V18.95H9.07V26H7.78ZM10.6218 26V18.95H13.7018C14.4751 18.95 15.0718 19.1333 15.4918 19.5C15.9185 19.8667 16.1318 20.3767 16.1318 21.03C16.1318 21.4633 16.0351 21.8333 15.8418 22.14C15.6551 22.4467 15.3851 22.6833 15.0318 22.85C14.6785 23.01 14.2618 23.09 13.7818 23.09L13.9218 22.9H14.2618C14.5418 22.9 14.7918 22.9733 15.0118 23.12C15.2318 23.2667 15.4118 23.49 15.5518 23.79L16.5818 26H15.1618L14.1218 23.71C14.0285 23.4767 13.8851 23.3233 13.6918 23.25C13.5051 23.1767 13.2785 23.14 13.0118 23.14H11.9118V26H10.6218ZM11.9118 22.19H13.4918C13.9451 22.19 14.2885 22.0967 14.5218 21.91C14.7618 21.7167 14.8818 21.4367 14.8818 21.07C14.8818 20.7033 14.7618 20.4267 14.5218 20.24C14.2885 20.0533 13.9451 19.96 13.4918 19.96H11.9118V22.19ZM17.6433 26V18.95H20.7733C21.5466 18.95 22.1366 19.1367 22.5433 19.51C22.9499 19.8833 23.1533 20.3967 23.1533 21.05C23.1533 21.6967 22.9499 22.21 22.5433 22.59C22.1366 22.97 21.5466 23.16 20.7733 23.16H18.9333V26H17.6433ZM18.9333 22.14H20.6233C21.0499 22.14 21.3699 22.0467 21.5833 21.86C21.7966 21.6667 21.9033 21.3967 21.9033 21.05C21.9033 20.7033 21.7966 20.4367 21.5833 20.25C21.3699 20.0567 21.0499 19.96 20.6233 19.96H18.9333V22.14Z" fill="#1DAD8C"/>
</g>
<defs>
<clipPath id="clip0_583_363">
<rect width="35" height="48" fill="white"/>
</clipPath>
</defs>
</svg>
