<svg width="47" height="47" viewBox="0 0 47 47" fill="none" xmlns="http://www.w3.org/2000/svg">
<g clip-path="url(#clip0_508_380)">
<path d="M44.0128 12.0619C44.8068 11.2679 45.6387 10.436 46.4327 9.64199C46.9621 9.15044 47.1133 8.6967 46.8864 8.31858C46.6974 7.97828 46.2058 7.60016 45.6765 7.4111C45.0337 7.18423 44.3909 7.07079 43.6725 6.91955C43.37 6.84392 43.0675 6.80611 42.765 6.73049L42.2734 6.61705L42.5381 6.16331C43.0297 5.29364 43.0297 4.80209 42.5381 4.34835C42.0844 3.93242 41.5928 3.93242 40.7988 4.38616L40.345 4.61303L40.2316 4.12148C40.156 3.81898 40.0803 3.47868 40.0047 3.17618C39.8535 2.49557 39.7022 1.81496 39.551 1.13435C39.3997 0.415926 39.1729 0.0756206 38.7191 -0.0756264C38.2276 -0.226873 37.8116 -0.0378146 37.3201 0.453738C36.4882 1.2856 35.6564 2.11746 34.8245 2.94931C33.7658 4.00804 32.6692 5.10458 31.6105 6.20112C31.0433 6.80611 30.514 6.88173 29.7577 6.54143C26.9218 5.25583 24.0482 4.61303 21.0988 4.61303C19.6998 4.61303 18.3008 4.76428 16.9017 5.06677C5.86071 7.37329 -1.32352 17.5446 0.226757 28.7747C0.982992 34.3709 3.97012 39.3242 8.62096 42.7651C13.234 46.2438 19.057 47.6428 24.5775 46.6975C31.0811 45.5631 36.6017 41.5929 39.6644 35.7321C42.7272 29.9091 42.954 23.1786 40.2316 17.2043C39.8535 16.3725 40.0803 15.9187 40.6097 15.4272C41.7441 14.2928 42.9162 13.1585 44.0128 12.0619ZM32.1399 8.96138C33.3877 7.67578 34.7111 6.35237 35.9589 5.10458L37.3957 3.66774L37.6604 4.08367C38.6435 5.70957 38.5301 6.84392 37.2823 8.09171L36.2235 9.15044C35.3917 9.9823 34.522 10.852 33.6902 11.6838C33.5389 11.8351 33.3877 11.9485 33.1986 12.1376C33.123 12.2132 33.0095 12.2888 32.8961 12.4022L32.4045 12.856L32.2533 12.2132C32.2155 11.9863 32.1399 11.7594 32.1021 11.5704C31.9886 11.041 31.8752 10.5873 31.7996 10.0957C31.7996 9.71762 31.8752 9.22606 32.1399 8.96138ZM37.4335 35.0893C34.522 40.3073 29.5309 43.7104 23.8213 44.5044C22.9138 44.6179 21.9685 44.6935 21.0988 44.6935C12.0996 44.6935 4.5373 38.6814 2.6089 29.5688C1.58798 24.8045 2.64671 19.6621 5.48259 15.4272C8.31847 11.1545 12.7046 8.24296 17.5067 7.37329C21.2879 6.69268 24.9556 7.10861 28.4343 8.54545C28.8124 8.6967 29.2662 9.037 29.3418 9.41512C29.6443 10.6629 29.909 11.9107 30.2115 13.2341C30.2871 13.65 30.4005 14.1038 30.4762 14.5197L30.703 15.5028L29.909 14.8978C26.5059 12.4779 22.6869 11.4948 18.9058 12.0998C15.2758 12.6669 11.8728 14.7466 9.79313 17.6203C5.63384 23.4055 6.39007 31.2325 11.6081 36.148C16.5236 40.7989 24.5019 41.0635 29.7955 36.753C34.9379 32.5559 37.3579 24.4642 31.9508 17.0531L31.3836 16.259L32.3667 16.4859C32.8205 16.5994 33.2742 16.675 33.728 16.7884C34.9757 17.0531 36.1479 17.3178 37.2823 17.5825C37.6982 17.6959 38.1897 18.1118 38.3788 18.5278C40.7231 23.8214 40.3828 29.8713 37.4335 35.0893ZM20.3048 26.6951C20.6451 26.9976 21.2123 27.3379 22.1198 26.4682C22.6869 25.9389 23.2163 25.3717 23.7835 24.8045L24.88 23.708L25.1447 24.1239C26.09 25.7498 25.5606 28.0941 24.0103 29.3797C23.1407 30.0981 22.1198 30.4384 21.0988 30.4384C20.0023 30.4384 18.9436 30.0603 18.0739 29.2663C16.3346 27.6782 16.0321 25.3339 17.3177 23.4055C18.5276 21.5527 20.872 20.8721 22.9894 21.8174L23.5188 22.0442L23.1029 22.4224C22.8004 22.687 22.5357 22.9517 22.271 23.2164C21.666 23.7836 21.0988 24.3129 20.5695 24.8801C20.1914 25.2582 20.0023 25.6364 20.0023 25.9767C19.9267 26.2413 20.0779 26.4682 20.3048 26.6951ZM25.5606 19.7755C25.1825 20.078 24.5019 19.9646 24.1238 19.7755C21.9685 18.7168 19.4729 18.8681 17.4311 20.1537C15.4271 21.4014 14.2549 23.5567 14.2549 25.901C14.2549 28.6613 15.9943 31.2325 18.5655 32.2534C21.2123 33.3121 24.1238 32.6315 26.09 30.5519C27.9428 28.5479 28.4343 25.4851 27.2622 23.103C26.8462 22.2333 26.9218 21.6661 27.6025 21.0611C28.1318 20.6074 28.6234 20.078 29.0771 19.5865C29.304 19.3596 29.493 19.1327 29.7199 18.9437L29.9846 18.679L30.2493 18.9815C33.4255 22.4224 33.9548 29.2285 29.6443 33.9171C27.3378 36.4127 24.2372 37.6983 21.1367 37.6983C18.263 37.6983 15.3515 36.6396 13.0071 34.4843C10.7762 32.4425 9.52845 29.6066 9.41501 26.506C9.30158 23.3677 10.4359 20.3049 12.5156 18.074C17.0908 13.1963 24.3128 13.5366 28.1696 16.9018L28.4721 17.1665L28.1696 17.469C27.9428 17.6959 27.7159 17.9228 27.489 18.1118C26.884 18.5656 26.2412 19.2084 25.5606 19.7755ZM38.0385 14.7844C37.7738 15.0491 37.3201 15.0869 37.0176 15.0869C36.9041 15.0869 36.7907 15.0869 36.7151 15.0869C36.2992 15.0491 35.8454 14.9356 35.4295 14.8222C35.2404 14.7844 35.0136 14.7088 34.7867 14.671L34.1439 14.5197L35.127 13.4988C35.4673 13.1207 35.8076 12.7804 36.1479 12.4401C36.7529 11.7973 37.3957 11.1923 38.0007 10.5873L38.7191 9.86886C40.156 8.43202 40.8366 8.35639 42.8784 9.26387L43.37 9.49075L41.8197 11.041C40.6097 12.2888 39.3241 13.5744 38.0385 14.7844Z" fill="#1DAD8C"/>
</g>
<defs>
<clipPath id="clip0_508_380">
<rect width="47" height="47" fill="white"/>
</clipPath>
</defs>
</svg>
