<svg width="58" height="42" viewBox="0 0 58 42" fill="none" xmlns="http://www.w3.org/2000/svg">
<g clip-path="url(#clip0_508_371)">
<path d="M0 17.0574C0 14.5321 0 12.0069 0 9.50549C0 6.64672 3.1175 4.81235 5.67917 6.14644C8.7 7.71876 11.7208 9.3149 14.7175 10.911C15.0317 11.0778 15.2492 11.0778 15.5875 10.8872C19.2608 8.93373 22.8617 9.07667 26.3658 11.2922C26.6317 11.459 26.8008 11.5781 27.1392 11.3637C32.1175 8.1714 37.2167 8.21904 42.3883 10.8396C42.775 11.0302 43.0408 11.0302 43.4275 10.8396C46.3517 9.29108 49.2517 7.74258 52.2 6.21791C54.4958 5.02676 57.1058 6.05115 57.8308 8.36198C57.9517 8.74315 58.0242 9.12432 58.0242 9.52931C58.0242 14.5798 58.0242 19.6541 58.0242 24.7046C58.0242 26.7772 56.4533 28.421 54.3508 28.5163C52.9008 28.5877 51.4508 28.5401 50.0008 28.5401C49.6383 28.5401 49.3725 28.6354 49.0825 28.8736C47.1492 30.6365 44.8775 31.2797 42.2917 30.6603C41.9775 30.5889 41.7842 30.6365 41.5667 30.8747C37.7967 35.0438 33.205 37.8072 27.5983 38.8316C27.3083 38.8793 27.2117 39.046 27.0667 39.2604C26.6558 39.9751 26.2933 40.7375 25.5683 41.2616C23.4658 42.7863 20.3483 41.8333 19.5508 39.3796C19.43 39.0222 19.3333 38.9507 18.9467 39.046C16.9167 39.4749 14.8142 38.0693 14.4275 35.9967C14.355 35.5917 14.2342 35.5679 13.8717 35.5441C11.6483 35.4964 9.66667 33.6382 9.69083 31.6609C9.69083 31.3274 9.715 30.9939 9.88417 30.7318C10.15 30.2792 9.88417 30.0409 9.66667 29.6836C9.08667 28.7068 8.28917 28.421 7.1775 28.5163C5.96917 28.6116 4.7125 28.5639 3.50417 28.4924C1.54667 28.3495 0.0483333 26.7295 0.0483333 24.7999C0 22.227 0 19.6303 0 17.0574ZM25.2058 12.8407C23.0792 11.2207 19.14 10.9825 16.82 12.3404C16.5542 12.4834 16.5058 12.6501 16.5542 12.9122C16.7475 13.7936 16.7475 14.6989 16.6267 15.5804C15.9258 20.1067 14.065 24.109 10.6575 27.3013C10.1258 27.8016 10.7783 27.9445 10.8992 28.2304C11.0442 28.5639 11.2375 28.5163 11.5033 28.278C11.7933 28.016 12.1558 27.873 12.5183 27.7539C14.1617 27.1822 16.0708 28.2304 17.1342 29.493C17.3033 29.7074 17.3758 29.7789 17.6417 29.6121C18.9708 28.7783 20.3483 28.826 21.6775 29.6121C23.0067 30.3983 23.6833 31.5894 23.5383 33.1379C23.5142 33.4953 23.5867 33.5667 23.925 33.5906C25.665 33.6859 26.9942 34.8055 27.4292 36.497C27.5017 36.8067 27.5742 36.9258 27.9367 36.8305C28.6617 36.5923 29.4108 36.4493 30.1358 36.2111C34.22 34.8294 37.6758 32.5185 40.4308 29.231C40.6242 29.0165 40.9142 28.8498 40.7208 28.421C38.9567 24.4187 36.2742 21.2026 32.6733 18.6774C32.4317 18.5106 32.335 18.5344 32.19 18.7726C31.755 19.4873 31.3442 20.2258 30.8608 20.8929C29.6283 22.6082 28.0333 23.7755 25.81 24.0137C23.5383 24.2519 21.3875 22.5843 21.1942 20.3688C21.0492 18.8679 21.7017 17.5577 22.4508 16.295C23.2242 15.0324 24.1908 13.9127 25.2058 12.8407ZM1.93333 17.0812C1.93333 19.535 1.93333 21.9649 1.93333 24.4187C1.93333 25.9196 2.65833 26.6581 4.18083 26.6581C5.34083 26.6581 6.525 26.6342 7.685 26.6819C8.28917 26.7057 8.72417 26.5151 9.135 26.134C11.1408 24.3472 12.5183 22.1317 13.5575 19.6779C14.355 17.7959 14.8867 15.8662 14.7417 13.7936C14.7175 13.341 14.645 12.9836 14.1617 12.7454C11.0925 11.1493 8.02333 9.52931 4.95417 7.93317C3.4075 7.09936 1.93333 7.98081 1.93333 9.71989C1.93333 12.1737 1.93333 14.6274 1.93333 17.0812ZM56.0667 17.1289C56.0667 14.6989 55.9942 12.2451 56.0908 9.81518C56.1633 8.12375 54.4475 7.09936 52.9492 7.93317C50.025 9.57695 47.0042 11.1016 43.9833 12.6501C43.4275 12.936 43.2825 13.2933 43.2342 13.8651C43.1133 16.1521 43.7658 18.2485 44.7083 20.2973C45.7233 22.5129 47.0283 24.5378 48.9133 26.1816C49.3 26.5151 49.6867 26.6819 50.2183 26.6581C51.4508 26.6342 52.6833 26.6581 53.8917 26.6342C55.2933 26.6342 56.0425 25.8719 56.0425 24.4902C56.0667 22.0364 56.0667 19.5826 56.0667 17.1289ZM36.54 19.2491C36.5883 19.3206 36.6125 19.3682 36.6608 19.4159C39.44 22.0364 41.5908 25.0381 42.92 28.6116C42.9925 28.8021 43.0892 28.9451 43.3308 28.9689C44.8292 29.1118 46.2067 28.7783 47.3908 27.8254C47.56 27.6825 47.6567 27.5872 47.415 27.3728C44.7083 24.9905 43.1133 21.9411 42.0258 18.5821C41.4217 16.7239 41.0833 14.818 41.4458 12.8407C41.4942 12.5072 41.3492 12.3881 41.0833 12.269C38.6908 11.054 36.1533 10.5537 33.495 10.9825C28.42 11.7687 24.9642 14.556 23.2725 19.3444C22.7892 20.7023 23.6833 21.9649 25.1575 22.084C26.245 22.1793 27.2117 21.8458 28.0575 21.1549C28.9517 20.4403 29.5558 19.5112 30.1358 18.5582C30.4983 17.9388 30.8367 17.2956 31.2233 16.7C31.7792 15.8424 32.4558 15.7471 33.2292 16.3903C33.6883 16.7715 34.1958 17.0336 34.7758 17.1765C35.8392 17.4386 36.8783 17.3671 37.8933 16.9144C38.425 16.6762 38.9083 16.8192 39.1742 17.248C39.44 17.7006 39.3192 18.2009 38.86 18.5582C38.57 18.7726 38.2317 18.8918 37.8692 18.9871C37.41 19.0585 36.975 19.1538 36.54 19.2491ZM19.72 30.97C19.0917 30.97 18.5117 31.1844 18.1975 31.6609C17.5933 32.6138 16.9892 33.5667 16.4575 34.5673C15.9983 35.4249 16.4092 36.4732 17.2308 36.9258C18.125 37.4261 19.2125 37.2355 19.7683 36.4255C20.3725 35.5202 20.9525 34.5911 21.4358 33.6144C22.0642 32.3994 21.1217 30.97 19.72 30.97ZM25.6408 37.5928C25.6408 36.6399 25.1575 35.949 24.3842 35.6632C23.635 35.3535 22.8858 35.4964 22.33 36.0682C21.9192 36.497 21.6292 37.0449 21.3875 37.5928C21.0733 38.3552 21.2908 39.1175 21.9675 39.6654C22.5958 40.1895 23.5383 40.3087 24.1667 39.8798C25.0367 39.2604 25.4717 38.379 25.6408 37.5928ZM13.8475 33.6382C14.7175 33.6382 15.805 32.4232 15.8292 31.4227C15.8292 30.565 14.5725 29.5168 13.5333 29.5168C12.6875 29.5168 11.6242 30.7318 11.6 31.7085C11.5758 32.59 12.8083 33.6382 13.8475 33.6382Z" fill="#1DAD8C"/>
<path d="M23.2242 5.45562C23.2242 6.17031 22.9583 6.45619 22.4992 6.5753C22.0158 6.6706 21.5567 6.55148 21.4117 6.07502C21.025 4.76475 20.6383 3.43066 20.3242 2.07275C20.2033 1.62011 20.5175 1.26277 20.9525 1.11983C21.4117 0.976892 21.9192 1.04836 22.0883 1.52482C22.5233 2.90656 22.8858 4.28829 23.2242 5.45562Z" fill="#1DAD8C"/>
<path d="M35.7668 2.16809C35.6943 2.47779 35.5734 2.93043 35.4526 3.35924C35.2351 4.19305 35.0176 5.02685 34.7759 5.86066C34.6068 6.43241 34.1234 6.69446 33.5676 6.57535C33.0601 6.45623 32.7459 5.95595 32.8909 5.43184C33.2051 4.21687 33.5434 3.00189 33.8818 1.78692C34.0509 1.21517 34.4618 0.976937 35.0176 1.09605C35.5493 1.21517 35.8151 1.52487 35.7668 2.16809Z" fill="#1DAD8C"/>
<path d="M27.0667 2.83504C27.0667 2.21564 27.0667 1.59625 27.0667 1.00067C27.0908 0.381271 27.4292 0.0239258 28.0333 0.0239258C28.6133 0.0239258 29 0.381271 29 1.00067C29.0242 2.23947 29.0242 3.45444 29 4.69324C29 5.31264 28.6133 5.69381 28.0333 5.69381C27.4775 5.69381 27.0908 5.31264 27.0667 4.69324C27.0667 4.05002 27.0667 3.43062 27.0667 2.83504Z" fill="#1DAD8C"/>
</g>
<defs>
<clipPath id="clip0_508_371">
<rect width="58" height="42" fill="white"/>
</clipPath>
</defs>
</svg>
