<svg width="49" height="39" viewBox="0 0 49 39" fill="none" xmlns="http://www.w3.org/2000/svg">
<g clip-path="url(#clip0_583_353)">
<path d="M24.5 38.9811C17.6668 38.9811 10.8527 38.9811 4.01953 38.9811C1.9332 38.9811 0.401953 37.7126 0.0382813 35.6869C0 35.4976 0 35.2893 0 35.0811C0 24.6874 0 14.2937 0 3.9C0 1.70388 1.64609 0.0189275 3.88555 0.0189275C7.98164 -4.4927e-06 12.0777 0.0189275 16.1738 0.0189275C16.5758 0.0189275 16.8629 0.170384 17.15 0.435432C18.4516 1.74174 19.7723 3.01019 21.0738 4.33543C21.3801 4.65728 21.6863 4.7898 22.1457 4.7898C29.7062 4.77087 37.2668 4.7898 44.8273 4.77087C46.3777 4.77087 47.6219 5.30097 48.4641 6.62621C48.8277 7.2131 49.0191 7.85679 49.0191 8.55728C49.0191 17.4364 49.0191 26.3155 49.0191 35.1947C49.0191 37.334 47.3156 38.9811 45.0953 39C42.3199 39.0189 39.5445 39 36.7691 39C32.673 38.9811 28.577 38.9811 24.5 38.9811ZM24.5574 11.416C17.7242 11.416 10.9102 11.416 4.07695 11.416C2.66055 11.416 1.91406 12.1544 1.91406 13.5364C1.91406 20.6738 1.91406 27.8301 1.91406 34.9675C1.91406 36.2738 2.69883 37.0689 4.01953 37.0689C17.6668 37.0689 31.3332 37.0689 44.9805 37.0689C46.3012 37.0689 47.0859 36.2738 47.0859 34.9675C47.0859 27.8112 47.0859 20.6359 47.0859 13.4796C47.0859 13.2714 47.0859 13.0631 47.0285 12.8738C46.7797 11.8893 46.0715 11.3971 44.8848 11.3971C38.109 11.416 31.3332 11.416 24.5574 11.416ZM1.91406 10.015C3.10078 9.33349 4.36406 9.52281 5.58906 9.52281C18.2984 9.52281 31.0078 9.52281 43.7172 9.52281C44.8465 9.52281 45.9758 9.39029 47.0668 10.015C47.0668 9.40922 47.1051 8.87912 47.0668 8.34902C46.9902 7.51601 46.3203 6.83446 45.4781 6.70194C45.2293 6.66407 44.9805 6.64514 44.7125 6.64514C37.0371 6.64514 29.3809 6.62621 21.7055 6.66407C21.0164 6.66407 20.5187 6.47475 20.0402 5.96359C18.7961 4.67621 17.4945 3.42669 16.2313 2.17718C16.0781 2.02572 15.925 1.8932 15.657 1.8932C11.7332 1.8932 7.80937 1.8932 3.88555 1.91213C2.90937 1.91213 2.16289 2.53689 1.95234 3.44563C1.9332 3.50242 1.91406 3.57815 1.91406 3.63495C1.91406 5.7364 1.91406 7.83786 1.91406 10.015Z" fill="#1DAD8C"/>
<path d="M13.9531 24.2709C13.9531 18.2315 18.8531 13.3471 24.9398 13.3471C31.084 13.3471 36.0031 18.1937 36.0031 24.2519C36.0031 30.2913 31.0457 35.2136 24.959 35.1946C18.8723 35.1757 13.9531 30.2913 13.9531 24.2709ZM24.0211 20.1815C24.0211 20.6927 24.0211 21.1849 24.0211 21.6961C24.0211 22.3966 24.3656 22.8131 24.959 22.8131C25.5523 22.8131 25.9352 22.3966 25.9352 21.715C25.9352 20.7306 25.9352 19.765 25.9352 18.7806C25.9352 17.6446 26.6051 17.2471 27.6195 17.7772C30.682 19.3485 31.6773 23.2107 29.7441 26.0315C29.5145 26.3534 29.2848 26.6752 29.0742 27.016C28.0789 28.6063 27.7727 30.367 27.8492 32.2223C27.8684 32.8471 27.8492 32.8471 28.4617 32.601C32.3664 31.0296 34.625 27.016 33.9934 22.8131C33.2277 17.8529 28.2703 14.3505 23.332 15.3539C19.8484 16.0544 17.4367 18.099 16.3266 21.4311C15.2355 24.7442 15.9437 27.7733 18.3172 30.3859C19.2551 31.4272 20.4035 32.1655 21.7242 32.6578C21.8773 32.7146 22.107 32.9228 22.107 32.5252C22.107 31.5976 22.1453 30.6699 21.973 29.7422C21.7051 28.3413 21.0352 27.1296 20.2121 25.9558C18.2215 23.0781 19.3699 19.0267 22.5473 17.6257C23.332 17.2849 24.002 17.6825 24.0211 18.5345C24.0211 19.1213 24.0211 19.6514 24.0211 20.1815ZM27.8492 20.3709C27.8492 20.9388 27.8492 21.4311 27.8492 21.9233C27.8492 22.6238 27.6004 23.2485 27.1219 23.7786C26.3371 24.6684 25.093 24.9713 23.9828 24.5548C22.8535 24.1383 22.107 23.116 22.107 21.9044C22.107 21.4121 22.107 20.9199 22.107 20.3519C20.9012 21.6961 20.7863 23.6082 21.8391 25.0281C23.3895 27.1107 24.0977 29.4204 24.0211 32.0141C23.9828 33.434 24.0211 33.415 25.4566 33.3014C25.8203 33.2636 25.9734 33.1689 25.9543 32.7713C25.916 31.5976 25.916 30.4048 26.1648 29.25C26.4902 27.7354 27.141 26.3723 28.0598 25.1228C29.1316 23.6272 29.0551 21.6014 27.8492 20.3709Z" fill="#1DAD8C"/>
</g>
<defs>
<clipPath id="clip0_583_353">
<rect width="49" height="39" fill="white"/>
</clipPath>
</defs>
</svg>
