<svg width="49" height="39" viewBox="0 0 49 39" fill="none" xmlns="http://www.w3.org/2000/svg">
<g clip-path="url(#clip0_585_440)">
<path d="M24.5 38.981C17.6668 38.981 10.8527 38.981 4.01953 38.981C1.9332 38.981 0.401953 37.7126 0.0382813 35.6869C0 35.4976 0 35.2893 0 35.081C0 24.6874 0 14.2937 0 3.89998C0 1.70386 1.64609 0.0189123 3.88555 0.0189123C7.98164 -1.97515e-05 12.0777 0.0189123 16.1738 0.0189123C16.5758 0.0189123 16.8629 0.170369 17.15 0.435417C18.4516 1.74173 19.7723 3.01017 21.0738 4.33542C21.3801 4.65726 21.6863 4.78979 22.1457 4.78979C29.7062 4.77085 37.2668 4.78979 44.8273 4.77085C46.3777 4.77085 47.6219 5.30095 48.4641 6.62619C48.8277 7.21309 49.0191 7.85678 49.0191 8.55726C49.0191 17.4364 49.0191 26.3155 49.0191 35.1946C49.0191 37.334 47.3156 38.981 45.0953 39C42.3199 39.0189 39.5445 39 36.7691 39C32.673 38.981 28.577 38.981 24.5 38.981ZM24.5574 11.416C17.7242 11.416 10.9102 11.416 4.07695 11.416C2.66055 11.416 1.91406 12.1543 1.91406 13.5364C1.91406 20.6738 1.91406 27.8301 1.91406 34.9675C1.91406 36.2738 2.69883 37.0689 4.01953 37.0689C17.6668 37.0689 31.3332 37.0689 44.9805 37.0689C46.3012 37.0689 47.0859 36.2738 47.0859 34.9675C47.0859 27.8111 47.0859 20.6359 47.0859 13.4796C47.0859 13.2713 47.0859 13.0631 47.0285 12.8738C46.7797 11.8893 46.0715 11.3971 44.8848 11.3971C38.109 11.416 31.3332 11.416 24.5574 11.416ZM1.91406 10.015C3.10078 9.33347 4.36406 9.52279 5.58906 9.52279C18.2984 9.52279 31.0078 9.52279 43.7172 9.52279C44.8465 9.52279 45.9758 9.39027 47.0668 10.015C47.0668 9.4092 47.1051 8.8791 47.0668 8.34901C46.9902 7.516 46.3203 6.83445 45.4781 6.70192C45.2293 6.66406 44.9805 6.64512 44.7125 6.64512C37.0371 6.64512 29.3809 6.62619 21.7055 6.66406C21.0164 6.66406 20.5187 6.47474 20.0402 5.96357C18.7961 4.67619 17.4945 3.42668 16.2313 2.17716C16.0781 2.02571 15.925 1.89318 15.657 1.89318C11.7332 1.89318 7.80937 1.89318 3.88555 1.91212C2.90937 1.91212 2.16289 2.53687 1.95234 3.44561C1.9332 3.50241 1.91406 3.57814 1.91406 3.63493C1.91406 5.73639 1.91406 7.83784 1.91406 10.015Z" fill="#1DAD8C"/>
<path d="M13.9536 24.2708C13.9536 18.2315 18.8536 13.347 24.9403 13.347C31.0845 13.347 36.0036 18.1936 36.0036 24.2519C36.0036 30.2912 31.0462 35.2135 24.9595 35.1946C18.8728 35.1757 13.9536 30.2912 13.9536 24.2708ZM24.0216 20.1815C24.0216 20.6927 24.0216 21.1849 24.0216 21.6961C24.0216 22.3966 24.3661 22.8131 24.9595 22.8131C25.5528 22.8131 25.9356 22.3966 25.9356 21.715C25.9356 20.7305 25.9356 19.765 25.9356 18.7805C25.9356 17.6446 26.6056 17.247 27.62 17.7771C30.6825 19.3485 31.6778 23.2106 29.7446 26.0315C29.5149 26.3534 29.2853 26.6752 29.0747 27.016C28.0794 28.6063 27.7731 30.3669 27.8497 32.2223C27.8688 32.847 27.8497 32.847 28.4622 32.6009C32.3669 31.0296 34.6255 27.016 33.9938 22.8131C33.2282 17.8529 28.2708 14.3504 23.3325 15.3538C19.8489 16.0543 17.4372 18.099 16.3271 21.431C15.236 24.7441 15.9442 27.7733 18.3177 30.3859C19.2556 31.4271 20.404 32.1655 21.7247 32.6577C21.8778 32.7145 22.1075 32.9228 22.1075 32.5252C22.1075 31.5975 22.1458 30.6699 21.9735 29.7422C21.7056 28.3412 21.0356 27.1296 20.2126 25.9558C18.222 23.0781 19.3704 19.0267 22.5478 17.6257C23.3325 17.2849 24.0024 17.6825 24.0216 18.5344C24.0216 19.1213 24.0216 19.6514 24.0216 20.1815ZM27.8497 20.3708C27.8497 20.9388 27.8497 21.431 27.8497 21.9233C27.8497 22.6237 27.6009 23.2485 27.1224 23.7786C26.3376 24.6684 25.0935 24.9713 23.9833 24.5548C22.854 24.1383 22.1075 23.116 22.1075 21.9043C22.1075 21.4121 22.1075 20.9199 22.1075 20.3519C20.9017 21.6961 20.7868 23.6082 21.8396 25.0281C23.3899 27.1106 24.0981 29.4203 24.0216 32.014C23.9833 33.4339 24.0216 33.415 25.4571 33.3014C25.8208 33.2635 25.9739 33.1689 25.9548 32.7713C25.9165 31.5975 25.9165 30.4048 26.1653 29.25C26.4907 27.7354 27.1415 26.3723 28.0603 25.1228C29.1321 23.6271 29.0556 21.6014 27.8497 20.3708Z" fill="#1DAD8C"/>
</g>
<defs>
<clipPath id="clip0_585_440">
<rect width="49" height="39" fill="white"/>
</clipPath>
</defs>
</svg>
