<svg width="46" height="48" viewBox="0 0 46 48" fill="none" xmlns="http://www.w3.org/2000/svg">
<g clip-path="url(#clip0_261_106)">
<path d="M4.3685 4.3671C4.3685 3.2238 4.3685 2.15546 4.3685 1.10587C4.3685 0.243711 4.59445 0.0187988 5.44177 0.0187988C13.0488 0.0187988 20.6558 0.0187988 28.2629 0.0187988C28.696 0.0187988 28.9972 0.149998 29.2985 0.44988C30.6542 1.8181 32.0099 3.18631 33.3845 4.51704C33.7046 4.83567 33.8175 5.15429 33.8175 5.58537C33.7987 10.5897 33.8175 15.6127 33.7987 20.617C33.7987 20.9731 33.8929 21.2168 34.1376 21.4792C37.4139 24.9653 38.0353 30.2695 35.6628 34.4304C35.4745 34.749 35.4745 34.9177 35.757 35.1801C36.3595 35.7236 36.9432 36.3046 37.5269 36.8669C37.6964 37.0356 37.8282 37.1106 38.0918 37.0356C38.732 36.8482 39.2969 37.0356 39.7676 37.4854C41.6317 39.2847 43.5146 41.084 45.3787 42.902C46.1507 43.6518 46.1696 44.6264 45.4352 45.3948C44.7762 46.0883 44.1172 46.7818 43.4393 47.4378C42.7238 48.15 41.7258 48.1687 40.9915 47.4753C39.0897 45.6572 37.2068 43.8204 35.3239 42.0024C34.8531 41.5526 34.6837 41.009 34.8343 40.3718C34.8908 40.1281 34.8343 39.9782 34.6649 39.8095C34.0058 39.191 33.3468 38.5537 32.7254 37.954C31.6333 38.535 30.5789 39.0785 29.4303 39.6783C29.4303 40.0344 29.4303 40.4842 29.4303 40.9341C29.4303 41.6838 29.1855 41.9274 28.4512 41.9274C27.2838 41.9274 26.0975 41.9274 24.9301 41.9274C17.0218 41.9274 9.11348 41.9274 1.20517 41.9274C1.03571 41.9274 0.866246 41.9274 0.696783 41.9087C0.263709 41.8712 0.0189276 41.6275 -0.018731 41.1777C-0.0375603 40.9528 -0.018731 40.7466 -0.018731 40.5217C9.82806e-05 28.8825 9.82825e-05 17.2058 9.82825e-05 5.54789C9.82825e-05 4.53578 0.169562 4.3671 1.16752 4.3671C2.22196 4.3671 3.25757 4.3671 4.3685 4.3671ZM1.52527 40.4468C1.77005 40.4468 1.93952 40.4468 2.12781 40.4468C9.71602 40.4468 17.3231 40.4468 24.9113 40.4468C25.7963 40.4468 26.7001 40.4468 27.585 40.4468C27.9051 40.4468 28.0181 40.3343 27.8675 39.9969C24.4782 40.4842 21.409 39.7345 18.7729 37.5229C16.1368 35.3113 14.7999 32.4624 14.7811 29.0325C14.7623 26.0336 15.8167 23.4284 17.9256 21.2917C20.6747 18.4991 24.0263 17.5057 27.9051 18.0305C27.9051 15.4815 27.9051 12.9512 27.9051 10.3835C27.7168 10.3835 27.5474 10.3835 27.3779 10.3835C26.4176 10.3835 25.4573 10.3835 24.5159 10.3835C23.6309 10.3835 23.4238 10.1773 23.4238 9.27768C23.4238 8.43426 23.4238 7.59084 23.4238 6.74742C23.4238 6.46628 23.4238 6.20388 23.4238 5.904C16.0803 5.904 8.81221 5.904 1.52527 5.904C1.52527 17.412 1.52527 28.8825 1.52527 40.4468ZM5.89367 4.3671C6.11962 4.3671 6.30792 4.3671 6.51504 4.3671C12.2768 4.3671 18.0386 4.3671 23.7815 4.3671C24.2711 4.3671 24.6477 4.51704 24.9866 4.85441C26.3046 6.20388 27.6415 7.51587 28.9784 8.82786C29.3362 9.16523 29.468 9.54008 29.468 10.0274C29.4491 12.6889 29.468 15.3691 29.4491 18.0305C29.4491 18.3117 29.5245 18.4429 29.8069 18.5741C30.5412 18.8927 31.2567 19.2863 31.9911 19.6611C32.0852 19.6986 32.1794 19.7548 32.2735 19.7923C32.2735 15.1816 32.2735 10.6084 32.2735 5.99771C32.0664 5.99771 31.9158 5.99771 31.7463 5.99771C30.7107 5.99771 29.6751 5.99771 28.6395 5.99771C28.0746 5.99771 27.7922 5.71657 27.7922 5.15429C27.7733 4.51704 27.7922 3.87979 27.7922 3.24254C27.7922 2.68026 27.7922 2.09924 27.7922 1.51821C20.4676 1.51821 13.1806 1.51821 5.89367 1.51821C5.89367 2.47409 5.89367 3.39248 5.89367 4.3671ZM35.6251 29.0137C35.6251 23.7095 31.3132 19.4175 26.0034 19.3987C20.6558 19.3987 16.3063 23.6908 16.3063 28.995C16.3063 34.3179 20.6182 38.6287 25.9657 38.6287C31.3132 38.6287 35.6251 34.3366 35.6251 29.0137ZM44.4938 44.1765C44.3996 44.0641 44.3243 43.9516 44.2301 43.8579C42.4602 42.1336 40.6714 40.428 38.9015 38.7037C38.6567 38.4788 38.506 38.4225 38.2613 38.7037C37.6964 39.3035 37.1127 39.9032 36.529 40.4842C36.2842 40.7279 36.3218 40.8778 36.5478 41.1027C38.3554 42.8271 40.163 44.5701 41.9518 46.3132C42.1589 46.5006 42.2907 46.5381 42.4978 46.332C43.1004 45.6947 43.7218 45.0762 44.3243 44.4389C44.3808 44.364 44.4184 44.2703 44.4938 44.1765ZM34.6084 36.0797C34.3259 36.3796 34.1 36.642 33.9305 36.8107C34.5895 37.5416 35.2297 38.2351 35.8888 38.9661C36.1712 38.6662 36.416 38.4225 36.5854 38.2351C35.9264 37.4854 35.2862 36.7919 34.6084 36.0797ZM29.3173 4.47956C29.9575 4.47956 30.5412 4.47956 30.9743 4.47956C30.4471 3.95476 29.8446 3.37374 29.3173 2.84894C29.3173 3.29877 29.3173 3.86105 29.3173 4.47956ZM24.9678 8.8466C25.608 8.8466 26.1917 8.8466 26.6059 8.8466C26.0787 8.32181 25.495 7.74078 24.9678 7.21599C24.9678 7.66581 24.9678 8.24684 24.9678 8.8466Z" fill="#1DAD8C"/>
<path d="M8.90616 10.6833C9.67816 10.6833 10.4502 10.6833 11.2033 10.6833C11.8059 10.6833 12.0695 10.9457 12.0695 11.5455C12.0695 13.0824 12.0695 14.638 12.0695 16.1749C12.0695 16.7559 11.787 17.0371 11.2033 17.0371C9.65933 17.0558 8.13416 17.0558 6.59015 17.0371C5.96879 17.0371 5.68635 16.7559 5.68635 16.1374C5.66752 14.6005 5.68635 13.0824 5.68635 11.5455C5.68635 10.9269 5.96879 10.6833 6.59015 10.6646C7.38098 10.6833 8.13416 10.6833 8.90616 10.6833ZM10.5631 12.2202C9.43338 12.2202 8.34128 12.2202 7.21152 12.2202C7.21152 13.2698 7.21152 14.2819 7.21152 15.294C7.21152 15.3877 7.34333 15.5376 7.39981 15.5376C8.43543 15.5564 9.48987 15.5564 10.5443 15.5564C10.5631 14.3943 10.5631 13.326 10.5631 12.2202Z" fill="#1DAD8C"/>
<path d="M10.9776 21.8914C9.58422 21.8914 8.19086 21.8914 6.79749 21.8914C6.62802 21.8914 6.45856 21.8914 6.2891 21.854C5.91251 21.779 5.72422 21.5166 5.70539 21.1605C5.68656 20.8044 5.87485 20.5232 6.25144 20.4295C6.43973 20.392 6.62802 20.3733 6.81632 20.3733C9.62188 20.3733 12.4275 20.3733 15.233 20.3733C15.4025 20.3733 15.5719 20.3733 15.7414 20.4108C16.1368 20.5045 16.3251 20.7669 16.3251 21.1605C16.3063 21.5541 16.0803 21.7977 15.7038 21.854C15.5531 21.8727 15.3837 21.8727 15.233 21.8727C13.802 21.8914 12.3898 21.8914 10.9776 21.8914Z" fill="#1DAD8C"/>
<path d="M10.5633 34.9551C11.8813 34.9551 13.1994 34.9551 14.5174 34.9551C15.1576 34.9551 15.4777 35.2362 15.4777 35.7235C15.4589 36.1921 15.1388 36.4545 14.5174 36.4545C11.8625 36.4545 9.22638 36.4545 6.57145 36.4545C6.04423 36.4545 5.68647 36.1359 5.7053 35.686C5.72413 35.255 6.04423 34.9738 6.57145 34.9551C6.68442 34.9551 6.7974 34.9551 6.89155 34.9551C8.11545 34.9551 9.33936 34.9551 10.5633 34.9551Z" fill="#1DAD8C"/>
<path d="M19.1116 15.5377C20.3732 15.5377 21.6536 15.5377 22.9151 15.5377C23.4989 15.5377 23.8754 15.9875 23.706 16.4749C23.5742 16.9247 23.2164 17.0371 22.7833 17.0371C21.3335 17.0371 19.9025 17.0371 18.4526 17.0371C17.417 17.0371 16.3814 17.0371 15.3458 17.0371C14.9503 17.0371 14.5926 16.8684 14.5361 16.4749C14.4984 16.2312 14.6491 15.9126 14.8185 15.7064C14.9315 15.5752 15.214 15.5565 15.4211 15.5565C16.6638 15.5377 17.8877 15.5377 19.1116 15.5377Z" fill="#1DAD8C"/>
<path d="M9.84778 26.727C8.77451 26.727 7.68241 26.727 6.60914 26.727C6.04426 26.727 5.70533 26.4459 5.6865 26.0148C5.66767 25.565 6.02543 25.2463 6.60914 25.2463C8.77451 25.2463 10.9399 25.2463 13.0864 25.2463C13.6701 25.2463 14.0279 25.5462 14.0279 26.0148C14.0279 26.4834 13.689 26.7458 13.0864 26.7458C12.0131 26.727 10.9399 26.727 9.84778 26.727Z" fill="#1DAD8C"/>
<path d="M9.73479 31.6001C8.68035 31.6001 7.62591 31.6001 6.5903 31.6001C6.04425 31.6001 5.70532 31.3002 5.70532 30.8504C5.70532 30.4006 6.06308 30.1007 6.60913 30.1007C8.71801 30.1007 10.8457 30.1007 12.9546 30.1007C13.5007 30.1007 13.8396 30.4193 13.8396 30.8504C13.8396 31.3002 13.5007 31.5814 12.9358 31.6001C11.8625 31.6001 10.8081 31.6001 9.73479 31.6001Z" fill="#1DAD8C"/>
<path d="M18.1514 10.6833C19.0552 10.6833 19.9778 10.6833 20.8816 10.6833C21.4277 10.6833 21.7666 11.002 21.7666 11.4518C21.7478 11.8829 21.4088 12.1828 20.9005 12.1828C19.074 12.1828 17.2287 12.1828 15.4023 12.1828C14.8562 12.1828 14.5173 11.8829 14.5361 11.4143C14.5361 10.9645 14.8562 10.6833 15.3835 10.6833C16.2873 10.6833 17.2287 10.6833 18.1514 10.6833Z" fill="#1DAD8C"/>
<path d="M25.9655 37.073C21.4841 37.073 17.8689 33.4557 17.8689 28.9949C17.8877 24.5529 21.4841 20.973 25.9467 20.9543C30.4092 20.9356 34.0809 24.5904 34.0433 29.0324C34.0433 33.4744 30.4092 37.073 25.9655 37.073ZM25.9467 22.4537C22.3126 22.4537 19.3752 25.3963 19.3752 29.0136C19.3752 32.631 22.3503 35.5736 25.9655 35.5548C29.5996 35.5361 32.5558 32.5935 32.5369 28.9762C32.5369 25.3776 29.5807 22.4537 25.9467 22.4537Z" fill="#1DAD8C"/>
</g>
<defs>
<clipPath id="clip0_261_106">
<rect width="46" height="48" fill="white"/>
</clipPath>
</defs>
</svg>
