<svg width="39" height="47" viewBox="0 0 39 47" fill="none" xmlns="http://www.w3.org/2000/svg">
<path d="M21.0316 0.0119792C21.8143 0.131771 22.609 0.227604 23.3796 0.383333C28.0273 1.30573 31.0977 4.49219 31.7599 9.17604C31.9285 10.374 31.9044 11.5839 31.9406 12.7937C31.9526 13.0573 32.0008 13.213 32.2295 13.3687C32.8797 13.812 33.2169 14.4469 33.2169 15.2375C33.2169 16.1 33.2289 16.9745 33.2169 17.837C33.2048 19.1187 32.2055 20.113 30.9291 20.125C30.002 20.137 29.0749 20.125 28.1236 20.125C27.7143 22.3172 26.4861 23.9464 24.8606 25.3359C24.6198 25.5396 24.5235 25.7552 24.5355 26.0667C24.5596 27.025 24.5475 27.9833 24.5475 29.0016C25.3181 29.2172 26.0888 29.4448 26.8594 29.6604C29.111 30.2953 31.3626 30.9062 33.6142 31.5531C36.0224 32.2359 37.7442 34.3562 38.0091 36.824C38.2981 39.4953 38.6473 42.1667 38.9603 44.838C38.9724 44.9698 38.9844 45.1016 38.9844 45.2453C38.9844 45.6766 38.7195 45.976 38.3222 46C37.9128 46.024 37.5997 45.7844 37.5515 45.3531C37.4191 44.3708 37.3107 43.3885 37.1903 42.4182C36.9495 40.4776 36.7689 38.525 36.4679 36.5844C36.203 34.8833 35.1916 33.6615 33.5661 33.0865C31.9285 32.5115 30.2308 32.1042 28.5451 31.625C27.6661 32.9307 26.8112 34.2125 25.9563 35.4943C25.4867 36.201 25.0051 36.9198 24.5235 37.6266C24.1381 38.1896 23.7408 38.2615 23.211 37.8302C22.3441 37.1115 21.4771 36.3927 20.6102 35.674C20.5018 35.5781 20.3814 35.4943 20.2008 35.3625C20.2008 35.8297 20.2008 36.201 20.2008 36.5844C20.2008 37.7703 20.2008 38.9443 20.2008 40.1302C20.2008 40.6453 19.8998 40.9687 19.4663 40.9568C19.0449 40.9448 18.768 40.6333 18.768 40.1302C18.768 38.7047 18.768 37.2911 18.768 35.8656C18.768 35.7219 18.768 35.5781 18.768 35.3266C18.2382 35.7698 17.7806 36.1411 17.3231 36.5125C16.8053 36.9437 16.2876 37.375 15.7578 37.8062C15.228 38.2375 14.8306 38.1896 14.4453 37.6146C13.2051 35.7578 11.9649 33.901 10.7127 32.0562C10.6164 31.9245 10.5201 31.7927 10.4117 31.625C8.72599 32.1042 7.00416 32.4995 5.36662 33.0984C3.60867 33.7693 2.65745 35.1589 2.42867 37.0276C2.09153 39.7708 1.77847 42.526 1.44133 45.2693C1.38113 45.7844 1.09215 46.0359 0.658681 46.012C0.213173 45.976 -0.0517237 45.6526 0.00848003 45.1135C0.189091 43.4844 0.381743 41.8432 0.586436 40.2141C0.742966 38.9083 0.839292 37.5906 1.09215 36.2969C1.57378 33.8651 3.05479 32.2599 5.43886 31.5531C8.3166 30.7026 11.2184 29.924 14.1082 29.1094C14.2166 29.0734 14.3249 29.0375 14.4574 28.9896C14.4574 27.9354 14.4694 26.8812 14.4453 25.8391C14.4453 25.6714 14.2768 25.4677 14.1323 25.3479C13.1449 24.4974 12.278 23.5391 11.676 22.3891C11.3268 21.7062 11.098 20.9635 10.7729 20.137C10.4237 20.137 9.95414 20.137 9.47251 20.137C8.99088 20.137 8.50925 20.137 8.02762 20.137C6.79946 20.113 5.80008 19.1187 5.78804 17.8969C5.776 17.0104 5.78804 16.1359 5.78804 15.2495C5.78804 14.4708 6.1011 13.8479 6.73926 13.4167C7.02824 13.225 7.0764 13.0214 7.05232 12.7099C6.90783 10.5656 7.16069 8.46927 7.96742 6.45677C9.30394 3.17448 11.8325 1.28177 15.228 0.467187C16.1311 0.251562 17.0582 0.155729 17.9733 0C18.9847 0.0119792 20.0082 0.0119792 21.0316 0.0119792ZM26.5704 20.688C26.5222 20.6521 26.4741 20.6161 26.4259 20.5922C26.2934 20.6401 26.173 20.676 26.0406 20.724C25.3783 20.9755 24.7161 21.2031 24.0659 21.4786C23.9575 21.5266 23.8492 21.7062 23.8251 21.826C23.6806 22.8203 22.9341 23.599 21.9829 23.7187C20.9835 23.8505 20.0323 23.3115 19.659 22.3891C19.2857 21.4786 19.5867 20.4484 20.3694 19.8615C21.2002 19.2505 22.2357 19.2984 23.0786 19.9573C23.211 20.0531 23.4639 20.101 23.6204 20.0531C24.5475 19.7417 25.4506 19.3823 26.3657 19.0589C26.6185 18.975 26.7149 18.8432 26.7028 18.5797C26.6908 16.9625 26.739 15.3453 26.6667 13.7281C26.6426 13.0573 26.4259 12.3745 26.161 11.7635C25.8479 11.0448 25.1857 10.6854 24.391 10.7932C23.6686 10.901 22.922 11.0328 22.2718 11.3323C20.3814 12.2068 18.5512 12.2427 16.6729 11.3323C16.1913 11.1047 15.6615 10.937 15.1437 10.8292C13.7349 10.5417 12.7958 11.1286 12.4345 12.5062C12.3141 12.9495 12.2539 13.4167 12.2539 13.8839C12.2298 15.5849 12.266 17.2979 12.2419 18.999C12.2298 20.1969 12.5549 21.275 13.2413 22.2453C14.5537 24.1141 16.3117 25.4318 18.3827 26.3422C19.1412 26.6776 19.8878 26.6536 20.6463 26.3182C22.5969 25.4557 24.2465 24.2099 25.5108 22.4969C25.9443 21.9339 26.2332 21.287 26.5704 20.688ZM10.6164 12.9255C10.6886 12.9375 10.7488 12.9495 10.8211 12.9615C10.8813 12.7219 10.9415 12.4703 11.0137 12.2307C11.5074 10.2781 12.9643 9.12812 14.7102 9.29583C15.6615 9.37969 16.5645 9.61927 17.4315 10.0385C18.8041 10.7094 20.1647 10.6974 21.5494 10.0505C22.031 9.82292 22.5488 9.63125 23.0665 9.4875C24.3549 9.1401 25.6192 9.1401 26.6908 10.0505C27.1243 10.4219 27.4494 10.913 27.8587 11.4042C27.7143 10.6854 27.6179 9.99062 27.4373 9.30781C26.739 6.63646 25.1977 4.73177 22.4404 3.98906C20.261 3.41406 18.0696 3.42604 15.9023 4.04896C14.0239 4.61198 12.6392 5.79792 11.7723 7.55885C11.2666 8.60104 10.9656 9.7151 10.8211 10.8531C10.7368 11.5479 10.6886 12.2307 10.6164 12.9255ZM9.06313 12.9375C9.30394 11.512 9.43639 10.1224 9.77353 8.78073C10.5803 5.59427 12.5309 3.41406 15.7939 2.57552C17.9853 2.0125 20.2008 2.0125 22.4043 2.47969C24.4271 2.91094 26.1249 3.89323 27.353 5.59427C28.3765 7.01979 28.8942 8.625 29.1471 10.326C29.2796 11.1766 29.3398 12.051 29.424 12.9255C29.7612 12.9255 30.0983 12.9255 30.4716 12.9255C30.4836 12.7458 30.5197 12.5781 30.5077 12.4224C30.4475 11.3922 30.4836 10.35 30.3151 9.34375C29.713 5.6901 27.7143 3.1625 24.0779 2.08437C21.2363 1.24583 18.3465 1.24583 15.4808 1.91667C13.0245 2.49167 11.0378 3.77344 9.77353 6.02552C8.9066 7.57083 8.54537 9.2599 8.47313 11.0089C8.44905 11.6437 8.47313 12.2906 8.47313 12.9375C8.75007 12.9375 8.94272 12.9375 9.06313 12.9375ZM15.9384 26.6776C15.7939 28.1031 15.6494 29.4568 17.0582 30.3432C17.2749 30.475 17.4194 30.6906 17.6 30.8703C18.2261 31.4932 18.8523 32.1161 19.5025 32.775C20.6945 31.5891 21.8504 30.4271 22.9943 29.2771C23.0424 29.2292 23.0906 29.1573 23.1026 29.0854C23.1147 28.3068 23.1026 27.5281 23.1026 26.6297C20.6704 28.4266 18.2984 28.3547 15.9384 26.6776ZM27.0761 31.2297C26.0647 30.9422 25.1135 30.6786 24.1622 30.4151C24.0659 30.3911 23.9214 30.4271 23.8492 30.487C22.7535 31.5531 21.6698 32.6312 20.562 33.7214C21.6096 34.5958 22.6331 35.4344 23.6686 36.2969C24.8365 34.5839 25.9443 32.9307 27.0761 31.2297ZM11.9168 31.2417C13.0607 32.9547 14.1804 34.6198 15.3123 36.3208C16.3719 35.4464 17.3833 34.6078 18.4068 33.7453C17.311 32.6552 16.2515 31.5891 15.1678 30.5469C15.0835 30.463 14.9029 30.4271 14.7825 30.451C13.8674 30.6906 12.9282 30.9542 11.9168 31.2417ZM10.809 14.387C9.86986 14.387 8.95476 14.363 8.03966 14.399C7.55803 14.4109 7.23293 14.7703 7.22089 15.2495C7.19681 16.112 7.19681 16.9865 7.22089 17.849C7.23293 18.3161 7.55803 18.6635 8.00354 18.6875C8.93068 18.7234 9.85782 18.6995 10.797 18.6995C10.809 17.25 10.809 15.8484 10.809 14.387ZM28.1838 18.6995C29.0989 18.6995 29.9779 18.7115 30.8449 18.6995C31.3987 18.6875 31.7599 18.3521 31.772 17.813C31.7961 16.9625 31.784 16.112 31.772 15.2615C31.7599 14.8302 31.5191 14.4589 31.0857 14.4349C30.1224 14.387 29.1471 14.4229 28.1838 14.4229C28.1838 15.8484 28.1838 17.25 28.1838 18.6995ZM22.3802 21.5745C22.3802 21.2031 22.031 20.8557 21.6578 20.8557C21.2845 20.8557 20.9353 21.2031 20.9353 21.5745C20.9353 21.9458 21.2845 22.2932 21.6578 22.2932C22.031 22.2932 22.3802 21.9458 22.3802 21.5745Z" fill="#1DAD8C"/>
</svg>
