<svg width="41" height="46" viewBox="0 0 41 46" fill="none" xmlns="http://www.w3.org/2000/svg">
<path d="M12.1606 18.7134C11.7142 18.6774 11.2499 18.6954 10.8214 18.6056C8.82136 18.1743 7.9285 15.9103 9.07136 14.2032C9.19636 14.0056 9.28564 13.736 9.28564 13.5024C9.3035 11.3103 9.26779 9.1001 9.32136 6.90791C9.33922 6.08135 9.44636 5.21885 9.71422 4.44619C10.4285 2.27198 12.7499 1.69698 14.3392 1.84073C14.7856 1.87666 15.1785 1.84073 15.5892 1.67901C17.6785 0.852445 19.8392 0.20557 22.0892 0.0438509C24.0892 -0.117868 26.0178 0.133695 27.6964 1.37354C29.2321 2.52354 29.9999 4.15869 30.3928 5.99151C30.8749 8.30948 30.7321 10.6274 30.3392 12.9454C30.2856 13.2868 30.3035 13.5024 30.5892 13.754C31.4285 14.5267 31.6785 15.7665 31.2678 16.8446C30.8571 17.9048 29.8392 18.6415 28.6785 18.6774C28.4106 18.6774 28.1428 18.6774 27.8928 18.6774C27.7856 19.1806 27.7142 19.6657 27.5892 20.1149C27.2856 21.211 26.7499 22.1814 26.0356 23.0618C25.8749 23.2595 25.7678 23.5649 25.7678 23.8165C25.7321 24.7329 25.7499 25.6493 25.7678 26.5478C25.7678 26.7095 25.9106 26.9431 26.0356 27.0149C27.3749 27.8056 28.7142 28.6501 30.1071 29.3329C30.8035 29.6743 31.6428 29.7821 32.4106 29.9618C33.3035 30.1774 34.2142 30.3751 35.1071 30.5907C37.9999 31.2915 39.9999 33.8071 40.0356 36.8079C40.0535 39.5392 40.0356 42.2884 40.0356 45.0196C40.0356 45.7204 39.8035 45.954 39.0892 45.954C32.6249 45.954 26.1428 45.954 19.6785 45.954C13.4821 45.954 7.3035 45.954 1.10707 45.954C0.232073 45.954 0.0356445 45.7564 0.0356445 44.8759C0.0356445 42.2704 0.0356445 39.6649 0.0356445 37.0595C0.0356445 33.7712 1.99993 31.2735 5.1785 30.5189C6.49993 30.2134 7.82136 29.9259 9.12493 29.6024C9.53564 29.4946 9.94636 29.3509 10.3214 29.1353C11.5535 28.4524 12.7678 27.7337 13.9999 27.0329C14.2499 26.8892 14.3214 26.7454 14.3214 26.4759C14.3035 25.5415 14.3214 24.5892 14.3035 23.6548C14.3035 23.4931 14.2499 23.2954 14.1428 23.1696C13.0714 21.9298 12.4285 20.4923 12.2321 18.8571C12.1964 18.8212 12.1785 18.7673 12.1606 18.7134ZM38.5714 44.5345C38.5714 41.8392 38.6249 39.1798 38.5535 36.5384C38.4999 34.436 36.9642 32.6032 34.9464 32.0821C33.5178 31.7048 32.0892 31.4173 30.6606 31.0579C30.3749 30.986 30.2142 31.0399 30.0178 31.2556C28.6071 32.9087 27.1606 34.5439 25.7321 36.197C25.2678 36.7181 25.0535 36.754 24.4285 36.4126C24.0892 36.2329 23.7678 36.0353 23.4106 35.8376C23.0535 36.736 22.6964 37.5985 22.3749 38.461C22.3035 38.6587 22.3035 38.9282 22.3928 39.1259C23.1249 40.8329 23.8749 42.522 24.6249 44.211C24.7321 44.4626 24.8571 44.5704 25.1428 44.5704C27.3749 44.5524 29.6071 44.5704 31.8392 44.5704C31.9464 44.5704 32.0356 44.5524 32.1785 44.5524C32.1785 44.3728 32.1785 44.229 32.1785 44.0853C32.1785 43.1509 32.1785 42.1985 32.1785 41.2642C32.1785 40.6173 32.4106 40.2759 32.8749 40.2759C33.3392 40.2759 33.6071 40.6173 33.6071 41.2462C33.6071 41.7853 33.6071 42.3243 33.6071 42.8634C33.6071 43.4204 33.6071 43.9954 33.6071 44.5704C35.2678 44.5345 36.8928 44.5345 38.5714 44.5345ZM16.6249 35.8376C16.2499 36.0532 15.9106 36.2329 15.5892 36.4306C14.9821 36.772 14.7499 36.736 14.2856 36.197C12.8571 34.5439 11.4285 32.9087 9.99993 31.2556C9.82136 31.0399 9.66064 31.004 9.39279 31.0579C8.10707 31.3814 6.82136 31.6689 5.53564 31.9564C2.9285 32.5673 1.4285 34.454 1.4285 37.1493C1.4285 39.4493 1.4285 41.7673 1.4285 44.0673C1.4285 44.229 1.4285 44.3907 1.4285 44.5345C3.12493 44.5345 4.74993 44.5345 6.4285 44.5345C6.4285 44.3728 6.4285 44.229 6.4285 44.0673C6.4285 43.061 6.4285 42.0548 6.4285 41.0665C6.4285 40.5634 6.71422 40.2579 7.12493 40.2399C7.5535 40.222 7.83922 40.5454 7.85707 41.0665C7.85707 41.5337 7.85707 42.0009 7.85707 42.4501C7.85707 43.1329 7.85707 43.8157 7.85707 44.4806C7.9285 44.5165 7.96422 44.5345 7.98207 44.5345C10.3214 44.5345 12.6606 44.5524 14.9821 44.5345C15.1071 44.5345 15.2856 44.3907 15.3571 44.2649C16.1428 42.5399 16.8928 40.797 17.6606 39.072C17.7142 38.9462 17.7678 38.8024 17.7321 38.6946C17.3928 37.7423 16.9999 36.8079 16.6249 35.8376ZM13.5892 10.5556C13.5892 13.179 13.5178 15.7845 13.6071 18.4079C13.7321 21.7142 16.5714 24.3735 19.8392 24.4274C23.4999 24.4814 26.4106 21.6243 26.4285 17.9228C26.4464 15.497 26.4285 13.0712 26.4285 10.6454C26.4285 10.5196 26.4106 10.3939 26.4106 10.2321C25.1785 10.5017 23.9642 10.7353 22.7678 11.0228C20.6964 11.5079 18.6071 11.7235 16.4999 11.3103C15.5178 11.1126 14.5714 10.8071 13.5892 10.5556ZM28.8214 12.9095C28.8571 12.8376 28.8749 12.8017 28.8928 12.7657C29.2678 10.6454 29.4106 8.50713 28.9999 6.38682C28.7499 5.05713 28.2499 3.83526 27.2499 2.88291C26.0714 1.76885 24.6428 1.42744 23.0892 1.42744C20.8928 1.42744 18.8214 2.00244 16.8035 2.75713C15.8214 3.11651 14.8749 3.42198 13.7499 3.29619C12.2499 3.13448 11.1964 4.01494 10.8749 5.47041C10.7678 5.9376 10.7321 6.42276 10.7321 6.88994C10.7142 8.77666 10.7321 10.6634 10.7321 12.5501C10.7321 12.6939 10.7321 12.8376 10.7321 12.9814C11.2321 12.9454 11.6964 12.9274 12.1606 12.8915C12.1606 11.7235 12.1606 10.5735 12.1606 9.44151C12.1606 8.95635 12.4106 8.61494 12.8035 8.63291C13.0356 8.63291 13.2678 8.74073 13.4821 8.83057C16.0356 10.0345 18.6785 10.3579 21.4464 9.80088C23.2678 9.44151 25.0892 9.02823 26.8928 8.65088C27.5178 8.5251 27.8749 8.8126 27.8749 9.44151C27.8749 9.76494 27.8749 10.1063 27.8749 10.4298C27.8749 11.2564 27.8749 12.0649 27.8749 12.8915C28.2142 12.9095 28.4999 12.9095 28.8214 12.9095ZM24.2856 24.6071C21.4106 26.2962 18.5714 26.2603 15.7142 24.6071C15.7142 25.3439 15.6964 26.0087 15.7321 26.6915C15.7321 26.8892 15.8214 27.1228 15.9464 27.2845C17.1606 28.704 18.3928 30.1056 19.6071 31.5071C19.7321 31.6509 19.8571 31.7767 19.9999 31.9384C21.4106 30.3212 22.7856 28.7399 24.1606 27.1587C24.2321 27.0868 24.2856 26.979 24.2856 26.8892C24.2856 26.1524 24.2856 25.4157 24.2856 24.6071ZM25.1606 28.2189C23.8035 29.7821 22.4821 31.3095 21.1249 32.8548C22.3928 33.5915 23.6071 34.2923 24.8571 34.9931C26.2142 33.4298 27.5356 31.9204 28.8928 30.3571C27.6249 29.6384 26.3928 28.9376 25.1606 28.2189ZM11.1249 30.3751C12.4821 31.9384 13.8214 33.4657 15.1606 35.011C16.4106 34.2923 17.6249 33.5915 18.8928 32.8728C17.5356 31.3095 16.1964 29.7821 14.8571 28.2368C13.5892 28.9376 12.3749 29.6384 11.1249 30.3751ZM23.1785 44.5345C22.6249 43.2946 22.1249 42.1267 21.6071 40.9587C21.3928 40.4915 21.2856 39.8267 20.9106 39.5931C20.5356 39.3595 19.9106 39.5392 19.3928 39.5212C19.1249 39.5032 18.9999 39.611 18.9106 39.8446C18.2856 41.3001 17.6428 42.7376 16.9999 44.1931C16.9464 44.3009 16.9285 44.4087 16.8928 44.5345C18.9642 44.5345 21.0356 44.5345 23.1785 44.5345ZM17.8749 35.1009C18.2499 36.0532 18.6071 36.9517 18.9821 37.8501C19.0356 37.9579 19.2142 38.0657 19.3392 38.0657C19.7856 38.0837 20.2321 38.0837 20.6785 38.0657C20.7856 38.0657 20.9642 38.0118 20.9999 37.922C21.3928 36.9876 21.7499 36.0532 22.1428 35.1009C21.4642 34.7056 20.8214 34.3282 20.1785 33.9689C20.0892 33.9149 19.9464 33.9329 19.8571 33.9689C19.1964 34.3462 18.5535 34.7235 17.8749 35.1009ZM27.8749 17.204C28.6249 17.2939 29.3214 17.2579 29.7856 16.5392C30.1071 16.054 30.0714 15.4251 29.7142 14.9399C29.3214 14.4188 28.6606 14.2212 27.8749 14.4189C27.8749 15.3532 27.8749 16.2696 27.8749 17.204ZM12.1249 17.204C12.1249 16.2517 12.1249 15.3173 12.1249 14.3829C11.3571 14.2931 10.6606 14.329 10.2321 15.0657C9.9285 15.5689 9.9285 16.0899 10.2499 16.5931C10.6964 17.2759 11.3928 17.2939 12.1249 17.204Z" fill="#1DAD8C"/>
</svg>
