<svg width="31" height="31" viewBox="0 0 31 31" fill="none" xmlns="http://www.w3.org/2000/svg">
<g clip-path="url(#clip0_706_1000)">
<path d="M9.67836 12.957C10.309 14.3374 11.1944 15.4999 12.1768 16.614C13.4867 18.0913 14.9299 19.4234 16.6036 20.5011C17.0039 20.7554 17.4284 20.9613 17.8407 21.2035C18.0105 21.3003 18.0712 21.2035 18.1682 21.1066C18.7746 20.5011 19.381 19.8956 19.9996 19.2902C20.5939 18.6968 21.2609 18.2609 22.1342 18.2124C22.874 18.1761 23.5653 18.3456 24.0989 18.8542C25.5665 20.271 27.0219 21.6999 28.4166 23.1773C29.399 24.2187 29.3869 25.8777 28.4288 26.9675C27.5676 27.9363 26.6701 28.8566 25.7241 29.7406C25.3239 30.116 24.8024 30.4066 24.3051 30.6246C23.1772 31.121 21.9886 31.0484 20.8 30.8546C18.3501 30.4308 16.1428 29.3773 14.0203 28.13C8.69597 24.9816 4.65724 20.6222 1.84347 15.1246C1.05513 13.5746 0.424453 11.9398 0.145502 10.2081C-0.0849362 8.82768 -0.109193 7.45932 0.59425 6.17572C0.788303 5.83666 1.00661 5.4976 1.27344 5.21908C2.12242 4.3351 2.9714 3.4269 3.89315 2.61557C5.21514 1.46518 6.71905 1.47729 8.00466 2.68822C9.39941 3.99604 10.7335 5.35229 12.0313 6.75697C13.0622 7.85893 13.0379 9.44526 12.0313 10.5714C11.3763 11.3101 10.6486 11.9882 9.95732 12.6906C9.87242 12.7753 9.78752 12.8601 9.67836 12.957ZM22.2554 29.2441C23.2742 29.232 24.0868 28.9413 24.7417 28.2632C25.4331 27.5488 26.1365 26.8585 26.8157 26.132C27.034 25.8898 27.2402 25.5749 27.3251 25.2601C27.4827 24.7031 27.1432 24.3035 26.7793 23.9402C25.615 22.7656 24.4385 21.6031 23.2621 20.4285C23.1772 20.3437 23.0802 20.2589 22.9831 20.1863C22.5586 19.8714 22.0978 19.8593 21.6612 20.1499C21.4914 20.2589 21.3458 20.4042 21.2003 20.5374C20.4968 21.2277 19.8055 21.9421 19.0899 22.6324C18.5806 23.1288 18.0469 23.2499 17.4648 22.9593C16.8583 22.6566 16.264 22.3417 15.694 21.9785C13.8384 20.8039 12.2374 19.3265 10.7942 17.6796C9.70262 16.4445 8.73236 15.1246 8.05317 13.5988C7.68932 12.7753 7.78635 12.3031 8.42915 11.6734C9.1811 10.9347 9.93306 10.2081 10.6608 9.44526C11.158 8.92455 11.158 8.37963 10.7093 7.81049C10.6244 7.71362 10.5395 7.61674 10.4424 7.51987C9.29026 6.36947 8.1502 5.21908 6.99801 4.06869C6.27031 3.34213 5.6275 3.34213 4.89981 4.05658C4.18423 4.75893 3.45653 5.44916 2.78948 6.18783C2.47414 6.5269 2.19519 6.93862 2.02539 7.36244C1.6858 8.2101 1.7707 9.10619 1.92837 9.99018C2.20732 11.5523 2.78948 13.0054 3.49292 14.4101C5.10599 17.6191 7.27696 20.4042 9.89667 22.8503C12.6013 25.357 15.6576 27.3066 19.1385 28.5902C20.1572 28.9898 21.2367 29.2078 22.2554 29.2441Z" fill="#1DAD8C"/>
<path d="M16.3004 0.884092C16.3004 0.327061 16.7855 -0.0846578 17.3313 0.0122172C20.5938 0.605577 23.4561 1.99815 25.8939 4.27472C27.9315 6.17589 29.4233 8.45245 30.3208 11.0923C30.5997 11.9278 30.7816 12.7997 30.9757 13.6595C31.0848 14.156 30.7938 14.5556 30.3086 14.6646C29.8599 14.7614 29.4111 14.5071 29.2899 14.0349C29.1201 13.4294 29.0109 12.7997 28.829 12.1942C27.9072 9.15479 26.1729 6.66026 23.6744 4.69854C21.7218 3.16065 19.5023 2.20401 17.0645 1.75597C16.5794 1.6712 16.3004 1.33214 16.3004 0.884092Z" fill="#1DAD8C"/>
<path d="M17.0161 5.60645C17.4891 5.72754 18.047 5.82441 18.5806 6.01816C22.0493 7.27754 24.293 9.6873 25.2391 13.2596C25.2997 13.4775 25.3482 13.6955 25.3846 13.9135C25.4695 14.3736 25.1784 14.8096 24.7297 14.9307C24.293 15.0518 23.82 14.7975 23.6745 14.3373C23.5168 13.8287 23.4319 13.2959 23.2379 12.7994C22.0857 9.84473 19.939 8.02832 16.822 7.37441C16.3369 7.27754 16.0579 6.9748 16.0337 6.55098C16.0215 6.12715 16.252 5.77598 16.6522 5.65488C16.7492 5.64277 16.8463 5.63066 17.0161 5.60645Z" fill="#1DAD8C"/>
</g>
<defs>
<clipPath id="clip0_706_1000">
<rect width="31" height="31" fill="white"/>
</clipPath>
</defs>
</svg>
