<svg width="28" height="37" viewBox="0 0 28 37" fill="none" xmlns="http://www.w3.org/2000/svg">
<path d="M14.0015 35.6759C13.4571 35.0135 12.9563 34.3982 12.4501 33.7868C12.1238 33.3948 11.7894 33.0029 11.4644 32.611C11.2093 32.2962 10.9649 31.9735 10.7178 31.6534C10.4707 31.3334 10.2236 31.0212 9.98438 30.6998C9.57606 30.1497 9.17566 29.5932 8.76602 29.0433C8.42246 28.5834 8.05906 28.1392 7.72738 27.6702C7.33097 27.1137 6.96361 26.5415 6.587 25.9719C6.23286 25.4414 5.8774 24.9124 5.52986 24.3742C5.18233 23.8359 4.83216 23.2532 4.49122 22.6888C4.12784 22.0828 3.75784 21.4791 3.41823 20.8599C3.17113 20.4092 2.97027 19.9337 2.74828 19.4699C2.54742 19.0505 2.32806 18.6403 2.14703 18.2132C2.00167 17.8709 1.90388 17.5103 1.77967 17.1588C1.74928 17.0726 1.67792 16.9995 1.65414 16.9119C1.53389 16.4782 1.41232 16.0432 1.31321 15.6055C1.18541 15.1024 1.08615 14.5926 1.01589 14.0783C0.989706 13.6457 0.995889 13.2117 1.03439 12.7798C1.03439 12.6204 1.12028 12.4637 1.11896 12.3069C1.12315 11.6752 1.23207 11.0486 1.44139 10.4518C1.66735 9.74763 1.81799 9.0082 2.13117 8.34454C2.49897 7.59726 2.93183 6.88301 3.42484 6.20988C4.05913 5.31238 4.77005 4.47236 5.70032 3.84398C6.37954 3.38544 7.02175 2.87724 7.73003 2.46311C8.2969 2.14102 8.89278 1.87162 9.50998 1.65836C9.9738 1.48984 10.4773 1.42452 10.9635 1.30955C11.3296 1.22203 11.6943 1.12927 12.0603 1.04827C12.1464 1.02443 12.2352 1.01126 12.3246 1.00908C13.4254 1.00908 14.5261 0.981647 15.6282 1.02215C16.0603 1.03782 16.4857 1.20243 16.9139 1.30041C17.1716 1.35789 17.4332 1.40361 17.6829 1.482C18.2091 1.62598 18.7262 1.80047 19.2316 2.00456C19.7986 2.2567 20.3351 2.57938 20.8769 2.88247C21.7354 3.36406 22.5166 3.96948 23.1947 4.67877C23.7001 5.17174 24.1741 5.69532 24.6138 6.24646C24.9936 6.78391 25.3269 7.35202 25.6101 7.94479C25.9012 8.51566 26.1563 9.10379 26.374 9.70582C26.5243 10.1773 26.6401 10.6588 26.7202 11.1468C26.8433 11.7209 26.9337 12.3014 26.991 12.8856C27.0255 13.3181 26.9515 13.7596 26.925 14.192C26.925 14.29 26.8999 14.388 26.9038 14.4847C26.929 14.9915 26.7466 15.45 26.5894 15.9217C26.4017 16.4795 26.2616 17.0517 26.0766 17.6108C25.9717 17.8953 25.8504 18.1736 25.7132 18.4444C25.4675 18.9747 25.2296 19.5104 24.9613 20.0304C24.6482 20.6365 24.3125 21.2309 23.9756 21.824C23.558 22.5595 23.1364 23.2925 22.7017 24.0188C22.5089 24.3415 22.2855 24.6458 22.0728 24.9568C21.6644 25.5538 21.2588 26.1522 20.8425 26.744C20.4263 27.3358 19.9703 27.9577 19.5409 28.5729C19.1987 29.0602 18.8802 29.5658 18.5287 30.0413C18.1455 30.5508 17.7186 31.0302 17.3236 31.532C16.832 32.1577 16.3615 32.8005 15.8634 33.4223C15.2675 34.1617 14.653 34.8881 14.0015 35.6759ZM14.0292 33.4354C14.2539 33.1244 14.4257 32.8606 14.6226 32.6189C14.9066 32.274 15.2317 31.9591 15.5039 31.6051C15.9254 31.0603 16.31 30.4895 16.721 29.9368C17.2257 29.2601 17.7477 28.5978 18.2472 27.9184C18.5934 27.4455 18.9079 26.9516 19.2488 26.4749C19.6452 25.9105 20.0747 25.3644 20.4606 24.7922C20.8293 24.2488 21.165 23.6844 21.5085 23.1253C21.708 22.7999 21.8969 22.472 22.0873 22.1362C22.3239 21.7287 22.5537 21.3184 22.7902 20.9108C22.9806 20.5829 23.1867 20.2655 23.3664 19.9323C23.6307 19.4429 23.8826 18.9478 24.1223 18.447C24.3059 18.0734 24.4843 17.6958 24.6337 17.3078C24.775 16.942 24.8741 16.5618 24.9931 16.1882C25.1397 15.7258 25.3895 15.2738 25.4133 14.7982C25.4555 14.1319 25.6406 13.4826 25.4886 12.7772C25.3499 12.1397 25.3736 11.4708 25.1318 10.8319C24.9297 10.3094 24.8385 9.73717 24.6165 9.21984C24.2081 8.2632 23.6586 7.3717 22.9859 6.57437C22.3106 5.78007 21.568 5.01974 20.6628 4.46191C20.1031 4.11579 19.5253 3.7992 18.9317 3.51346C18.415 3.26655 17.8745 3.07582 17.3302 2.87724C17.1133 2.81216 16.8926 2.75981 16.6695 2.72048C16.2638 2.62249 15.858 2.43568 15.4537 2.4396C14.3754 2.45266 13.2985 2.30895 12.2149 2.53888C11.5542 2.67867 10.9001 2.80017 10.2698 3.0327C9.80334 3.20907 9.30914 3.33057 8.87306 3.55527C8.29487 3.85408 7.74512 4.20387 7.23053 4.60039C6.5553 5.1273 5.91321 5.69447 5.30787 6.29872C4.88363 6.72084 4.51592 7.195 4.21373 7.70963C3.82524 8.38505 3.39841 9.0487 3.19888 9.8234C3.02445 10.5001 2.76149 11.1533 2.59764 11.8327C2.50002 12.2643 2.45566 12.706 2.46549 13.1482C2.48049 13.7187 2.52459 14.2882 2.59764 14.8544C2.64043 15.1026 2.70544 15.3465 2.79189 15.5833C2.87645 15.8603 2.97027 16.1347 3.0641 16.4077C3.17642 16.7356 3.2742 17.0713 3.41295 17.3875C3.60191 17.8173 3.81995 18.2354 4.03137 18.6547C4.33002 19.2505 4.61941 19.8527 4.94183 20.4366C5.25501 20.9984 5.60254 21.5392 5.93818 22.0931C6.23286 22.5869 6.50507 23.0965 6.81825 23.5798C7.253 24.2501 7.71549 24.9032 8.16742 25.563C8.51495 26.0698 8.85721 26.5806 9.21531 27.0811C9.49677 27.4729 9.80466 27.8518 10.0888 28.245C10.4469 28.7428 10.7772 29.2588 11.1459 29.7487C11.5674 30.3104 12.022 30.8474 12.4554 31.4013C12.9655 32.0493 13.469 32.7116 14.0292 33.4354Z" fill="#1DAD8C" stroke="#1DAD8C" stroke-width="0.5"/>
<path d="M14.0278 7.94334C16.4474 7.84275 18.3251 9.93168 18.2274 12.2623C18.1454 14.222 16.4844 16.2795 13.7992 16.1815C11.6268 16.107 9.74906 14.2611 9.7887 11.9253C9.82438 9.93429 11.5832 7.82053 14.0278 7.94334ZM14.0278 9.38039C12.4738 9.22361 11.2106 10.7835 11.2528 12.0612C11.2912 13.4498 12.4421 14.7928 14.0463 14.7615C14.7684 14.757 15.4594 14.4707 15.9689 13.965C16.4786 13.4592 16.7654 12.775 16.7671 12.0612C16.787 10.7338 15.6293 9.26804 14.0265 9.37646L14.0278 9.38039Z" fill="#1DAD8C" stroke="#1DAD8C" stroke-width="0.5"/>
</svg>
