<svg width="51" height="45" viewBox="0 0 51 45" fill="none" xmlns="http://www.w3.org/2000/svg">
<g clip-path="url(#clip0_260_93)">
<path d="M34.3016 27.9599C34.0548 27.9599 33.8492 27.9599 33.6436 27.9599C30.1887 27.9599 26.7133 27.9599 23.2585 27.9599C21.2843 27.9599 19.7419 26.7023 19.3718 24.8369C19.2895 24.4597 19.2895 24.0824 19.2895 23.6842C19.2895 21.5253 19.2895 19.3455 19.2895 17.1658C18.5081 17.3963 17.7472 17.6059 16.9863 17.8574C16.8835 17.8993 16.8423 18.1718 16.8423 18.3395C16.8218 21.7349 16.8218 25.1094 16.8012 28.5048C16.7806 33.577 16.7806 38.6702 16.7601 43.7424C16.7601 43.8681 16.7601 43.9939 16.7601 44.0987C16.7395 44.6017 16.4105 44.9371 15.9581 44.958C15.5262 44.979 15.1766 44.6227 15.1149 44.1406C15.0944 43.9939 15.1149 43.8262 15.1149 43.6795C15.1355 34.9394 15.156 26.1783 15.1766 17.4382C15.1766 16.516 15.3823 16.3903 16.2665 16.2016C17.2331 15.992 18.1996 15.7405 19.0839 15.3004C22.1891 13.7703 24.8625 11.6953 26.7544 8.67717C27.0012 8.27894 27.1863 7.81784 27.3714 7.35673C27.4948 7.04233 27.5359 6.68602 27.1657 6.47643C26.775 6.26683 26.3843 6.05724 25.973 6.41355C25.7056 6.6441 25.4589 6.91658 25.2121 7.18905C24.1222 8.2999 23.094 9.47363 21.9629 10.5426C20.5028 11.9049 18.8165 12.89 16.7806 13.1206C16.431 13.1625 16.102 13.1625 15.7524 13.1625C12.4827 13.1625 9.2129 13.1625 5.94314 13.1625C4.79153 13.1625 3.74274 13.4769 2.81734 14.1895C2.11814 14.7135 1.70685 15.4261 1.70685 16.3274C1.68629 19.7228 1.64516 23.0973 1.66573 26.4927C1.66573 27.897 2.8379 29.1755 4.23629 29.3642C4.23629 29.1546 4.23629 28.945 4.23629 28.7354C4.23629 24.9208 4.23629 21.1271 4.23629 17.3125C4.23629 17.2077 4.23629 17.1029 4.23629 16.9981C4.23629 16.2855 4.54476 15.9082 5.05887 15.9082C5.59355 15.9082 5.88145 16.2855 5.88145 16.9981C5.88145 25.9478 5.88145 34.9184 5.88145 43.8681C5.88145 44.0149 5.88145 44.1406 5.86089 44.2873C5.79919 44.7065 5.53185 44.9371 5.12056 44.979C4.72984 45.0209 4.42137 44.8323 4.29798 44.4131C4.23629 44.2035 4.23629 43.9729 4.23629 43.7424C4.23629 39.7601 4.23629 35.7778 4.23629 31.7955C4.23629 31.5859 4.23629 31.3763 4.23629 31.1248C3.96895 31.0619 3.72218 30.999 3.49597 30.9361C1.37782 30.3074 0 28.4629 0 26.1783C0 23.0973 0.0205645 19.9953 0.041129 16.9142C0.0616935 14.2734 1.275 12.5337 3.76331 11.8211C4.7504 11.5486 5.81976 11.5486 6.84798 11.4648C7.34153 11.4229 7.85564 11.4648 8.45202 11.4648C8.06129 11.1504 7.73226 10.8989 7.44436 10.6264C5.53186 8.78197 4.85323 5.32366 5.86089 2.8714C6.6629 0.985046 8.51371 -0.0838874 10.7552 -4.94402e-05C14.3746 0.167626 15.9786 2.93428 15.5673 6.35067C15.3206 8.59334 14.6625 9.64131 12.5855 11.5067C14.7242 11.3809 16.8423 11.863 18.796 10.7731C19.1456 10.5845 19.3101 10.3749 19.3101 9.93474C19.2895 8.2999 19.2895 6.6441 19.3101 5.00927C19.3306 2.51509 20.9141 0.880249 23.3819 0.880249C31.2375 0.880249 39.0726 0.880249 46.9282 0.880249C49.396 0.880249 51.0206 2.53605 51.0206 5.05118C51.0206 11.2971 51.0206 17.564 51.0206 23.8099C51.0206 26.3041 49.4165 27.9599 46.9694 27.9599C43.5351 27.9809 40.1214 27.9599 36.6871 27.9599C36.4814 27.9599 36.2758 27.9599 36.029 27.9599C36.0085 28.1695 35.9879 28.3372 35.9879 28.5048C35.9879 31.5649 35.9879 34.625 36.0085 37.6641C36.0085 37.9156 36.1524 38.23 36.3375 38.4187C37.921 40.0326 39.525 41.6255 41.129 43.2394C41.2524 43.3651 41.3758 43.4909 41.4786 43.6166C41.7665 43.9939 41.746 44.3712 41.4375 44.7065C41.1496 45.0419 40.6766 45.0628 40.327 44.7694C40.1831 44.6646 40.0802 44.5388 39.9569 44.4131C38.4968 42.9459 37.0161 41.4788 35.556 40.0116C35.4327 39.8858 35.3093 39.781 35.1653 39.6343C34.3427 40.4517 33.5407 41.2482 32.7387 42.0656C31.875 42.925 31.0113 43.8053 30.127 44.6646C29.8391 44.958 29.4895 45.1047 29.1605 44.8742C28.9343 44.7065 28.7286 44.3712 28.7081 44.0987C28.6875 43.8681 28.9137 43.5537 29.0988 43.3651C30.744 41.7093 32.3891 40.0535 34.0343 38.3977C34.1988 38.23 34.3427 37.9576 34.3427 37.727C34.3633 34.5831 34.3633 31.4392 34.3633 28.2952C34.3222 28.2324 34.3222 28.1485 34.3016 27.9599ZM20.9758 9.20116C21.202 8.99157 21.346 8.88677 21.4694 8.74005C22.5181 7.6292 23.5669 6.47643 24.6363 5.38654C25.8085 4.19185 27.7415 4.33856 28.6875 5.70093C28.8931 5.99436 29.0988 6.05724 29.4073 6.05724C34.1782 6.05724 38.9286 6.05724 43.6996 6.05724C43.8641 6.05724 44.0492 6.03628 44.2137 6.0782C44.6661 6.14108 44.954 6.47643 44.954 6.91658C44.954 7.35673 44.6456 7.69208 44.1726 7.734C44.0286 7.75496 43.8641 7.734 43.7202 7.734C38.9698 7.734 34.2194 7.734 29.4895 7.734C29.1605 7.734 28.9754 7.77592 28.8726 8.15319C28.7286 8.6143 28.5024 9.05445 28.2556 9.47363C27.9472 9.99762 27.577 10.5006 27.1863 11.0875C27.4331 11.0875 27.6181 11.0875 27.8032 11.0875C33.1089 11.0875 38.4351 11.0875 43.7407 11.0875C43.9052 11.0875 44.0903 11.0666 44.2548 11.1085C44.6867 11.1923 44.954 11.4648 44.954 11.9259C44.954 12.408 44.6867 12.6595 44.2548 12.7643C44.1109 12.7852 43.9464 12.7852 43.8024 12.7852C38.0444 12.7852 32.2863 12.7852 26.5282 12.7852C26.3637 12.7852 26.1786 12.7433 26.0141 12.7852C25.829 12.8062 25.6234 12.8481 25.5 12.9529C24.1222 13.9799 22.7649 15.0279 21.3665 16.034C21.0992 16.2226 20.9758 16.3903 20.9758 16.7466C20.9964 19.094 20.9758 21.4205 20.9758 23.768C20.9758 25.4867 21.819 26.3251 23.5052 26.346C31.2786 26.346 39.0726 26.346 46.846 26.346C48.5323 26.346 49.3754 25.4867 49.3754 23.768C49.3754 17.585 49.3548 11.4019 49.396 5.21886C49.4165 3.79362 48.5117 2.59893 46.8254 2.59893C39.0726 2.64084 31.3403 2.61989 23.5875 2.61989C23.3613 2.61989 23.1351 2.61989 22.9294 2.64084C21.9423 2.72468 21.0581 3.58402 21.0169 4.59008C20.9347 6.03628 20.9758 7.56632 20.9758 9.20116ZM7.05363 5.4075C7.05363 6.62315 7.34153 7.75496 8.02016 8.76101C9.39798 10.7941 11.7012 10.7941 13.0379 8.74005C13.7371 7.65016 14.0044 6.45547 13.9633 5.15598C13.9016 2.99716 12.7706 1.80247 10.673 1.67671C8.73992 1.59287 7.40323 2.61989 7.11532 4.5272C7.07419 4.82063 7.07419 5.11406 7.05363 5.4075Z" fill="#1DAD8C"/>
<path d="M9.54199 37.8738C9.54199 35.8407 9.54199 33.7867 9.54199 31.7536C9.54199 31.1877 9.78877 30.8524 10.2206 30.7895C10.673 30.7057 11.1049 31.02 11.1666 31.5231C11.2077 31.7536 11.1872 31.9842 11.1872 32.1938C11.1872 36.0084 11.1872 39.844 11.1872 43.6586C11.1872 43.8053 11.1872 43.9311 11.1872 44.0778C11.146 44.6437 10.7964 45 10.3234 44.9791C9.87102 44.9581 9.54199 44.6018 9.54199 44.0568C9.54199 42.422 9.54199 40.7662 9.54199 39.1314C9.54199 38.7122 9.54199 38.293 9.54199 37.8738Z" fill="#1DAD8C"/>
<path d="M35.1242 17.7736C32.2452 17.7736 29.3662 17.7736 26.4871 17.7736C26.3432 17.7736 26.1787 17.7946 26.0347 17.7527C25.6029 17.6479 25.3355 17.3544 25.3561 16.9143C25.3767 16.4532 25.644 16.1807 26.0964 16.1178C26.2198 16.0969 26.3432 16.1178 26.446 16.1178C32.2452 16.1178 38.065 16.1178 43.8642 16.1178C43.9875 16.1178 44.1109 16.1178 44.2137 16.1178C44.6662 16.1807 44.9335 16.4532 44.9541 16.9143C44.9746 17.3964 44.7073 17.6688 44.2754 17.7736C44.1109 17.8156 43.9258 17.7946 43.7613 17.7946C40.8823 17.7736 38.0033 17.7736 35.1242 17.7736Z" fill="#1DAD8C"/>
<path d="M35.1241 22.8039C32.2451 22.8039 29.366 22.8039 26.487 22.8039C26.2608 22.8039 26.0346 22.8039 25.8289 22.7201C25.4382 22.5734 25.2737 22.259 25.3354 21.8398C25.3971 21.4416 25.6438 21.19 26.0551 21.1272C26.1991 21.1062 26.3225 21.1062 26.4664 21.1062C32.2451 21.1062 38.0237 21.1062 43.7817 21.1062C43.9257 21.1062 44.0491 21.1062 44.193 21.1062C44.6455 21.1691 44.9128 21.4206 44.9334 21.9027C44.9539 22.3847 44.7071 22.6572 44.2753 22.762C44.1108 22.8039 43.9257 22.783 43.7612 22.783C40.8821 22.8039 38.0031 22.8039 35.1241 22.8039Z" fill="#1DAD8C"/>
</g>
<defs>
<clipPath id="clip0_260_93">
<rect width="51" height="45" fill="white"/>
</clipPath>
</defs>
</svg>
