<svg width="38" height="46" viewBox="0 0 38 46" fill="none" xmlns="http://www.w3.org/2000/svg">
<g clip-path="url(#clip0_583_178)">
<path d="M37.92 14.0544C37.92 16.1593 38.0005 18.2774 37.9066 20.3823C37.7054 24.6186 36.5384 28.6151 34.5399 32.3585C31.1731 38.6464 26.1968 43.1891 19.5437 45.8801C19.1816 46.0266 18.8731 46.04 18.5109 45.8801C9.25571 42.0301 3.48797 35.1827 0.899195 25.631C0.241941 23.1798 -0.0129124 20.6754 0.000500924 18.1575C0.0139143 14.9603 0.000500924 11.7764 0.000500924 8.5792C0.000500924 7.84651 0.174874 7.58007 0.845542 7.31364C6.68035 4.91572 12.5152 2.53113 18.35 0.133213C18.7926 -0.0532917 19.195 -0.0532917 19.6376 0.119891C25.4724 2.51781 31.2938 4.9024 37.1286 7.27367C37.7456 7.52678 38.0139 7.92644 38.0005 8.59252C37.9737 10.4043 37.9871 12.2294 37.9871 14.0411C37.9737 14.0544 37.9468 14.0544 37.92 14.0544ZM35.8141 14.9603C35.841 14.9603 35.8678 14.9603 35.8946 14.9603C35.8946 13.1486 35.8812 11.3235 35.908 9.51173C35.908 9.15204 35.7873 9.0055 35.4654 8.87228C30.1269 6.70084 24.7884 4.51607 19.4633 2.3313C19.1279 2.19808 18.8597 2.19808 18.5243 2.34462C13.1992 4.51607 7.87413 6.70084 2.53562 8.87228C2.2137 9.0055 2.09298 9.16536 2.09298 9.51173C2.1064 12.3759 2.09298 15.2401 2.1064 18.1043C2.11981 20.0492 2.25394 21.9942 2.66976 23.8992C4.70858 33.1179 10.0471 39.7121 18.645 43.7087C18.8731 43.8152 19.2352 43.7753 19.4633 43.6687C24.9627 41.1908 29.2282 37.3542 32.2328 32.1587C34.3118 28.5618 35.519 24.6719 35.8007 20.5421C35.9214 18.7037 35.8141 16.8254 35.8141 14.9603Z" fill="#1DAD8C"/>
<path d="M14.8353 19.8761C14.8353 18.9702 14.7683 18.1043 14.8487 17.2383C15.0365 15.1468 16.7937 13.6282 18.9935 13.6148C21.1798 13.6015 22.9772 15.1335 23.165 17.265C23.2455 18.1043 23.1784 18.9569 23.1784 19.8761C23.6077 19.8761 23.9296 19.8627 24.2515 19.8761C24.8953 19.8894 25.338 20.3157 25.338 20.9551C25.3514 23.726 25.3514 26.4836 25.338 29.2546C25.338 29.934 24.8953 30.347 24.1576 30.3603C23.2857 30.3736 22.4139 30.3603 21.542 30.3603C19.0739 30.3603 16.5925 30.3603 14.1244 30.3603C13.0245 30.3603 12.6758 30.0139 12.6758 28.9348C12.6758 26.3504 12.6758 23.766 12.6758 21.1816C12.6758 20.2491 13.0514 19.8761 13.9903 19.8761C14.2317 19.8761 14.4732 19.8761 14.8353 19.8761ZM23.2321 28.2288C23.2321 26.1906 23.2321 24.2189 23.2187 22.2473C23.2187 22.1541 22.9638 21.9809 22.8297 21.9809C20.2811 21.9676 17.7192 21.9676 15.1707 21.9676C14.889 21.9676 14.7548 22.0342 14.7548 22.3406C14.7683 24.2323 14.7683 26.1373 14.7683 28.029C14.7683 28.0956 14.7951 28.1489 14.8219 28.2288C17.6119 28.2288 20.3885 28.2288 23.2321 28.2288ZM21.0457 19.8494C21.0591 19.7828 21.0859 19.7428 21.0859 19.6896C21.0859 19.0101 21.0994 18.3174 21.0725 17.638C21.0323 16.6255 20.2811 15.8262 19.302 15.7463C18.1082 15.6397 17.1022 16.2259 16.9681 17.2783C16.8473 18.1176 16.9412 18.9835 16.9412 19.8627C18.3228 19.8494 19.691 19.8494 21.0457 19.8494Z" fill="#1DAD8C"/>
</g>
<defs>
<clipPath id="clip0_583_178">
<rect width="38" height="46" fill="white"/>
</clipPath>
</defs>
</svg>
