<svg width="39" height="46" viewBox="0 0 39 46" fill="none" xmlns="http://www.w3.org/2000/svg">
<g clip-path="url(#clip0_663_19)">
<path d="M6.13831 39.8913C4.83625 39.8913 3.59618 39.8913 2.37162 39.8913C0.930048 39.8913 0 38.9504 0 37.5312C0 25.8075 0 14.0838 0 2.36016C0 0.940979 0.945549 0 2.37162 0C11.7496 0 21.1121 0 30.4901 0C31.9316 0 32.8617 0.925553 32.8617 2.36016C32.8617 3.56338 32.8617 4.75117 32.8617 5.95439C32.8617 5.98524 32.8772 6.0161 32.8927 6.10865C33.0322 6.10865 33.1872 6.10865 33.3577 6.10865C34.4893 6.10865 35.6208 6.10865 36.7369 6.10865C38.0079 6.12408 38.9535 7.06506 38.9845 8.31455C39 9.00872 38.9845 9.68746 38.9845 10.3816C38.9845 18.4648 38.9845 26.548 38.9845 34.6311C38.9845 36.3125 38.3335 37.7317 37.1089 38.8887C35.2643 40.6164 33.4197 42.3286 31.5906 44.0718C30.2266 45.3675 28.6455 46.0154 26.7544 46C20.6936 45.9846 14.6328 46 8.57194 46C7.05286 46 6.13831 45.0899 6.13831 43.5781C6.13831 42.3595 6.13831 41.1563 6.13831 39.8913ZM27.8549 44.334C27.8549 44.0872 27.8549 43.9175 27.8549 43.7632C27.8549 42.0664 27.8394 40.385 27.8549 38.6881C27.8704 36.7445 29.1415 35.495 31.0791 35.495C32.8462 35.495 34.5978 35.495 36.3649 35.495C37.3104 35.495 37.3104 35.495 37.3104 34.5694C37.3104 25.9618 37.3104 17.3541 37.3104 8.74648C37.3104 7.8672 37.2019 7.75922 36.3339 7.75922C27.1729 7.75922 18.0119 7.75922 8.85095 7.75922C7.90541 7.75922 7.7969 7.8672 7.7969 8.82361C7.7969 20.3313 7.7969 31.8545 7.7969 43.3622C7.7969 44.2414 7.8899 44.3494 8.77345 44.3494C14.8188 44.3494 20.8641 44.3494 26.9094 44.3494C27.2039 44.334 27.4829 44.334 27.8549 44.334ZM31.1721 6.10865C31.1876 5.90811 31.1876 5.75386 31.1876 5.5996C31.1876 4.62777 31.1876 3.65594 31.1876 2.6841C31.1876 1.77398 31.0946 1.68142 30.18 1.68142C21.0036 1.68142 11.8271 1.68142 2.65064 1.68142C2.49563 1.68142 2.35612 1.68142 2.20111 1.69685C1.8911 1.7277 1.70509 1.89738 1.68959 2.2059C1.67409 2.39101 1.67409 2.5607 1.67409 2.74581C1.67409 14.053 1.67409 25.3602 1.67409 36.6519C1.67409 36.9296 1.67409 37.2227 1.67409 37.5003C1.68959 38.0711 1.8601 38.2562 2.43362 38.2562C3.47218 38.2562 4.51073 38.2562 5.54928 38.2562C5.71979 38.2562 5.9058 38.2562 6.12281 38.2562C6.12281 38.0248 6.12281 37.8551 6.12281 37.67C6.12281 27.9826 6.13832 18.2951 6.10731 8.60765C6.10731 7.17304 7.11487 6.0778 8.64944 6.0778C15.9658 6.12408 23.2667 6.09323 30.5831 6.09323C30.7846 6.10865 30.9551 6.10865 31.1721 6.10865ZM29.529 43.5319C29.5755 43.5627 29.6065 43.5781 29.653 43.609C31.9161 41.4802 34.1793 39.3669 36.4424 37.2381C36.4114 37.2072 36.3804 37.161 36.3494 37.1301C34.5513 37.1301 32.7532 37.1147 30.9396 37.1301C30.18 37.1301 29.5445 37.67 29.529 38.3796C29.498 40.0919 29.529 41.8042 29.529 43.5319Z" fill="#1DAD8C"/>
<path d="M22.5226 15.534C19.965 15.534 17.4074 15.534 14.8497 15.534C14.6947 15.534 14.5397 15.534 14.4002 15.5185C13.9662 15.4414 13.6407 15.0866 13.6407 14.701C13.6407 14.2845 13.9817 13.9297 14.4312 13.868C14.5707 13.8525 14.6947 13.8525 14.8342 13.8525C19.9805 13.8525 25.1113 13.8525 30.2575 13.8525C31.0326 13.8525 31.4666 14.1456 31.4666 14.6855C31.4666 15.2254 31.0326 15.534 30.273 15.534C27.6844 15.534 25.1113 15.534 22.5226 15.534Z" fill="#1DAD8C"/>
<path d="M22.5226 26.5942C19.872 26.5942 17.2369 26.5942 14.5862 26.5942C13.8887 26.5942 13.4547 26.0389 13.7337 25.4835C13.8577 25.2521 14.1522 25.1133 14.4002 24.9745C14.5087 24.9128 14.6947 24.959 14.8497 24.959C19.996 24.959 25.1268 24.959 30.273 24.959C31.0791 24.959 31.4821 25.2213 31.4821 25.7766C31.4821 26.3319 31.0946 26.6096 30.2885 26.6096C27.6844 26.5942 25.1113 26.5942 22.5226 26.5942Z" fill="#1DAD8C"/>
<path d="M22.5691 21.0568C20.0115 21.0568 17.4539 21.0568 14.8963 21.0568C14.7102 21.0568 14.5397 21.0568 14.3537 21.0414C13.9507 20.9951 13.6407 20.6403 13.6407 20.2392C13.6407 19.8536 13.9507 19.4834 14.3382 19.4217C14.4157 19.4062 14.4932 19.4062 14.5707 19.4062C19.8875 19.4062 25.2198 19.4062 30.5366 19.4062C31.2341 19.4062 31.6526 19.977 31.3891 20.5632C31.2341 20.918 30.9241 21.0414 30.5521 21.0414C29.436 21.0414 28.3199 21.0414 27.2194 21.0414C25.6693 21.0568 24.1192 21.0568 22.5691 21.0568Z" fill="#1DAD8C"/>
<path d="M18.942 32.1629C17.5159 32.1629 16.0898 32.1629 14.6637 32.1629C14.0592 32.1629 13.6407 31.8081 13.6407 31.3144C13.6407 30.8208 14.0592 30.4814 14.6637 30.4814C14.7722 30.4814 14.8807 30.4814 14.9738 30.4814C17.0509 30.4814 19.128 30.4814 21.1896 30.4814C21.8561 30.4814 22.5071 30.4814 23.1737 30.4814C23.8247 30.4814 24.1812 30.79 24.1967 31.299C24.2122 31.8389 23.8402 32.1629 23.1737 32.1629C21.7786 32.1629 20.3525 32.1629 18.942 32.1629Z" fill="#1DAD8C"/>
</g>
<defs>
<clipPath id="clip0_663_19">
<rect width="39" height="46" fill="white"/>
</clipPath>
</defs>
</svg>
