<svg width="46" height="47" viewBox="0 0 46 47" fill="none" xmlns="http://www.w3.org/2000/svg">
<g clip-path="url(#clip0_508_363)">
<path d="M28.1937 47.0001C23.8162 47.0001 19.4388 47.0001 15.08 47.0001C12.2977 47.0001 10.4058 45.1091 10.4058 42.3552C10.4058 35.9294 10.4058 29.5036 10.4058 23.0778C10.4058 22.9493 10.4058 22.8392 10.4058 22.7106C10.4429 22.3067 10.7582 22.0314 11.1477 22.0314C11.5372 22.0314 11.834 22.3251 11.8896 22.7106C11.9082 22.8392 11.8896 22.986 11.8896 23.1146C11.8896 29.5036 11.8896 35.911 11.8896 42.3001C11.8896 44.3196 13.1138 45.513 15.1541 45.513C23.8719 45.513 32.5896 45.513 41.3074 45.513C43.3106 45.513 44.5348 44.3013 44.5348 42.3185C44.5348 35.1399 44.5348 27.9614 44.5348 20.8013C44.5348 19.3692 44.0896 18.1392 43.1251 17.0743C40.2501 13.8981 37.3937 10.7036 34.5372 7.50909C33.5171 6.37081 32.2743 5.83838 30.7348 5.85674C27.7671 5.89346 24.7993 5.8751 21.8316 5.8751C21.7017 5.8751 21.5533 5.89346 21.4235 5.85674C21.034 5.78331 20.7929 5.54463 20.7929 5.12237C20.7929 4.71846 21.034 4.47979 21.4421 4.40635C21.5719 4.38799 21.7203 4.40635 21.8501 4.40635C24.8921 4.40635 27.934 4.40635 30.9759 4.40635C32.8679 4.40635 34.3888 5.14073 35.6501 6.53604C38.4509 9.69385 41.2703 12.8517 44.1082 15.9728C45.3509 17.3497 46.0001 18.9103 46.0001 20.7462C46.0001 27.9431 46.0001 35.1583 46.0001 42.3552C46.0001 45.1091 44.0896 46.9817 41.3074 46.9817C36.93 47.0001 32.5711 47.0001 28.1937 47.0001Z" fill="#1DAD8C"/>
<path d="M10.3688 20.5991C5.24947 20.5623 0.834952 16.7803 0.111565 11.8049C-0.686016 6.37054 2.93092 1.28499 8.3285 0.201786C14.1341 -0.954855 19.7914 2.95569 20.6632 8.75725C20.7374 9.21624 20.7559 9.69358 20.7745 10.1709C20.793 10.685 20.4962 10.9971 20.0696 11.0155C19.6245 11.0338 19.3277 10.7033 19.3091 10.1709C19.1793 6.00335 16.4341 2.66194 12.3535 1.70725C7.49382 0.568974 2.50431 3.8553 1.66963 8.70218C0.816404 13.6408 4.04382 18.1756 8.97769 18.9834C13.1511 19.6627 17.2688 17.276 18.7527 13.3287C19.0309 12.576 19.3462 12.3373 19.847 12.5026C20.3108 12.6678 20.4406 13.1084 20.1438 13.8244C18.5858 17.6799 15.7479 19.9014 11.593 20.4889C11.185 20.544 10.7769 20.5623 10.3688 20.5991Z" fill="#1DAD8C"/>
<path d="M6.43637 14.4487C6.58475 13.5491 6.71459 12.6312 6.91863 11.7499C6.99282 11.3827 6.91863 11.1624 6.6404 10.9054C6.00975 10.3362 5.43475 9.73037 4.80411 9.14287C4.54443 8.88584 4.35895 8.62881 4.48879 8.26162C4.61863 7.89443 4.93395 7.78428 5.28637 7.7292C6.19524 7.60068 7.08556 7.49053 7.99443 7.34365C8.16137 7.32529 8.34685 7.17842 8.43959 7.03154C8.84766 6.24209 9.23717 5.45264 9.62669 4.66318C9.79363 4.33271 9.99766 4.09404 10.3872 4.07568C10.7952 4.07568 11.0178 4.33271 11.1848 4.66318C11.5557 5.45264 11.9452 6.22373 12.3533 6.99482C12.446 7.16006 12.6686 7.30693 12.8541 7.34365C13.7444 7.49053 14.6533 7.58232 15.5436 7.76592C15.8219 7.821 16.1186 8.05967 16.267 8.29834C16.4525 8.61045 16.2299 8.9042 15.9888 9.14287C15.3581 9.74873 14.746 10.3729 14.0969 10.9604C13.8557 11.1808 13.8001 11.4194 13.8557 11.7315C14.0227 12.5944 14.1525 13.4757 14.3194 14.3386C14.3751 14.669 14.3194 14.9995 14.0041 15.128C13.763 15.2198 13.4106 15.2382 13.188 15.128C12.3719 14.7425 11.5743 14.3202 10.7767 13.8796C10.517 13.7511 10.3315 13.7327 10.0533 13.8796C9.23717 14.3202 8.42104 14.7425 7.60492 15.1647C6.99282 15.4401 6.39927 15.0729 6.43637 14.4487ZM6.84443 8.996C7.34524 9.4917 7.7533 9.93232 8.19846 10.3546C8.47669 10.63 8.56943 10.9237 8.49524 11.3093C8.3654 11.8968 8.29121 12.5026 8.16137 13.1819C8.77346 12.8698 9.31137 12.6128 9.83072 12.319C10.2202 12.0987 10.5727 12.0987 10.9622 12.319C11.4815 12.6128 12.0194 12.8698 12.613 13.1819C12.5017 12.521 12.4275 11.9335 12.2977 11.3644C12.2049 10.9421 12.3162 10.63 12.613 10.3362C13.0581 9.91396 13.4662 9.47334 13.9299 9.01436C13.2993 8.92256 12.7243 8.8124 12.1307 8.75732C11.6856 8.72061 11.3888 8.50029 11.2033 8.11475C10.9622 7.58232 10.6839 7.06826 10.3686 6.4624C10.0533 7.08662 9.77508 7.6374 9.5154 8.16982C9.34846 8.53701 9.07024 8.72061 8.66217 8.75732C8.08717 8.79404 7.49363 8.9042 6.84443 8.996Z" fill="#1DAD8C"/>
<path d="M27.8225 25.7031C24.0943 25.7031 20.3846 25.7031 16.6564 25.7031C16.5265 25.7031 16.3782 25.7215 16.2483 25.6848C15.8588 25.6113 15.6177 25.3727 15.5991 24.9688C15.5991 24.5648 15.8403 24.3262 16.2298 24.2344C16.3411 24.216 16.4709 24.216 16.6007 24.216C24.0943 24.216 31.5878 24.216 39.0814 24.216C39.2112 24.216 39.3225 24.1977 39.4523 24.2344C39.8233 24.2895 40.1015 24.6199 40.0644 24.9688C40.0459 25.3543 39.8233 25.593 39.4523 25.6664C39.304 25.7031 39.137 25.6848 38.9886 25.6848C35.2604 25.7031 31.5322 25.7031 27.8225 25.7031Z" fill="#1DAD8C"/>
<path d="M27.8225 31.5781C24.0943 31.5781 20.3846 31.5781 16.6564 31.5781C16.5265 31.5781 16.3782 31.5965 16.2483 31.5598C15.8588 31.4863 15.6177 31.2477 15.5991 30.8438C15.5991 30.4398 15.8403 30.2012 16.2298 30.1094C16.3411 30.091 16.4709 30.091 16.6007 30.091C24.0943 30.091 31.5878 30.091 39.0814 30.091C39.2112 30.091 39.3225 30.0727 39.4523 30.1094C39.8233 30.1645 40.1015 30.4949 40.0644 30.8438C40.0459 31.2293 39.8233 31.468 39.4523 31.5414C39.304 31.5781 39.137 31.5598 38.9886 31.5598C35.2604 31.5781 31.5322 31.5781 27.8225 31.5781Z" fill="#1DAD8C"/>
<path d="M27.8225 37.4532C24.0943 37.4532 20.3846 37.4532 16.6564 37.4532C16.508 37.4532 16.3411 37.4715 16.1927 37.4348C15.8032 37.343 15.562 37.086 15.5806 36.6821C15.5991 36.2965 15.8217 36.0579 16.2112 35.9844C16.3411 35.9661 16.4895 35.9661 16.6193 35.9661C24.0758 35.9661 31.5322 35.9661 39.0072 35.9661C39.137 35.9661 39.2483 35.9661 39.3782 35.9661C39.7862 36.0028 40.0645 36.3149 40.0645 36.7004C40.0645 37.086 39.7677 37.3797 39.3596 37.4165C39.2298 37.4348 39.0814 37.4165 38.9516 37.4165C35.2419 37.4532 31.5322 37.4532 27.8225 37.4532Z" fill="#1DAD8C"/>
<path d="M37.0041 19.0938C35.817 19.0938 34.6299 19.0938 33.4428 19.0938C31.7178 19.0938 30.438 17.8086 30.4194 16.1012C30.4194 13.7328 30.4194 11.3645 30.4194 8.99609C30.4194 8.40859 30.6791 8.07812 31.1614 8.07812C31.6251 8.07812 31.9033 8.40859 31.9033 8.97773C31.9033 11.3094 31.9033 13.6227 31.9033 15.9543C31.9033 17.0375 32.4969 17.625 33.5912 17.625C35.9469 17.625 38.321 17.625 40.6767 17.625C41.2331 17.625 41.5856 17.9555 41.5485 18.4145C41.5114 18.8367 41.2146 19.0938 40.7138 19.0938C39.471 19.0938 38.2469 19.0938 37.0041 19.0938Z" fill="#1DAD8C"/>
</g>
<defs>
<clipPath id="clip0_508_363">
<rect width="46" height="47" fill="white"/>
</clipPath>
</defs>
</svg>
