<svg width="44" height="48" viewBox="0 0 44 48" fill="none" xmlns="http://www.w3.org/2000/svg">
<path d="M42.9028 25.1146C42.8217 24.1545 42.3025 23.5362 41.4265 23.1782C40.2423 22.6901 39.0743 22.1694 37.89 21.6975C37.4682 21.5348 37.3709 21.307 37.3709 20.8839C37.3871 16.6045 37.3871 12.325 37.3709 8.02932C37.3709 5.84891 36.0082 4.23802 33.9317 3.91258C33.7371 3.88004 33.5424 3.86377 33.3315 3.86377L33.1368 5.34449C34.7753 5.44212 35.8784 6.45096 35.8784 8.17576C35.8784 9.47749 35.8784 10.763 35.8784 12.0972H2.50881V11.6254C2.50881 10.4863 2.5737 9.33105 2.49258 8.19203C2.41147 6.82521 3.48215 5.50721 5.12062 5.34449L4.73129 3.86377C2.68725 4.02649 0.983892 5.76755 1.00011 8.25712C1.065 17.0764 1.01634 25.8793 1.03256 34.6986C1.03256 37.302 2.68725 38.9618 5.28285 38.9618C10.4254 38.9618 15.5841 38.9618 20.7267 38.9618C21.0511 38.9618 21.1971 39.0757 21.3755 39.336C22.0082 40.2798 22.6085 41.2723 23.3385 42.1347C25.1392 44.2338 27.4752 45.6169 29.9572 46.7559C30.6548 47.0813 31.3037 47.0976 32.0013 46.821C34.0291 46.0562 35.8136 44.9009 37.2574 43.29C41.897 38.0994 43.4706 31.9324 42.9028 25.1146ZM19.9317 37.4648C15.0488 37.4648 10.1658 37.4648 5.26663 37.4648C3.5146 37.4648 2.50881 36.4722 2.50881 34.7148C2.50881 27.8482 2.50881 20.9816 2.50881 14.1149V13.6268H35.8622V20.7863C35.554 20.6561 35.2458 20.5585 34.97 20.4283C33.948 19.989 32.926 19.5659 31.9039 19.1266C31.2713 18.85 30.671 18.8662 30.0221 19.1429C26.7776 20.526 23.5331 21.909 20.2886 23.2759C19.4126 23.6501 18.8935 24.2684 18.9097 25.2122C18.9422 28.2875 18.9908 31.3629 19.6397 34.3894C19.8344 35.3006 20.1264 36.2118 20.3698 37.1068C20.4022 37.2044 20.4184 37.302 20.4671 37.4485H19.9317V37.4648ZM40.0638 35.9189C38.9607 38.8479 37.3547 41.4188 34.9051 43.4365C33.8669 44.2989 32.7151 44.9823 31.4335 45.4216C31.1901 45.503 30.8495 45.4867 30.6061 45.3891C28.335 44.4128 26.2585 43.1273 24.5552 41.2886C22.6896 39.2872 21.6513 36.879 21.0998 34.2267C20.6131 31.8998 20.4833 29.5405 20.3698 27.1811C20.3698 26.579 20.3698 25.977 20.3698 25.3749C20.3698 25.0169 20.4995 24.8054 20.8402 24.659C24.1171 23.2759 27.3941 21.8765 30.671 20.5097C30.8495 20.4283 31.109 20.4446 31.2875 20.5097C34.5158 21.8602 37.7278 23.2433 40.9399 24.5939C41.3779 24.7729 41.4103 25.1146 41.4428 25.4888C41.7997 29.0686 41.3292 32.5507 40.0638 35.9189Z" fill="#1DAD8C" stroke="#1DAD8C" stroke-width="0.5"/>
<path d="M32.1129 29.6241C31.5051 30.2667 30.9117 30.9251 30.2315 31.6775C30.0578 31.4424 29.9421 31.2386 29.7684 31.0818C29.0882 30.4235 28.1186 30.4392 27.4962 31.1132C26.8595 31.7872 26.8305 32.8375 27.4384 33.5742C27.9159 34.1542 28.408 34.7498 28.9145 35.3142C29.696 36.2233 30.6657 36.2233 31.4761 35.3455C32.4602 34.2796 33.4443 33.2137 34.414 32.1478C35.1521 31.3483 35.1955 30.2511 34.5298 29.53C33.8496 28.7933 32.8655 28.8246 32.1129 29.6241Z" fill="#1DAD8C"/>
<path d="M33.4287 3.86377H4.74731V5.34449H33.4287V3.86377Z" fill="#1DAD8C" stroke="#1DAD8C" stroke-width="0.5"/>
<path d="M9.93854 8.22462C9.46809 8.22462 9.09497 7.85037 9.09497 7.37849V1.84613C9.11119 1.37425 9.48431 1 9.93854 1C10.409 1 10.7821 1.37425 10.7821 1.84613V7.37849C10.7821 7.8341 10.409 8.22462 9.93854 8.22462Z" fill="#1DAD8C" stroke="#1DAD8C" stroke-width="0.5"/>
<path d="M30.5735 8.22462C30.1031 8.22462 29.73 7.85037 29.73 7.37849V1.84613C29.73 1.37425 30.1031 1 30.5735 1C31.044 1 31.4171 1.37425 31.4171 1.84613V7.37849C31.4171 7.8341 31.0278 8.22462 30.5735 8.22462Z" fill="#1DAD8C" stroke="#1DAD8C" stroke-width="0.5"/>
<path d="M20.4832 8.22462C20.0128 8.22462 19.6396 7.85037 19.6396 7.37849V1.84613C19.6396 1.37425 20.0128 1 20.4832 1C20.9537 1 21.3268 1.37425 21.3268 1.84613V7.37849C21.3106 7.8341 20.9374 8.22462 20.4832 8.22462Z" fill="#1DAD8C" stroke="#1DAD8C" stroke-width="0.5"/>
</svg>
